<svg xmlns="http://www.w3.org/2000/svg" xmlns:xlink="http://www.w3.org/1999/xlink" width="600" height="222.96" viewBox="0 0 600 222.96">
  <defs>
    <clipPath id="clip-path">
      <rect id="Rectángulo_419388" data-name="Rectángulo 419388" width="600" height="222.96" transform="translate(810 2225.089)" fill="#fff" opacity="0.4"/>
    </clipPath>
    <clipPath id="clip-path-2">
      <rect id="Rectángulo_419389" data-name="Rectángulo 419389" width="240.001" height="222.96" transform="translate(0 0)" fill="none"/>
    </clipPath>
    <filter id="Trazado_1043752" x="155.686" y="23.227" width="81.423" height="80.621" filterUnits="userSpaceOnUse">
      <feOffset dy="3" input="SourceAlpha"/>
      <feGaussianBlur stdDeviation="3" result="blur"/>
      <feFlood flood-opacity="0.161"/>
      <feComposite operator="in" in2="blur"/>
      <feComposite in="SourceGraphic"/>
    </filter>
    <clipPath id="clip-path-3">
      <rect id="Rectángulo_419390" data-name="Rectángulo 419390" width="66.85" height="92.116" fill="none"/>
    </clipPath>
    <clipPath id="clip-path-4">
      <rect id="Rectángulo_419391" data-name="Rectángulo 419391" width="97.467" height="102.077" fill="none"/>
    </clipPath>
  </defs>
  <g id="Enmascarar_grupo_1098809" data-name="Enmascarar grupo 1098809" transform="translate(-810 -2225.089)" clip-path="url(#clip-path)">
    <rect id="Rectángulo_419387" data-name="Rectángulo 419387" width="505" height="110.934" rx="10" transform="translate(852.5 2312.033)" fill="#f4b6ae"/>
    <g id="Grupo_1203648" data-name="Grupo 1203648" transform="translate(1009.999 2225.085)">
      <g id="Grupo_1203647" data-name="Grupo 1203647" transform="translate(0 0.004)" clip-path="url(#clip-path-2)">
        <path id="Trazado_1043624" data-name="Trazado 1043624" d="M2677.37,830.543a24.8,24.8,0,0,0-2.67,6.58,6.481,6.481,0,0,0,2.1,6.183c1.29,1.217,2.55,2.464,3.823,3.7.534.17.716.652.955,1.082a3.009,3.009,0,0,0,.282.523c1.578,1.828,3.3,3.58,2.925,6.4a4.744,4.744,0,0,0,1.26-2.217,2.32,2.32,0,0,1,2.3-1.559c2.429-.018,4.859,0,7.286-.181a32.233,32.233,0,0,1,15.979,12.209c2.612,3.681,3.69,8.133,4.742,12.487a45.3,45.3,0,0,1,1.019,15.984,18.547,18.547,0,0,1-2.3,6.723,58.889,58.889,0,0,1-13.445,16.629,93.5,93.5,0,0,1-8.161,6.753c-.887-.09-1.026-.846-1.272-1.473-3.548-9.036-6.68-18.221-9.864-27.389-1.736-5-4.433-9.559-6.933-14.206a116.776,116.776,0,0,0-7.508-12.369,10.64,10.64,0,0,0-2.387-2.647,61.539,61.539,0,0,0-5.411-5.35c-4.9-3.742-9.984-7.114-16.062-8.674-1.523-.391-1.862-.905-1.773-2.3.2-3.117-.333-3.954-3.2-5.037a1.817,1.817,0,0,1-.768-.446,3.724,3.724,0,0,1-.2-2.467,8.944,8.944,0,0,0-2.4-6.815c-3.1-3.507-7.216-4.65-11.664-5.18-2.565-.305-5.145-.072-7.7-.428a.883.883,0,0,1-.277-.4,2.207,2.207,0,0,1,.248-1.574,28.225,28.225,0,0,0,2.395-8.5,2.934,2.934,0,0,1,.34-1.122c.672-.652.953.054,1.272.411a10.85,10.85,0,0,0,2.318,2.26c.681.269,1.273-.083,1.891-.273,2.095-.517,2.775-1.927,3.034-4,.9-7.164,2.562-14.2,3.793-21.312a7.168,7.168,0,0,0,.039-2.952c.688-1.494,1.774-1.638,2.738-.36a6.671,6.671,0,0,1,.783,1.75c-.071,2.546-.977,4.932-1.465,7.4-1.073,5.422-1.788,10.907-3.049,16.42.7,0,1.035-.488,1.491-.7.655-.235,1.115-.8,1.759-1.05a3.481,3.481,0,0,0,1.405-2.19,35.481,35.481,0,0,0,2.225-9.952c.082-1.257.738-2.5.159-3.789-.133-1.162-1.043-2.162-.722-3.421a1.538,1.538,0,0,1,.551-.694,20.281,20.281,0,0,1,10.746-3.637,2.872,2.872,0,0,1,2.248,1.311c.766.883,1.569,1.712,2.917,1.384a.511.511,0,0,1,.433.065c2.323,2.062,4.66.566,6.863-.147a5.4,5.4,0,0,1,4.443.182,29.789,29.789,0,0,1,15.772,19.142c1.64,5.83.468,11.243-2.125,16.5a26.526,26.526,0,0,0-1.188,2.727" transform="translate(-2482.39 -748.107)" fill="#f3604c"/>
        <path id="Trazado_1043625" data-name="Trazado 1043625" d="M803.32,3566.649a227.986,227.986,0,0,1-23.91-2.479,253.448,253.448,0,0,1-32.8-7.184c-1.435-1.535-.843-3.483-.994-5.253a15.883,15.883,0,0,1,.149-3.544,30.6,30.6,0,0,1,1.087-6.139c1.672-5.166,3.993-9.941,8.039-13.735,3.063-2.873,6.4-4.452,10.8-3.644a91.392,91.392,0,0,1,12.243,3.2c.478.227,1,.35,1.468.605a56.713,56.713,0,0,1,6.139,2.434c.972.459,1.891,1.02,2.857,1.492,2.2,1.156,4.313,2.463,6.489,3.659a114.244,114.244,0,0,1,13.191,9.587,4.053,4.053,0,0,0,.877.548c2.086,1.546,4.152,3.117,6.115,4.82q2.228,1.623,4.413,3.3c.468.357,1,.664,1.2,1.283.078.719-.448,1.057-.913,1.42-4.307,3.357-8.875,6.341-13.42,9.357-.956.635-2,.367-3.027.276" transform="translate(-707.498 -3344.455)" fill="#201f50"/>
        <path id="Trazado_1043626" data-name="Trazado 1043626" d="M2094.425,3664.6a233.3,233.3,0,0,1-32.625,5.525,332.578,332.578,0,0,1-39.795,1.894c-3.482-.053-6.961-.22-10.442-.335-.313-.533.133-.733.454-.906,6.767-3.648,12.4-8.8,18.213-13.713,5.9-4.985,11.941-9.772,18.874-13.3,4.745-2.417,9.522-4.715,14.068-5.182a44.674,44.674,0,0,0-12.381,4.1c-1.766.87-3.773,1.24-5.567,2.12a.947.947,0,0,1-1.116-.156c-.019-1.016.841-1.263,1.5-1.632a58.392,58.392,0,0,1,13.273-5.928,3.493,3.493,0,0,0,.407-.185c5.374-1.488,10.793-2.594,16.418-2.01a17.786,17.786,0,0,1,2.411.321c.443.125.9.189,1.343.332.82.331,1.694.506,2.508.86.977.365,1.869.911,2.828,1.316,5.842,3.456,9.03,8.669,10.12,15.276.276,1.674.354,3.364.493,5.052-.1,1.278-.118,2.557-.088,3.836a3.569,3.569,0,0,1-.894,2.719" transform="translate(-1908.725 -3449.088)" fill="#201f50"/>
        <path id="Trazado_1043627" data-name="Trazado 1043627" d="M421.126,2275.792a106.649,106.649,0,0,0-12.69-3.223,10.43,10.43,0,0,0-8.822,2.513,27.333,27.333,0,0,0-7.775,10.944c-.458,1.13-.846,2.289-1.266,3.435-2.115-1.09-4.273-.192-6.407-.117-4.067.143-8.14.526-12.118-.742a12.263,12.263,0,0,1-2.024-5.389c-1.258-6.542.153-12.772,2.282-18.916a19.915,19.915,0,0,0,1.235-3.818,2.126,2.126,0,0,1,.3-1.845c1.086-2.4,2.135-4.819,3.2-7.231.514-1.811,1.752-3.23,2.691-4.8,5.122-8.537,9.832-17.313,15.069-25.781a133.431,133.431,0,0,1,10.28-15.017c.56-.678,1.038-1.675,2.255-1.255a21.054,21.054,0,0,0,2.934,3.368,4.961,4.961,0,0,1,1.285,1.816c1.975,5.551,3.687,11.16,3.6,17.144a10.579,10.579,0,0,1-.06,1.343c-.234,1.651-1,2.188-2.576,1.7-1.717-.532-3.488-.819-5.225-1.255a7.181,7.181,0,0,0-3.4.054c-1.519.344-2.006,1.094-1.529,2.611.778,2.47,1.842,4.838,2.672,7.292a40.794,40.794,0,0,1,1.266,5.679,1.6,1.6,0,0,1-.351,1.535c-.743.392-1.241-.128-1.714-.53a49.383,49.383,0,0,1-6.685-7.363,30.974,30.974,0,0,1,2.122,3.26,36.913,36.913,0,0,0,6.292,8.257c1.283,1.387,2.687,2.662,3.988,4.034.476.5,1.078,1.061.762,1.813-.3.726-1.111.758-1.806.825-2.6.251-4.746-.914-6.774-2.3a68.206,68.206,0,0,1-7.849-6.8c.422.517.955.97,1.42,1.487.877,1.174,2.19,1.974,2.859,3.327a18.237,18.237,0,0,0,.98,1.841c.949,1.535.531,2.67-1.174,3.231-1.893.623-3.857,1.015-5.732,1.693-4.13,1.493-8.255,3.006-11.431,6.25a10.767,10.767,0,0,0-1.6,1.967c-.318.532-1.051,1.119-.643,1.68.384.53,1.226.124,1.822-.017,1.6-.377,3.2-.758,4.76-1.286a71.242,71.242,0,0,1,21.755-3.409c.776-.014,1.617-.149,2.248.527-.094.812-.776.783-1.33.908-2.914.658-5.89.953-8.828,1.472a76.591,76.591,0,0,0-16.454,4.763,2.4,2.4,0,0,0-1.479,1.028,2.793,2.793,0,0,0,1.928.538,30.584,30.584,0,0,0,7.862-.634c8.043-1.633,16.1-3.2,24.1-5.023,1.555-.354,3.051-.914,4.6-1.3,1.586-.4,2.081.016,1.572,1.5a3.762,3.762,0,0,0,.6,3.771,12.891,12.891,0,0,1-.149,3.462c-.031.464-.2.977-.853.985" transform="translate(-350.675 -2091.866)" fill="#fec53b"/>
        <path id="Trazado_1043628" data-name="Trazado 1043628" d="M3311.105,2350.278a48.686,48.686,0,0,0-.879-6.637,19.982,19.982,0,0,0-8.407-12.395c-.366-.246-.7-.536-1.054-.806a1.433,1.433,0,0,1-.521-1.17c.266-1.687,0-3.418.429-5.087.552-.9,1.173-.486,1.75-.051a20.907,20.907,0,0,1,1.923,2.081c5.379,5.327,10.673,10.747,16.488,15.611a14.16,14.16,0,0,0,4.921,2.769,2.98,2.98,0,0,0,2.94-.542c4.577-3.674,6.152-11.291,3.4-16.474a12.357,12.357,0,0,0-1.929-2.459c-.412-.453-1.032-.867-.682-1.654.891-.489,1.521.1,2.142.566a18.5,18.5,0,0,1,2.841,2.93c.794-6.2-3.342-11.2-9.73-11.756-2.86-.248-5.776-.389-8.394,1.246-1.36.232-2.656-.238-3.981-.37a75.116,75.116,0,0,0-10.09-.6,2.665,2.665,0,0,1-1.162-.212c-.815-.457-.488-1.081-.047-1.461a60.528,60.528,0,0,0,6.875-7.243.612.612,0,0,1,.694-.125c.891.675.575,1.5.247,2.292a22.849,22.849,0,0,1-2.887,4.655,7.872,7.872,0,0,0,4.171-1.989,16.914,16.914,0,0,0,5.093-7.078,32.9,32.9,0,0,0,1.82-12.306c-.164-9.328-4.425-17.255-8.351-25.3-.948-1.943-1.084-1.835-2.387-.11a41.12,41.12,0,0,0-6.163,10.7,26.157,26.157,0,0,0-1.818,11.86,14.115,14.115,0,0,0,7.265,11.215,5.86,5.86,0,0,0,2.453.56c.757.076,1.468.377,1.419,1.23-.073,1.268.134,2.6-.585,3.776a4.931,4.931,0,0,0-1.489,1.172,45.944,45.944,0,0,1-8.181,7.587c-.171-.021-.027.341-.029.141,0-.061.039-.068.1-.085.334-.087.588-.064.581.375-.676.839-1.461.351-2.221.187a3.242,3.242,0,0,1-2.091-1.281,13.06,13.06,0,0,1-.923-3.758c-.438-2.754-1.188-5.45-1.532-8.221-.008-.579-.006-1.158-.007-1.737a68.251,68.251,0,0,1,6.409-29.485c1.109-2.386,2.505-4.634,3.82-6.917a9.335,9.335,0,0,0,1.209-2.549c.811-1.871,1.715-3.671,3.7-4.6,1.2.473,1.763,1.567,2.454,2.525,4.416,6.116,7.8,12.834,11.344,19.459,3.69,6.9,5.511,14.5,8.264,21.753,1.748,4.606,3.421,9.241,5.142,13.857a5.207,5.207,0,0,0,.541.879c.561,2.386,1.736,4.546,2.506,6.858a27.937,27.937,0,0,1,.5,17.462,8.039,8.039,0,0,0-.178,1.019c.3,1.469-.478,2.686-1.008,3.924-.9,2.1-1.993,4.083-4.221,5.1a62.626,62.626,0,0,1-8.382,3.184c-3.035.042-5.918-1-8.912-1.257-1.127-.1-2.241-.365-3.373-.445a2.674,2.674,0,0,1-1.834-.813" transform="translate(-3124.929 -2141.511)" fill="#f3a62f"/>
        <path id="Trazado_1043629" data-name="Trazado 1043629" d="M26.792,1318.375l-3.926,8.981a18,18,0,0,1-4.418-3.251A51.412,51.412,0,0,1,4.072,1304.8a54.183,54.183,0,0,1-3.92-17.347c-.991-13.189,2.881-24.817,11.1-35.039a65.355,65.355,0,0,1,14.442-12.82,102.949,102.949,0,0,1,27.8-13.545,126.416,126.416,0,0,1,21.366-4.647,16.346,16.346,0,0,1,2.959-.282,2.632,2.632,0,0,1,1.482,3.015,1.988,1.988,0,0,1-1.5.526,126.5,126.5,0,0,0-42.588,12.253,58.2,58.2,0,0,0-18.378,14.116,63.556,63.556,0,0,0-10.164,14.88,38.553,38.553,0,0,0-3.9,20.87,4.018,4.018,0,0,1,.038,1.044c-.729,4.538,1.461,8.112,3.889,11.565,4.819,6.851,11,12.306,17.812,17.088a9.015,9.015,0,0,1,2.283,1.9" transform="translate(0 -1158.744)" fill="#e44b36"/>
        <path id="Trazado_1043630" data-name="Trazado 1043630" d="M1483.079,47.128c-.573-1.737-.356-3.546-.417-5.317a42.563,42.563,0,0,1,1.353-13.918,19.741,19.741,0,0,1,7.8-11.128c-1.521-1.337-3.009-2.633-2.895-4.827a4.263,4.263,0,0,1,1.162-2.737c.775,3.372,2.043,4.11,5.406,3.292,3.16-.768,6.014-2.371,9.11-3.317,3.461-1.058,6.919-1.489,10.372-.007a2.005,2.005,0,0,0,1.576-.066,16.529,16.529,0,0,1,3.835-1.029c-1.089-1.361-2.143-2.59-3.1-3.893-1.066-1.458-.757-2.05,1.07-2.255a8.967,8.967,0,0,1,6.551,1.991,24.176,24.176,0,0,1,3.525,3.271c-.8-2.285-1.656-4.544-.536-7.185,2.575,4.608,6.529,6.646,11.309,7.45,2.548.429,4.928,1.238,6.319,3.878.186-1.429-.388-2.573-.585-3.794,1.731.815,2.479,2.144,2.583,4.547,1.075-1.265,1.241-1.969,1.351-5.864a4.6,4.6,0,0,1,1.786,4.622,2.44,2.44,0,0,1-2.433,2.531c.13.573.605.7.966.921,7.567,4.656,11.15,11.659,11.966,20.292.131,1.388.23,2.779.343,4.168,1.016,2.052.66,4.16.257,6.269-.29.5-.639.869-1.285.59-1.26-.593-1.317-1.747-1.353-2.909-.549-2.649-.22-5.355-.553-8.031a25.9,25.9,0,0,0-5.226-13.46c-1.391-1.736-3.262-2.892-4.814-4.29A16.886,16.886,0,0,1,1551,20.533a22.028,22.028,0,0,0,3.063,4.582c1.15,1.259.938,1.856-.693,2.391-.974,0-1.335-.72-1.723-1.432a27.25,27.25,0,0,0-7.463-9.012,33.863,33.863,0,0,0-18.469-6.466,42.275,42.275,0,0,0-17.444,2.625,26.963,26.963,0,0,0-15.945,14.607c-.435.943-.741,2.013-2.055,2.094-1.594-.309-2.177-.914-2.327-2.417a6.3,6.3,0,0,1,5.173-6.8c-1.326-.626-1.48-1.029-.741-1.946-4,4.214-6.556,9.121-6.9,14.984-.207,3.518-.727,7.046-.123,10.578a5.4,5.4,0,0,1,.2,1.6,2.085,2.085,0,0,1-1.481,1.728,1,1,0,0,1-1-.528" transform="translate(-1406.887 -0.004)" fill="#1f1f51"/>
        <path id="Trazado_1043631" data-name="Trazado 1043631" d="M3896.331,1695.26a29.975,29.975,0,0,1-7.119.342c-1.051,0-1.679.28-1.947,1.345a19.62,19.62,0,0,1-.808,2.239c-.163.422-.356.882-.924.791-.5-.081-.5-.542-.545-.936-.037-.345-.074-.692-.091-1.038-.078-1.66-.34-3.143-1.95-4.188a4.478,4.478,0,0,1-1.553-2.976c0-2.585,0-5.17.006-7.755a5.091,5.091,0,0,1,5.132-5.4c2.832-.092,5.669-.068,8.5-.016,2.156.039,4.366,1.734,4.5,3.854a45.135,45.135,0,0,1-.175,10.547,5.082,5.082,0,0,1-.3.839,2.668,2.668,0,0,1-2.733,2.352" transform="translate(-3683.161 -1591.942)" fill="#f4fefe"/>
        <path id="Trazado_1043632" data-name="Trazado 1043632" d="M4173.825,1979.274a10.8,10.8,0,0,0,2.733-2.352c3.448,1.411,6.972,2.623,10.293,4.358,7.416,3.876,12.5,9.621,13.543,18.063a36.81,36.81,0,0,1-3.2,19.783,44.134,44.134,0,0,1-3.112,6.274c-.218.332-.361.713-.743.906a33.873,33.873,0,0,0,2.064-12.42,51.028,51.028,0,0,0-5.076-20.987c-1.868-3.89-5.211-6.6-8.574-9.2a34.637,34.637,0,0,0-7.927-4.43" transform="translate(-3960.655 -1875.955)" fill="#e44b36"/>
        <path id="Trazado_1043633" data-name="Trazado 1043633" d="M3023.922,753.627c.305-2.176.009-4.365.132-6.545a89.746,89.746,0,0,1,11.6-.62,42.99,42.99,0,0,1,21.909,5.913c7.343,4.393,11.371,10.961,12.274,19.535.744,7.07-1.392,13.208-5.411,18.858-.062-1.719.764-3.186,1.446-4.656,3.922-8.451,1.989-16.177-2.868-23.522a28.7,28.7,0,0,0-10.889-9.524c-1.38-.725-2.641-1.193-4.329-.318a12.645,12.645,0,0,1-6.78,1.139c-.851-.063-.25-.792-.427-1.256-1.4,1.283-2.588.076-3.054-.711-1.446-2.44-3.481-1.967-5.482-1.437a21.853,21.853,0,0,0-8.016,3.487.234.234,0,0,1-.143-.207q0-.137.038-.137" transform="translate(-2869.445 -708.331)" fill="#e44b36"/>
        <path id="Trazado_1043634" data-name="Trazado 1043634" d="M1915.7,3705.726c1.216.017,2.045-.962,3.145-1.231,3.079-.754,5.81-2.391,8.788-3.433,2.953-1.033,5.994-1.3,9-1.876a.622.622,0,0,1,.722.271c-.618.549-1.421.291-2.1.426-5.929,1.187-11.285,3.785-16.509,6.683-7.121,3.95-13.229,9.257-19.4,14.5-4.609,3.918-9.232,7.849-14.545,10.849-.536.3-1.3.23-1.623.911a67.9,67.9,0,0,1-7.016-.4c1.764.34,2.924-.852,4.211-1.688,4.241-2.755,8.39-5.64,12.42-8.7.243-.184.483-.349.511-.684.041-.733.611-1.07,1.1-1.471,1.2-.993,2.564-1.778,3.736-2.812a187.167,187.167,0,0,1,15.406-10.718c.639-.385,1.247-1.065,2.15-.632" transform="translate(-1780.349 -3510.234)" fill="#2a3272"/>
        <path id="Trazado_1043635" data-name="Trazado 1043635" d="M300.962,3906.469a38.24,38.24,0,0,0,.37,8.984c-7.241-2.157-14.255-4.957-21.344-7.543a9.506,9.506,0,0,1-3.119-1.714c-.791-.7-.709-1.179.222-1.658a24.46,24.46,0,0,1,6.856-1.91c.432-.081.906.018,1.249-.36a.738.738,0,0,1,.582.025c3.131,2.036,6.838,1.9,10.289,2.712,1.109.261,2.241.451,3.37.633a2.17,2.17,0,0,1,1.525.831" transform="translate(-262.217 -3702.923)" fill="#e44b36"/>
        <path id="Trazado_1043636" data-name="Trazado 1043636" d="M435.851,3851.017c-3.868-.687-7.728-1.42-11.607-2.038a8.057,8.057,0,0,1-4.159-2.163c-.428-.936-1.319-1.586-1.606-2.61.743-.676,1.513-.124,2.257-.024a53.653,53.653,0,0,0,13.426-.214c1.049-.123,2.452-.693,2.842,1.1l-1.152,5.952" transform="translate(-397.106 -3647.471)" fill="#f4a52c"/>
        <path id="Trazado_1043637" data-name="Trazado 1043637" d="M3636.428,4087.619a107.306,107.306,0,0,1,11.714,1.787c.815.178,1.6.483,2.405.729a94.675,94.675,0,0,1-13.584,3.979l-1.012.246a54.42,54.42,0,0,0,.478-6.741" transform="translate(-3450.251 -3878.852)" fill="#e44b36"/>
        <path id="Trazado_1043638" data-name="Trazado 1043638" d="M1475.457,922.683l.881.309c.819.235,1.142.94,1.439,1.617a49.58,49.58,0,0,1,4.555,18.222,2.252,2.252,0,0,1-.161,1.313c-1.369.572-1.755-.5-2.276-1.354-1.565-5.193-3.1-10.4-4.852-15.533a5.5,5.5,0,0,1-.453-2.325c-.064-.886.589-1.495.866-2.249" transform="translate(-1399.265 -875.559)" fill="#385fb2"/>
        <path id="Trazado_1043639" data-name="Trazado 1043639" d="M4085.879,3906.814c2.791-2.4,4.019-5.709,5.228-9.028a20.741,20.741,0,0,1,5.672,1.755c1.8.921,1.827,1.875.024,2.969a38.128,38.128,0,0,1-7.216,3.2,18.264,18.264,0,0,1-3.709,1.1" transform="translate(-3877.201 -3698.714)" fill="#e44b36"/>
        <path id="Trazado_1043641" data-name="Trazado 1043641" d="M1468.914,966.712a43.693,43.693,0,0,1,2.645,7.253c1.153,3.537,2.161,7.121,3.231,10.685-1.466.106-1.991-.4-2.032-1.958a14.232,14.232,0,0,0-1.346-2.977,65.406,65.406,0,0,1-2.7-10.835,2.811,2.811,0,0,1,.2-2.167" transform="translate(-1393.589 -917.339)" fill="#f4d23f"/>
        <path id="Trazado_1043642" data-name="Trazado 1043642" d="M1263.572,1567.908a30.249,30.249,0,0,0-3.334,4.541,2.207,2.207,0,0,1-1.127,1.7c-1.665.167-2.113,1.7-2.876,2.752a24.431,24.431,0,0,0-4.053,9.042,2.009,2.009,0,0,1-.723,1.427c-2.474,1.2-2.972,1.09-4.557-1.177-1.823-2.606-3.413-5.39-5.734-7.343a29.563,29.563,0,0,1,2.857,13.053,8.462,8.462,0,0,1-.357,2.5,28.579,28.579,0,0,1-9.921,18.26,4.368,4.368,0,0,1-1.95,1.049c-3.014-.945-5.918-2.038-7.073-5.419a78.3,78.3,0,0,1,.037-9.4,4.844,4.844,0,0,0-.069-1.338,5.623,5.623,0,0,1-.034-1.3c.288-1.893.1-3.648-1.44-5.02a4.438,4.438,0,0,0-3.163-1.079c-8.056,0-16.108.309-24.163.395a42.221,42.221,0,0,0-8.467.458,2.44,2.44,0,0,0-1.1.411,11.193,11.193,0,0,0-2.4,2.912,4.817,4.817,0,0,0-.431,2.462c0,3.674.016,7.348-.005,11.021-.01,1.852-.542,2.243-2.389,2-2.516-.336-5.047-.668-7.339.887a5.136,5.136,0,0,0-1.941,1.708c-.374.535-.758,1.022-1.516.9a26.64,26.64,0,0,1-8.5-7.623c-4.057-5.867-6.271-12.614-8.434-18.4.456,2.047,1.887,4.713,2.528,7.642a55.646,55.646,0,0,1,1.108,8.577,70.642,70.642,0,0,0,1.615,12.872,20.152,20.152,0,0,0,2.884,6.524c.327.482.876.983.57,1.6-.333.672-1.114.646-1.736.584-2.319-.233-4.669.252-6.972-.325a3.258,3.258,0,0,1-.7-.755c-.789-1.827-.624-3.792-.833-5.705-.28-2.562-.72-5.1-1.042-7.658a3.388,3.388,0,0,0-.147-1.972c.018-1.589-.711-3.08-.626-4.678a5.8,5.8,0,0,0,.254-2.8c-.409-4.855-.581-9.742-1.6-14.526a73.639,73.639,0,0,0-8.138-21.73c-.181-.313-.324-.624-.755-.592-.454-.231-1.007-.246-1.4-.623.061-.883.8-1.221,1.375-1.66a51.617,51.617,0,0,1,13.834-7.906c1.077-.38,1.262-.94.889-2.038a5.624,5.624,0,0,1,1.872-6.7,2.317,2.317,0,0,1,2.329-.64c.123.368.114.729.554,1.016a24.961,24.961,0,0,1,4.267,3.445,11.649,11.649,0,0,1-2.851-3.212,4.376,4.376,0,0,0-1.889-1.812,5.461,5.461,0,0,1-.006-4.762,11.522,11.522,0,0,1,5.616-5.962c3.406-1.9,7.161-2.384,10.962-2.532a15.949,15.949,0,0,1,5.348.25,3.716,3.716,0,0,1,1.516,3.92,1.211,1.211,0,0,1-.282.426,4.7,4.7,0,0,1-2.755.422c-2.88.052-5.789-.247-8.593.693-1.614.541-3.25,1.078-3.909,2.909a5.334,5.334,0,0,0,.51,3.816c.306.774.876,1.413,1.152,2.2a4.312,4.312,0,0,0,1.811,3.127c5.156,4.165,10.127,8.564,15.641,12.275.816.549,1.728,1.124,1.374,2.386a6.194,6.194,0,0,1-.74,1.082,2.314,2.314,0,0,0,.26,2.963c.4.478.991.823,1.081,1.523a.918.918,0,0,1-1.241.92c-1.688-.532-3.464-.275-5.161-.732a18.448,18.448,0,0,1-4.872-2.194,3.587,3.587,0,0,0-2.071-.741,40.3,40.3,0,0,1-9.332-5.543c2.63,2.012,4.742,4.133,7.1,5.969a35.1,35.1,0,0,0,16.042,6.792,3.271,3.271,0,0,1,1.561.439,5.845,5.845,0,0,1,.889,4.129,11.656,11.656,0,0,1-3.567,7.829,2.326,2.326,0,0,0-.87,1.31,12.059,12.059,0,0,0,4.969-9.441c.06-1.071-.251-2.2.46-3.188a2.475,2.475,0,0,1,1.99-.407,66.645,66.645,0,0,0,8.49.495c.632-.017,1.318-.121,1.794.483.535,1.135.262,2.348.3,3.528a12.969,12.969,0,0,0,2.929,8.123,5.032,5.032,0,0,0,.713.761.455.455,0,0,0,.5.061c.146-.557-.36-.82-.637-1.165a13.022,13.022,0,0,1-2.752-10.633,2.185,2.185,0,0,1,.646-1.466c4.98.21,9.236-1.922,13.469-4.15a48.159,48.159,0,0,0,12.379-9.239,16.472,16.472,0,0,0,3-3.973,13.9,13.9,0,0,0-3.746,1.474c-2.745,1.52-5.366,3.234-7.965,4.985a5.323,5.323,0,0,1-1.975,1.019,5.147,5.147,0,0,0-2.551,1.083,37.473,37.473,0,0,1-6.243,2.635,1.705,1.705,0,0,1-2.234-.574,2.089,2.089,0,0,1-.262-.835c-.118-1.074-.586-1.8-1.786-1.633a1.77,1.77,0,0,0-1.642,2.055,5.016,5.016,0,0,1,0,1.029,2.418,2.418,0,0,1-2,2.425,4.2,4.2,0,0,0-1.091.465c-3.607,2.184-7.273,1.739-10.98.3a5.747,5.747,0,0,1-1.761-1.072,1.8,1.8,0,0,1-.426-2.157,18.607,18.607,0,0,0,.682-2.551,1.79,1.79,0,0,1,1.625-1.239c1.7.38,2.932,1.588,4.324,2.5,1.65,1.083,1.851,1.132,3.4-.006,1.635-1.2,3.21-2.472,4.74-3.8a6.687,6.687,0,0,1,.661-.522,7.387,7.387,0,0,1,2.237-1.564,11.974,11.974,0,0,0,3.632-2.552c3.03-2.486,6.531-4.321,9.513-6.829,1.979-1.665,4.289-3.09,5.508-5.545.432-.668.968-1.256,1.426-1.9,2.213-3.128,1.154-6.552-2.46-7.876-2.131-.78-4.394-.649-6.6-.859-.934-.089-1.883.007-2.824-.033a2.085,2.085,0,0,1-1.76-.616c-.459-.862-.126-1.766-.143-2.651a.875.875,0,0,1,.456-.66c6.327-.42,12.521-.18,17.964,3.688a4.555,4.555,0,0,1,1.7,1.828,8.788,8.788,0,0,1-1.108,10.394,54.246,54.246,0,0,1-12.32,10.738c-1.648,1.072-3.288,2.155-4.949,3.207,4.425-2.763,8.7-5.747,12.943-8.781a61.36,61.36,0,0,0,5.946-4.974c.53-.491.989-1.172,1.887-.963a4.094,4.094,0,0,1,4.33,5.367c-.21.882-.293,1.5.857,1.76,6.172,1.39,11.322,4.761,16.287,8.485a33.422,33.422,0,0,1,5.8,5.767" transform="translate(-1080.241 -1452.648)" fill="#fec53d"/>
        <path id="Trazado_1043643" data-name="Trazado 1043643" d="M1864.234,625.166a41.205,41.205,0,0,1-3.111,11.169,20.725,20.725,0,0,1-12.789,9.781c-7.6,1.958-15.23-1.607-19.4-7.727a5.3,5.3,0,0,0-1.8-2.2,20.728,20.728,0,0,1-3.679-9.113c-.094-.482-.173-.968-.294-1.445-.123-1.021-.5-1.994-.58-3.023-.1-1.7-.643-3.315-.9-4.984.227-2.026-.492-3.927-.807-5.877-.613-3.8-1.13-7.586-.49-11.432a7.451,7.451,0,0,1,.214-1.023c.442-1.4,1.165-1.752,2.48-1.117a23.831,23.831,0,0,0,3.007,1.318,6.161,6.161,0,0,0,7.068-2.149,17.511,17.511,0,0,0,2.433-4.6c.7-1.778,1.2-2.081,3.084-1.644a9.847,9.847,0,0,0,9.281-2.381c.474-.422.972-1.053,1.662-.788.8.309.834,1.17.89,1.915a5.115,5.115,0,0,1-.771,3.139,7.425,7.425,0,0,1-3.349,2.873c-.553.253-1.5.185-1.531.958-.033.862.761,1.343,1.466,1.735a6,6,0,0,0,4.645.317,12.333,12.333,0,0,0,7.533-5.262,8.14,8.14,0,0,1,1.343-1.786c.591-.522,1.067-.473,1.336.337a.971.971,0,0,1,.074.289c.024,2.958,1.566,4.8,4.224,5.9a2.266,2.266,0,0,1,1.2,1.945,31.658,31.658,0,0,1-.2,8.168c-.091.985-.084,1.983-.25,2.964-.3,2.636-.707,5.259-.771,7.917-.365,1.954-.081,4.044-1.219,5.837" transform="translate(-1727.134 -557.837)" fill="#febd84"/>
        <path id="Trazado_1043644" data-name="Trazado 1043644" d="M1634.127,321.59a30.355,30.355,0,0,1,.733-5.812c.81-6.209,2.469-12.263,3.359-18.457-.485,3.284-1.131,6.538-1.842,9.778-.077.349.093,1.019-.691.775-.019-.006-.027-.079-.023-.119a.751.751,0,0,1,.043-.143c.237-3.674.754-7.338.335-11.035-.072-.631-.1-1.174-.834-1.39-3.326-.98-4.627-3.367-4.6-6.667a4.123,4.123,0,0,0-.127-.613c-.685,1.037-1.23,1.952-1.862,2.8a12.859,12.859,0,0,1-9.41,5.428,5.173,5.173,0,0,1-5.211-2.518c-.507-.8-.591-1.276.61-1.432A6.129,6.129,0,0,0,1618.57,290a5.387,5.387,0,0,0,.933-5.563c-.7.607-1.3,1.188-1.96,1.688a10.138,10.138,0,0,1-9.724,1.744c-.959-.313-1.312-.145-1.588.793a15.611,15.611,0,0,1-2.454,5.085c-2.287,3.025-5.014,3.836-8.548,2.513a17.149,17.149,0,0,1-2.156-1.024c-1.785-.971-1.853-.96-2.2,1.141-.736,4.4-.073,8.736.693,13.064a17.4,17.4,0,0,1,.47,4.44c-.988.068-1.028-.8-1.251-1.375-1.6-4.106-2.729-8.359-3.935-12.589a12.32,12.32,0,0,1-.431-1.579c1.646,7.081,4.385,13.816,6.537,20.737a8.293,8.293,0,0,1,.517,2.956,4.238,4.238,0,0,1-1.891,3.149,1.249,1.249,0,0,1-1.5.15,3.446,3.446,0,0,1-.831-1.715c-2.637-8.327-5.041-16.722-7.327-25.151a4.631,4.631,0,0,0-1.436-2.853c.477-2.375-.425-4.185-2.159-5.787-1.048-.968-.916-2.33.14-3.933a3.465,3.465,0,0,1,2.445-1.75,5.507,5.507,0,0,1,1.842.93c1.285.708,1.474.669,2.071-.741a21.777,21.777,0,0,1,7.162-9.135,31.265,31.265,0,0,1,15.556-6.786,36.289,36.289,0,0,1,18.816,1.891,29.592,29.592,0,0,1,7.98,4.906,40.29,40.29,0,0,1,5.511,6.8c.5.732.857,1.373,1.718.352a1.081,1.081,0,0,1,1.6-.142,3.007,3.007,0,0,1,.6,2.093c.032.941-.025,1.885.033,2.825a5.575,5.575,0,0,0,2.768,4.95c.557.313,1.219.676.943,1.474s-1.035.828-1.744.837a3.26,3.26,0,0,1-1.705-.455c-.934-.548-1.245-.072-1.348.786q-2.39,12.747-4.478,25.542c-.114.692-.035,1.393-.139,2.081-.131.87-.08,1.808-.825,2.476-1.5-.645-2.3-1.963-3.14-3.24" transform="translate(-1497.027 -254.261)" fill="#201f51"/>
        <path id="Trazado_1043645" data-name="Trazado 1043645" d="M2773.744,793.154c.945,0,1.629.687,2.48.936a1.338,1.338,0,0,1,.618,1.6q-1.917,10.1-3.745,20.212a40.2,40.2,0,0,0-.6,4.124,2.316,2.316,0,0,1-1.982,2.373,12.02,12.02,0,0,0-1.526.554,3.177,3.177,0,0,1-.452-2.837c1.283-8.534,2.782-17.03,4.593-25.47a3.08,3.08,0,0,1,.61-1.494" transform="translate(-2627.026 -752.645)" fill="#3659ac"/>
        <path id="Trazado_1043646" data-name="Trazado 1043646" d="M4194.458,2742.008c1.332-1.449.313-2.723.337-3.925.018-.911-.652-2.145.128-2.657.86-.564,2.069-.076,3.075.416,3.47,1.7,3.583,2.263.909,4.938a10.086,10.086,0,0,1-3.962,2.752,10.551,10.551,0,0,0-2.676,1.849,1.674,1.674,0,0,1-2.184.02c-1.391-.949-2.431-2.177-2.277-3.894a6.206,6.206,0,0,1,3.341-5.148,1.03,1.03,0,0,1,.139-.055c1.968-.71,2.514-1.453,2.476,1.6a23.824,23.824,0,0,0,.7,4.1" transform="translate(-3973.909 -2595.48)" fill="#e44b36"/>
        <path id="Trazado_1043647" data-name="Trazado 1043647" d="M1993,1538.785c1.225,1.229,2.376,2.545,3.687,3.674a17.483,17.483,0,0,0,23.735-.659c1.633-1.518,3.114-3.2,4.666-4.8a.259.259,0,0,0,0,.247q-.066.316-.132.633c-1.644,6.519-9,12.43-15.7,12.536-1.36.022-2.79.536-4.094-.312-4.377-1.093-7.528-3.877-10.156-7.379-.565-.753-1.087-1.539-1.639-2.3a1.542,1.542,0,0,1-.371-1.635" transform="translate(-1891.098 -1458.497)" fill="#1a1749"/>
        <path id="Trazado_1043648" data-name="Trazado 1043648" d="M2752.358,787.36a3.314,3.314,0,0,1-.091,1.9c-1.69,8.123-3.215,16.276-4.407,24.488-.164,1.127-.173,2.276-.253,3.416-.541.319-1.069.723-1.727.262.539-8.022,2.4-15.839,3.682-23.746.3-1.868.64-3.729.975-5.592.067-.373-.01-.825.448-1.035l1.373.312" transform="translate(-2605.639 -746.851)" fill="#f9d444"/>
        <path id="Trazado_1043649" data-name="Trazado 1043649" d="M2926,885.7q.053.172.105.344c-.074,1.167,1.16,1.977.872,3.2-.313,2.423-1.232,4.695-1.766,7.065-.6,2.668-1.324,5.31-1.781,8.009a2.66,2.66,0,0,1-.631,1.481,4.194,4.194,0,0,1-1.441.92c-.726-.515-.615-1.3-.645-2.032-.169-4.052.7-7.984,1.421-11.93a33.542,33.542,0,0,1,1.366-5.617c.275-.746.515-1.7,1.7-1.468a.684.684,0,0,0,.8.027" transform="translate(-2771.528 -840.409)" fill="#395cad"/>
        <path id="Trazado_1043650" data-name="Trazado 1043650" d="M2642.625,1659.429c-2.757,2.348-5.372,4.854-8.342,6.96-4.3,3.053-8.793,5.809-13.291,8.555-.152.093-.33.255-.593.006a8.92,8.92,0,0,1,2.464-1.79,86.868,86.868,0,0,0,14.3-11.422c3.145-3.167,4.635-6.631,3.16-11.041a4.078,4.078,0,0,1-.095-.888,8.76,8.76,0,0,1,2.533,7.568,4.807,4.807,0,0,0-.134,2.052" transform="translate(-2486.567 -1565.549)" fill="#eea12e"/>
        <path id="Trazado_1043651" data-name="Trazado 1043651" d="M3167.393,1479.205c-2.537-.006-3.132-.379-3.534-2.024-.3-1.23.841-3.522,1.978-4.186.5-.293.718.167,1.083.206a4.12,4.12,0,0,1,3.046,2.147c1.257,1.992.725,3.214-1.548,3.716a9.356,9.356,0,0,1-1.025.141" transform="translate(-3002.224 -1397.673)" fill="#e44b36"/>
        <path id="Trazado_1043652" data-name="Trazado 1043652" d="M2888.282,834.9c-.873.333-1.011,1.174-1.248,1.9a52.448,52.448,0,0,0-2.6,19.143l-2.654,1.861c.767-3.956,1.5-7.588,2.169-11.234.854-4.688,1.722-9.372,2.791-14.017l.284-.427a3.193,3.193,0,0,0,1.255,2.77" transform="translate(-2734.602 -789.628)" fill="#222b70"/>
        <path id="Trazado_1043653" data-name="Trazado 1043653" d="M3808.879,2406.169a1.592,1.592,0,0,1-1.824-.963,3.066,3.066,0,0,1,.444-3.215c1.4-1.734,4.852-1.349,5.922.594a1.05,1.05,0,0,1-.163,1.36,6.538,6.538,0,0,1-4.38,2.224" transform="translate(-3612.368 -2278.265)" fill="#e44b36"/>
        <path id="Trazado_1043654" data-name="Trazado 1043654" d="M2961.334,972.852c-.2-2.023.54-3.9.961-5.815a85.982,85.982,0,0,1,2.4-9.174,3.81,3.81,0,0,1,.812-1.566c.535,1.271.132,2.557.022,3.826a37.793,37.793,0,0,1-2.606,11.125c-.316.772-.7,1.429-1.594,1.6" transform="translate(-2810.058 -907.456)" fill="#f1d043"/>
        <path id="Trazado_1043655" data-name="Trazado 1043655" d="M3010.485,1319.493c1.328-1.329,1.163-2.972,1.1-4.588-.029-.714.492-.9,1-1.112,1.879-.786,3.768-1.548,5.629-2.375.881-.391,1.215-.168,1.114.763-.136,1.266-.287,2.53-.441,3.881-.572-.2-.593-.606-.686-.958-.505-1.923-.5-1.924-2.293-1.273-.467.17-.921.379-1.4.518-1.249.365-1.958,1.05-1.731,2.474.258,1.619-1.182,1.988-2.3,2.671" transform="translate(-2856.73 -1244.265)" fill="#cff2fa"/>
        <path id="Trazado_1043656" data-name="Trazado 1043656" d="M4201.415,2251.3c-1.13.052-1.571-.587-1.518-1.293a1.776,1.776,0,0,1,1.866-1.6c.865-.006,1.862.645,1.782,1.48-.111,1.167-1.447,1.107-2.13,1.409" transform="translate(-3985.392 -2133.58)" fill="#e44b36"/>
        <path id="Trazado_1043657" data-name="Trazado 1043657" d="M1699.607,3638.095c-4.6-3.558-9.158-7.164-14.094-10.254-1.641-1.264-1.609-1.662.352-2.445a32.428,32.428,0,0,0,5.733-2.864c2.6-1.689,5.634-1.418,8.523-1.768a1.889,1.889,0,0,1,1.526.825,5.544,5.544,0,0,0,2.826,2.485,70.2,70.2,0,0,0,8.311,2.24,31.194,31.194,0,0,0,14.656-1.472c1.051-.349,2.128-.421,3.167-.722.594-.088,1.282-.244,1.612.389.315.606-.142,1.154-.52,1.6a26.514,26.514,0,0,1-7.1,6.106c-4.728,2.7-9.626,5.019-15.179,5.485a6.426,6.426,0,0,1-1.783,0c-2.1-.411-4.248-.522-6.352-.879-1.2-.2-1.728.037-1.68,1.271" transform="translate(-1598.31 -3435.833)" fill="#f3a630"/>
        <path id="Trazado_1043658" data-name="Trazado 1043658" d="M1966.211,3644.622a.788.788,0,0,1-.038-.144c-.05-.644-1.28-.913-.757-1.558.469-.578,1.4-.265,2.129-.163a55.711,55.711,0,0,0,7.631,1,22.058,22.058,0,0,0,8.371-1.863,39.249,39.249,0,0,0,10.5-5.827,23.074,23.074,0,0,0,4.593-4.8c-.464-.438-.921-.2-1.339-.238-1.35.149-2.7.27-4.04.524a2.9,2.9,0,0,1-2.393-.376c-.413-.773.282-.8.687-.948a4.569,4.569,0,0,1,1.619-.136c2.673-.005,5.347-.056,8.019.014a7.186,7.186,0,0,0,5.769-2.179,2.078,2.078,0,0,1,1.572-.253,19.788,19.788,0,0,1,5.666,1.751,1.6,1.6,0,0,1,1.114,1.285,68.067,68.067,0,0,0-13.552,6.178c-.511.3-1,.64-1.5.961a102.1,102.1,0,0,0-11.134,7.253c-2.065,1.474-4.017,3.108-6.205,4.409a25.787,25.787,0,0,1-10.647-.3q-2.455-1.878-4.911-3.755c-.379-.289-.772-.56-1.158-.839" transform="translate(-1864.914 -3442.359)" fill="#ed992f"/>
        <path id="Trazado_1043659" data-name="Trazado 1043659" d="M1382.194,2648.952h8.549c-4.292-5.313-4.93-11.489-5.279-17.7a69.6,69.6,0,0,0-3.285-18.546,9.632,9.632,0,0,1-.47-2.3c1.265,3.6,3.3,6.835,4.589,10.416a30.926,30.926,0,0,0,11.889,15.8,2.966,2.966,0,0,1,1.063,1.018.661.661,0,0,1,.024.82c-.739,1.092-1.477,2.184-2.174,3.3a.9.9,0,0,1-.873.436c-.888-.464-1.275-1.371-1.827-2.12a61,61,0,0,1-4.658-7.111,4.983,4.983,0,0,0-1.254-1.461,22.917,22.917,0,0,0,2.949,9.388c.917,1.594,2.024,3.071,2.863,4.711-.138,1.753-1.538,2.676-2.6,3.783-.74.775-1.594,1.46-2.373,2.213a1.871,1.871,0,0,1-1.207.533,1.023,1.023,0,0,1-.727-.476c-.255-.4.017-1.111-.578-1.266-.552-.143-.858.409-1.182.755-2.171,2.322-3.909,4.842-3.918,8.216,0,.8-.029,1.733-1.057,2.081l-1.252-.433c.642-1.464.229-3.077.642-4.574-.44-1.573.489-2.773,1.131-4.037a14.393,14.393,0,0,1,1.972-2.379c-.131-.564-1.192-.221-.959-1.069" transform="translate(-1308.958 -2477.086)" fill="#f3a42f"/>
        <path id="Trazado_1043660" data-name="Trazado 1043660" d="M1528.177,3413.062l.9-.573a1.289,1.289,0,0,1,.342,1.233,18.2,18.2,0,0,0,1.675,8.405c1.142,2.82,2.636,3.485,5.551,2.586a26.487,26.487,0,0,0,4.422-2.148,4.441,4.441,0,0,1,4.228-.42c1.356.6,2.928-.143,4.412-.181.493-.012.984-.143,1.484-.122,1.1.046,1.7.5,1.417,1.7a1.023,1.023,0,0,1-.464.834c-1.209-1.633-2.773-.419-4.142-.434a12.193,12.193,0,0,0-7.307,2.555,18.931,18.931,0,0,1-3.806,1.676c-1.731.721-1.734.714-.673,2.033l-6.545-3.711c-2.614-3.725-2.869-7.951-2.572-12.281.04-.587.247-1.214,1.079-1.157" transform="translate(-1449.012 -3238.203)" fill="#f69b6c"/>
        <path id="Trazado_1043661" data-name="Trazado 1043661" d="M1403.922,3388.509c.94-1.419.428-3.1.852-4.632.79-2.851,2.7-4.909,4.622-6.983a.852.852,0,0,1,1.22-.062,1.386,1.386,0,0,1,.172,1.893,4.4,4.4,0,0,1-.559,1.523,12.124,12.124,0,0,0-.208,8.583c.239.719.691,1.473.178,2.272l-6.275-2.593" transform="translate(-1332.219 -3204.15)" fill="#fdc33d"/>
        <path id="Trazado_1043662" data-name="Trazado 1043662" d="M1499.554,3430.495c-.927-2.777-1.928-5.529-1.233-8.557a7.184,7.184,0,0,1,1.823-3.821l.6.286c-.637.352-.576.965-.6,1.56a21.318,21.318,0,0,0,2.162,11.322c.073.134-.041.369-.068.557l-2.682-1.346" transform="translate(-1421.577 -3243.543)" fill="#ea744b"/>
        <path id="Trazado_1043663" data-name="Trazado 1043663" d="M2102.214,4045.2c.963-.637,1.912.056,2.871.038,2.016-.039,4.033-.009,6.05-.01a3.3,3.3,0,0,1,1.726.27,62.58,62.58,0,0,1-5.05,3.97,59.211,59.211,0,0,1-5.6-4.268" transform="translate(-1994.848 -3838.342)" fill="#e17f25"/>
        <path id="Trazado_1043664" data-name="Trazado 1043664" d="M2511.987,3088.472a18.76,18.76,0,0,0-8.109-2.685,1.718,1.718,0,0,1-1.713.063,48.369,48.369,0,0,1-8.26-3.451,4.8,4.8,0,0,1-2.514-2.638c-.27-.833-.433-1.68.578-2.194a38.33,38.33,0,0,0,7.149,1.913,50.881,50.881,0,0,0,10.982.259,3.632,3.632,0,0,0,2.393-.993.464.464,0,0,0-.584-.165c-2.346,1.771-5.091,1.375-7.717,1.31a38.935,38.935,0,0,1-8.7-1.119c-1.252-.319-2.324-1.137-3.648-1.218a3.437,3.437,0,0,1-2.8-2.178,2.409,2.409,0,0,1,.17-2.8c.725-.88,1.66-.725,2.6-.415a8.039,8.039,0,0,0,4.3.994,43.972,43.972,0,0,0,13.4-1.618,7.882,7.882,0,0,0,3.5-1.864c-1.889.649-3.493,1.291-5.136,1.813a29.522,29.522,0,0,1-14.235,1.331,9.2,9.2,0,0,1-1.947-.691,2.07,2.07,0,0,1-1.657-2.458,3.035,3.035,0,0,1,2.657-2.643c1.728-.176,3.468-.279,5.2-.379a40.285,40.285,0,0,0,6.462-1.069,1.8,1.8,0,0,0,1.63-2.074c-.057-1.79-.031-3.583,0-5.374.01-.688-.044-1.414.594-1.916a3.3,3.3,0,0,0,2.137,2.218c1.562.683,2.653,2.242,4.481,2.457a2.567,2.567,0,0,1,2,.8,21.271,21.271,0,0,1,5.078,5.565,16.1,16.1,0,0,0,5.536,5.226c2.715,2.967,3.283,6.5,2.589,10.3-.23,1.259-.9,2.482.29,3.6-5.706-.389-11.225.72-16.709,2.1" transform="translate(-2361.582 -2900.119)" fill="#fdbe87"/>
        <path id="Trazado_1043665" data-name="Trazado 1043665" d="M2980.96,2800.272c-3.256-1.155-4.774-4.072-6.67-6.6a20.849,20.849,0,0,0-5.559-5.145c6.565-4.711,10.066-11.243,11.344-19.094.965-.605,1.489.047,1.928.736a6.732,6.732,0,0,1,.745,2.558c.8,4.586.588,9.215.606,13.834,0,.8-.049,1.595.032,2.385a2.411,2.411,0,0,0,1.22,2.225,3.38,3.38,0,0,1,.427,2.817c-.182,1.362-.2,2.738-.437,4.094a1.675,1.675,0,0,0,.419,1.765,10.227,10.227,0,0,0,.841.874c3.292,3.606,3.26,8.022,3,12.477a1.494,1.494,0,0,1-1.075,1.468,1.984,1.984,0,0,1-1.144-.305c-.42-.462-.305-1.025-.293-1.567a34.889,34.889,0,0,0-.029-4.93c-.418-3.456-1.777-6.329-5.358-7.592" transform="translate(-2817.109 -2627.764)" fill="#ec962f"/>
        <path id="Trazado_1043666" data-name="Trazado 1043666" d="M3285.268,3369.2l-.581-.467c1.092-1.036,2.18-.564,3.267.01l1.786.746c2.5,1.97,3.275,4.76,3.678,7.727a1.49,1.49,0,0,1-.346,1.252c.14,2.2-.271,4.373-.308,6.564l-2.707-1.247c-.229-3.627-.544-7.239-1.969-10.643a8.3,8.3,0,0,0-2.82-3.941" transform="translate(-3116.928 -3196.105)" fill="#fde366"/>
        <path id="Trazado_1043667" data-name="Trazado 1043667" d="M3208.176,3376.751c2.218-.336,3.363,1.1,4.337,2.707,2.171,3.579,1.862,7.473,1.343,11.382a7.748,7.748,0,0,1-2.416-.343.959.959,0,0,0-.809-.3c-.826-.015-1.021-.334-.707-1.134a11.8,11.8,0,0,0-1.748-12.314" transform="translate(-3044.325 -3204.244)" fill="#fec33f"/>
        <path id="Trazado_1043668" data-name="Trazado 1043668" d="M3296.056,3389.241c2.323,1.026,3.064,3.249,3.893,5.332,1.032,2.594,1.016,5.415,1.473,8.135a1.146,1.146,0,0,1-.576,1.118l-2.453-.781a6.84,6.84,0,0,0,.642-4.177c-.2-3.447-.31-6.937-2.978-9.626" transform="translate(-3127.716 -3216.142)" fill="#f8be3c"/>
        <path id="Trazado_1043669" data-name="Trazado 1043669" d="M130.771,874.686c1.712-.444,2.2-2.064,3.134-3.257.325,1.3.659,2.594.972,3.9a18.983,18.983,0,0,0,3.061,6.575.436.436,0,0,1-.073.581c-4.718-.027-9.448-.131-13.968,1.568a12.91,12.91,0,0,0-6.888,5.408,6.915,6.915,0,0,0-.625,5.875c.117.349-.054.549-.354.682a4.974,4.974,0,0,0-3.8,7.18c.75,1.71.751,1.714-1.031,2.359a52.073,52.073,0,0,0-15.515,9.24A2.265,2.265,0,0,1,93.9,916.3a23.936,23.936,0,0,0-4.582,5.453c-5.772,8.076-10.676,16.69-15.609,25.287-3.119,5.435-6.3,10.832-9.457,16.246-1.888-.6-3.322-1.942-4.852-3.087a73.99,73.99,0,0,1-9.482-8.166c-3.877-4.088-7.5-8.377-9.7-13.657a6.5,6.5,0,0,1-.554-3.612,26,26,0,0,0-.168-4.749,39.954,39.954,0,0,1,2.485-15.5A65.347,65.347,0,0,1,71.96,881.561a112.6,112.6,0,0,1,18.872-7.435,102.805,102.805,0,0,1,14.733-3.729,84.061,84.061,0,0,1,11.066-1.388c.587.745.869,1.808,2.032,1.958a3.555,3.555,0,0,0,1.511,1.4c.655-.231,1.227.194,1.989.363-2.5-6.226-3.235-12.794-5.636-18.881a9.273,9.273,0,0,1-.757-4.32c-.04-.488-.444-.911-.261-1.44a1.444,1.444,0,0,1,1.888-1.108c.983.649,1.08,1.748,1.331,2.74,1.655,6.562,3.392,13.1,5.288,19.6.042.143.071.29.112.433,1.106,3.835,1.106,3.835,5.056,4.69a4.349,4.349,0,0,1,1.586.243" transform="translate(-37.462 -803.656)" fill="#f3604c"/>
        <path id="Trazado_1043670" data-name="Trazado 1043670" d="M902.125,2788.643c.46.51.211,1.148.309,1.723A2.268,2.268,0,0,0,901.3,2792c-1.11,4.007-2.716,7.866-3.554,11.956a2.808,2.808,0,0,1-.573,1.2,3.953,3.953,0,0,1-3.093.418,8.821,8.821,0,0,1-3.073-1.763c-3.363-2.564-6.389-5.524-9.665-8.19a15.656,15.656,0,0,1-2.575-3.077l-2.707-2.986c.4-1.07.813-.212,1.1.046,1.774,1.586,3.333,3.435,5.359,4.71,2.584,1.626,4.676,3.849,7.122,5.634a2.754,2.754,0,0,0,4.231-1.437,53.131,53.131,0,0,0,1.173-6.265c-.115.865-.971,1.326-2.132,1.357a6.44,6.44,0,0,1-4.117-1.526c-3.2-2.442-5.562-5.636-7.9-8.848a6.184,6.184,0,0,0-.93-1.156,23.984,23.984,0,0,1-2.791-4.837c3.1,3.049,5.546,6.723,9.08,9.331,2.111.268,3.2-1.306,4.425-2.546.515-.522.035-1.234-.243-1.807-.936-1.926-1.754-3.9-2.651-5.848-.268-.581-.606-1.249-.017-1.8.514-.479,1.138-.162,1.693.034,1.362.481,2.668,1.1,4,1.654,1.406.579,2.694.645,3.844-.543a1.267,1.267,0,0,1,1.349-.431c.751.432.811,1.2.932,1.934.588,3.575,1.494,7.086,2.142,10.649a1.105,1.105,0,0,0,.394.78" transform="translate(-831.317 -2632.623)" fill="#e9902b"/>
        <path id="Trazado_1043671" data-name="Trazado 1043671" d="M553.2,3131.2c3.034,2.683,6.045,5.392,9.111,8.038a36.565,36.565,0,0,0,5.863,4.486,2.837,2.837,0,0,1-3.587.056,72.67,72.67,0,0,0-24.328,3.525c-1.872.631-3.841.978-5.768,1.443-.486.117-1.037.24-1.38-.234-.369-.51.086-.952.316-1.356a17.755,17.755,0,0,1,7.821-7.074,64.2,64.2,0,0,1,12.348-4.34c1.071-.288,1.233-.77.914-1.719-.334-.995-1.151-1.757-1.309-2.825" transform="translate(-505.754 -2971.279)" fill="#f3a52f"/>
        <path id="Trazado_1043672" data-name="Trazado 1043672" d="M1012.453,2206.59c-.1.02-.242.005-.286.065-1.945,2.648-4.211,1.607-6.487.585-.953-.428-1.914-.842-2.89-1.214-.29-.11-.672-.416-.956-.049-.253.327.036.662.178.967,1,2.161,1.968,4.342,3.045,6.466a1.912,1.912,0,0,1-.477,2.729,24.966,24.966,0,0,0-2.451,1.907,1.272,1.272,0,0,1-1.945-.375c.445-.478.225-1,.152-1.545-.591-4.43-2.41-8.474-3.917-12.619-.772-2.124-.048-3.091,2.13-3.537,2.992-.613,5.68.551,8.43,1.246,1.836.464,2.073.4,2.195-1.582.282-4.6-.9-8.96-2.057-13.329-.216-.813-.58-1.592-.752-2.413a9.667,9.667,0,0,0-3.447-5.242,2.844,2.844,0,0,1-1.234-2.278,3.635,3.635,0,0,1,1.78-1.508c.453-.1.886-.131,1.193.318.518.083.713.5.909.9a66.64,66.64,0,0,1,5.309,14.074,4.806,4.806,0,0,1,.158,1.331,10.485,10.485,0,0,0,.5,3.951c.7,3.191.692,6.472,1.347,9.663a1.377,1.377,0,0,1-.435,1.485" transform="translate(-945.248 -2063.729)" fill="#f3a62f"/>
        <path id="Trazado_1043673" data-name="Trazado 1043673" d="M610.361,3355.333l3.587-.055a9.877,9.877,0,0,0,3.344-.218c.462-.561,1.085-.345,1.67-.364,1.821-.055,3.695.374,5.426-.557l.373.56c.587.637,1.453.029,2.284.605a12.138,12.138,0,0,0-4.427,6.88c-2.224-1.392-.843-3.122-.377-4.94-2.169.6-4.21,1.251-6.293,1.719-9.049,2.031-18.113,4-27.261,5.525a15.558,15.558,0,0,1-6.377-.186c-.426-.109-1-.106-1.089-.615-.094-.565.451-.889.873-1.085,1.442-.667,2.9-1.317,4.386-1.869a85.329,85.329,0,0,1,17.331-4.232,55.219,55.219,0,0,0,6.55-1.17" transform="translate(-551.525 -3182.834)" fill="#fadf61"/>
        <path id="Trazado_1043674" data-name="Trazado 1043674" d="M721.751,2297.072c.091,1.852-.964,3.248-2.02,4.542-5.06,6.2-9.723,12.705-14.595,19.05a39.939,39.939,0,0,1-3.428,3.542c-.168.17-.366.407-.638.269-.338-.171-.282-.522-.173-.785a14.062,14.062,0,0,1,.841-1.749c3.249-5.53,6.446-11.091,9.8-16.559a47.543,47.543,0,0,1,6.72-9.1,4.093,4.093,0,0,1,.65-.615c.655-.41,1.306-1.156,2.128-.739.8.409.732,1.338.719,2.141" transform="translate(-665.021 -2177.605)" fill="#fce265"/>
        <path id="Trazado_1043675" data-name="Trazado 1043675" d="M838.188,2926.166c1.639.67,2.208,2.343,3.234,3.564a38.485,38.485,0,0,0,6.164,6.249,5.7,5.7,0,0,0,3.452,1.249c1.514.005,2-.544,1.877-2.11a1.5,1.5,0,0,1,.019-.44c.018-.08.114-.143.263-.316.761,1.729.349,3.425.138,5.086-.137,1.079-.511,2.125-.719,3.2-.243,1.249-.713,2.232-2.216,2.056-.912-.106-.537.729-.829,1.092-2.474-1.408-4.386-3.462-6.6-5.124a61.367,61.367,0,0,1-7.606-6.7c-.272-.285-.546-.828-1.086-.321-.615-.579-1.239-1.147-1.84-1.741-.231-.229-.616-.495-.273-.865s.7-.179,1.024.137c1.558,1.533,3.134,3.043,4.758,4.511a22.372,22.372,0,0,0,6.966,4.483,7.582,7.582,0,0,0,3.376.28c.35-.024.877-.049.995-.5.111-.423-.27-.717-.544-1-2.145-2.212-4.453-4.268-6.38-6.687-1.54-1.934-3.249-3.754-4.175-6.107" transform="translate(-789.537 -2776.718)" fill="#f3a52f"/>
        <path id="Trazado_1043676" data-name="Trazado 1043676" d="M3392.951,2446.327c.528-1.212.174-2.545.52-3.793.129-.466-.3-.685-.759-.694-4.393-.085-6.69-3.079-8.641-6.395-2.744-4.666-2.254-9.636-1.046-14.618,1.415-5.833,4.592-10.733,8.169-15.427.673-.882,1.11-.927,1.643.079,3.583,6.771,7.186,13.58,8.574,21.183,1.311,7.187,1.187,14.385-2.6,20.971-1.838,3.194-4.316,5.841-8.142,6.725-.357.083-.844.372-1.114-.03-.349-.518.222-.786.5-1.092a19.252,19.252,0,0,0,2.937-4.65,1.635,1.635,0,0,0-.1-1.7.37.37,0,0,1,.063-.564" transform="translate(-3209.326 -2281.915)" fill="#fec53d"/>
        <path id="Trazado_1043677" data-name="Trazado 1043677" d="M3386.97,3399.93a17.6,17.6,0,0,0-3.332-8.979c.707.061,1.411.606,2.12.009a.575.575,0,0,1,.863-.049,84.068,84.068,0,0,1,15.854,1.245,1.516,1.516,0,0,1,1.14.219,27.1,27.1,0,0,0,4.933,2.062,19.3,19.3,0,0,1,6.063,3.689c.441.376.969.744.776,1.471a20.308,20.308,0,0,1,2.692,3.154c2.625,4.73,2.41,9.5-.2,14.194a12.68,12.68,0,0,1-2.371,3.038c-1.7,1.618-2.765,1.828-4.962.864a20.96,20.96,0,0,1-5.68-3.787q-7.533-6.874-14.724-14.108c-.7-.7-1.3-1.5-1.965-2.232-.33-.361-.648-.775-1.213-.79" transform="translate(-3210.825 -3217.564)" fill="#fec53c"/>
        <path id="Trazado_1043678" data-name="Trazado 1043678" d="M3765.386,3396.508a20.4,20.4,0,0,0-9.1-5.448,10.736,10.736,0,0,1-3.807-1.995c.462-1.157,1.593-1.114,2.513-1.267,4.817-.8,9.323-.2,13.1,3.238a7.9,7.9,0,0,1,2.977,6.694c-.087,1.113-.014,2.238-.014,3.71-2.053-1.885-3.082-4.331-5.665-4.932" transform="translate(-3560.824 -3214.475)" fill="#ea8320"/>
        <path id="Trazado_1043679" data-name="Trazado 1043679" d="M3289.3,2347.217c.63-.327.708-1.077,1.174-1.53.443.426.01.708-.175,1.023a79.865,79.865,0,0,0-8.3,18.248,58.813,58.813,0,0,0-2.629,14.886c-.042,1.577-.285,3.157-.264,4.748-.165.211-.111.467-.15.705-.146.892-.469.511-.792.1-.646-2.03.03-4.043.177-6.043.159-2.171.282-4.353.409-6.521a35.543,35.543,0,0,1,2.244-11.319c1.349-1.626,1.605-3.764,2.588-5.564a35.157,35.157,0,0,1,2.022-3.773c1.218-.937,1.648-2.427,2.53-3.6.323-.429.5-.972.967-1.291l.2-.07" transform="translate(-3110.477 -2225.886)" fill="#df7b1c"/>
        <path id="Trazado_1043680" data-name="Trazado 1043680" d="M3269.3,3148.632c-1.09.277-2.178-.168-3.267-.01-.917-.073-1.089-.555-.972-1.425a49.044,49.044,0,0,0,.648-7.7c-.79-.834-.422-1.716-.115-2.6.328-.479.622-1.06,1.34-.5q1.184,6.12,2.366,12.24" transform="translate(-3098.27 -2975.991)" fill="#e44b36"/>
        <path id="Trazado_1043681" data-name="Trazado 1043681" d="M3408.358,3226.24l-.863.049c-.291-.041-.693.022-.851-.145-.286-.3.118-.53.315-.679a78.612,78.612,0,0,0,8.708-8.1c.15-.154.325-.228.519-.056q-.03.282-.062.564a53.284,53.284,0,0,1-7.766,8.371" transform="translate(-3232.563 -3052.893)" fill="#de7b1c"/>
        <path id="Trazado_1043682" data-name="Trazado 1043682" d="M3279.517,3109.138c-.5-.215-.669.183-.886.488-.4-.513-.59-.987.238-1.27.631-.016.144-.789.617-.913q.016.847.031,1.695" transform="translate(-3110.857 -2948.737)" fill="#ec962f"/>
        <path id="Trazado_1043683" data-name="Trazado 1043683" d="M1510.312,898.224q2.215,7.721,4.427,15.442a61.827,61.827,0,0,0,3.006,8.781,8.69,8.69,0,0,1-3.03-1.385,52.911,52.911,0,0,0-1.669-11.172,43.351,43.351,0,0,0-3.971-10.108,3.341,3.341,0,0,0,1.236-1.559" transform="translate(-1432.003 -852.349)" fill="#242d72"/>
        <path id="Trazado_1043685" data-name="Trazado 1043685" d="M2057.768,2749.02c-.023,2.688-.1,5.377-.044,8.063a1.5,1.5,0,0,1-1.34,1.747,43.742,43.742,0,0,1-11.235,1.4,3.476,3.476,0,0,0-2.541.631c-1.341,1.186-1.192,2.771.408,3.98.12.029.167.073.143.134s-.057.1-.09.1c-1-.047-2.138-.184-2.591.948a2.566,2.566,0,0,0,1.056,3.015c.494.411,1.024.779,1.538,1.167q.309.094.051.287c-.515,1.736-.138,2.727,1.539,3.862a29.479,29.479,0,0,0,5.772,2.67c1.511.6,3.082,1.054,4.626,1.572-.827,2.1-2.657,2.528-4.583,2.6-3.316.123-6.637.115-9.956.175-.639.012-1.277.087-1.915.133-.457.694-1.18.664-1.874.667-4.632.021-9.264.05-13.895-.016-1.425-.021-2.827-.439-4.25-.6a4.282,4.282,0,0,1-2.692-2.445q0-.473.005-.945a2.8,2.8,0,0,1,1.84-.864,24.39,24.39,0,0,0,4.157-1.176,2.148,2.148,0,0,0,1.542-1.982,2.986,2.986,0,0,1,.62-1.657,2.07,2.07,0,0,0,.391-1.826,1.6,1.6,0,0,1,1.061-2.024c1.009-.466,1.608-1.136,1.26-2.352a1.277,1.277,0,0,1,.729-1.485,2.465,2.465,0,0,0,1.419-2.567c-.237-1.313-1.3-1.829-2.463-2.085-2.381-.526-4.819-.715-7.219-1.127-1.151-.2-2.415-.143-3.309-1.131a2.575,2.575,0,0,1-.188-1.312c.019-1.458.439-1.805,1.828-1.434a21.5,21.5,0,0,0,3.6.847,6.706,6.706,0,0,1,1,.062,4.808,4.808,0,0,0,3.32-.107,7.041,7.041,0,0,0,1.964-.673,1.468,1.468,0,0,0,.839-1.46c-.065-.681-.661-.829-1.189-.94-3.109-.647-6.2-1.395-9.3-2.076-2.027-.445-2.093-.524-2.074-2.531.038-3.869-.1-7.74.074-11.609,1.9-2.785,4.518-3.84,7.9-3.921q10.983-.263,21.964-.238a17.428,17.428,0,0,1,2.089.047c1.168.222,1.383.859.7,1.779a17.863,17.863,0,0,1-3.707,4.021c-2.021,1.467-3.353,3.622-5.031,5.435a80.793,80.793,0,0,0-5.156,6.33c-.558.323-1.129.627-1.712.9a5.054,5.054,0,0,0-2.633,5.212,5.28,5.28,0,0,0,5.06,4.257c.2,0,.4,0,.6-.011,2.39-.335,4.184-1.388,4.735-3.935a7.648,7.648,0,0,0,.268-2.607,2.311,2.311,0,0,1,1.078-1.7c4.885-4.128,9.492-8.553,14.038-13.046.539-.533.828-1.369,1.687-1.562q.043,5.7.086,11.405" transform="translate(-1912.764 -2592.93)" fill="#263173"/>
        <path id="Trazado_1043686" data-name="Trazado 1043686" d="M1585.376,2764.509c-.018,4.129-.019,8.259-.071,12.388-.01.761.4.888.976,1.01,3.5.738,7.006,1.481,10.5,2.258.623.138,1.5-.023,1.646.946a2.245,2.245,0,0,1-1,2.464,4.718,4.718,0,0,1-2.537.763,10.423,10.423,0,0,1-3.333,0l-.872-.086c-.048-.2.089-.3.224-.393-2.029,0-3.831-.934-5.751-1.376-1.738-.4-3.538-.711-5.218.315-.329.2-.845.345-.785.794s.575.464.971.513c1.621.459,3.308.662,4.891,1.264a2.513,2.513,0,0,1,.547.441c3.15.492,6.3.979,9.45,1.48a11.021,11.021,0,0,1,1.748.386,2.734,2.734,0,0,1,2.189,2.369,2.857,2.857,0,0,1-1.579,2.975c-.647.343-.89.536-.5,1.355.491,1.024-.313,2.14-1.749,2.682-.718.271-1.57.361-.642,1.368a.867.867,0,0,1,.118.427c.072.449.18,1.039-.176,1.282-1.613,1.1-.383,3.949-3,4.519-2.036.443-4.032,1.093-6.11,1.38.233-.7.156-1.172-.762-1.083-1.333.13-2.678.173-4,.373-1.132.171-2.207.547-3.174-.5-.375-.4-.947-.088-1.4.135-1.779.884-3.546,1.793-5.334,2.657a8.19,8.19,0,0,1-2.444.623c-2.228.318-3.523-.921-4.253-2.75-1.329-3.327-2.582-6.7-1.707-10.407,1.145-1.557,2.884-2.531,4.013-4.113a8.074,8.074,0,0,0,1.064-1.586.967.967,0,0,1,.262-.317,10.808,10.808,0,0,0,2.134-2.831c1.747-2.585,3.49-5.171,5.373-7.66,2.331-2.061,5.121-1.605,7.805-1.267,2.123.267,2.107.425,2.1-1.79-.005-3.828-.02-7.655-.017-11.483,0-.785-.094-1.615.656-2.183a2.263,2.263,0,0,1-.26,2.657" transform="translate(-1482.177 -2620.796)" fill="#fdbe86"/>
        <path id="Trazado_1043687" data-name="Trazado 1043687" d="M1965.884,1532.571l.073-.581c.4.733,1.292,1.125,1.426,2.045,2.624,4.356,5.639,8.31,10.59,10.266.555.219,1.119.417,1.679.625.2.391.331.816.818,1a16.632,16.632,0,0,1,1.559.871c4.289,2.186,7.032,1.709,10.514-1.61a27.944,27.944,0,0,0,4.95-7.216,7.714,7.714,0,0,1,.9-1.539c.431-.482.889-.65,1.344-.008a5.916,5.916,0,0,1,.268,2.637,39.387,39.387,0,0,0,.668,7.964c.066,1.543,1.608,2.123,2.189,3.331a3.054,3.054,0,0,1-.625,3.52,19.089,19.089,0,0,0-1.93,2.6c-1.531,1.247-3.016,2.551-4.639,3.683a26.668,26.668,0,0,1-5.133,1.466,3.067,3.067,0,0,1-2.035-.066,2.3,2.3,0,0,1,.936-3.087c1.5-1.121.751-2.5.855-3.75.051-.611-.754-.529-1.2-.6a25.743,25.743,0,0,1-11.077-4.89c-3.968-2.82-6.8-6.641-9.413-10.657-.582-.754-.789-1.739-1.488-2.423a5.113,5.113,0,0,0-1.234-3.589" transform="translate(-1865.48 -1453.747)" fill="#f39a6d"/>
        <path id="Trazado_1043688" data-name="Trazado 1043688" d="M2381.957,2744.168c1.412-2.773,3.727-4.842,5.639-7.225,1.019-1.27,2.152-2.449,3.16-3.728.49-.622,1.216-.826,1.778-1.281a23.419,23.419,0,0,0,3.465-4.046c.246-.314-.06-.4-.3-.466.112-.728.72-.773,1.239-.8a21.9,21.9,0,0,1,4.447.057,4.078,4.078,0,0,1,3.8,4.019q.019.636.038,1.272a3.623,3.623,0,0,1-1.307,1.872c-1.244,1.065-2.354,2.287-3.512,3.451-3.5,3.522-7.251,6.776-10.994,10.036a1.368,1.368,0,0,0-.594.814c-.654.031-.785-.562-1.006-.944a5.206,5.206,0,0,0-4.542-2.552c-.482-.032-1.008.056-1.309-.476" transform="translate(-2260.303 -2587.282)" fill="#2d408a"/>
        <path id="Trazado_1043689" data-name="Trazado 1043689" d="M2621.689,1619.792c-.849-1.918-.6-3.993-.8-6-.173-1.775-.065-3.577-.082-5.367a.183.183,0,0,1,.053-.292,50.745,50.745,0,0,1,10.254.607,6.414,6.414,0,0,1,3.876,2.366,5.273,5.273,0,0,1-.082,6.389c-.551.763-1.2,1.456-1.8,2.181-.761.636-1.123,1.776-2.333,1.848a27.793,27.793,0,0,1-7.325-.759,2.575,2.575,0,0,1-1.756-.976" transform="translate(-2486.906 -1525.994)" fill="#e6791c"/>
        <path id="Trazado_1043690" data-name="Trazado 1043690" d="M3137.459,2478.86c-.36.371-.26.828-.238,1.27l-.339,2.614c-.365.416-.707.5-1.036-.048a4.62,4.62,0,0,1-.768-2.513c.036-3.471.09-6.944-.012-10.412a38.109,38.109,0,0,0-.9-7.186c-.2-.914-.605-1.708-1.754-1.674.81-4.073-.089-7.972-1.146-11.873-.468-1.726-1.522-3.209-2-4.971a42.022,42.022,0,0,1,3.982,3.694,38.584,38.584,0,0,1,3.54,5.142c.841,1.412,1.788,1.744,3.163.872.174-.111.342-.205.535-.045.32.3,0,.607,0,.91a3.334,3.334,0,0,1-.28,1.445,27.982,27.982,0,0,0-1.829,9.288c-.3,4.5-.611,8.991-.918,13.487" transform="translate(-2969.447 -2319.241)" fill="#f3a52f"/>
        <path id="Trazado_1043691" data-name="Trazado 1043691" d="M2468.757,2033.049c3.139-2,6.17-4.171,9.43-5.99a22.767,22.767,0,0,1,5.112-2.019c-.283,1.892-1.528,3.105-2.615,4.266a49.4,49.4,0,0,1-22.479,14,19.883,19.883,0,0,1-2.623.5,1.5,1.5,0,0,1-1.711-.586c-.689-1.02-.019-1.795.465-2.6,2.9-2.547,6.539-3.732,9.939-5.35,1.172-.558,2.253-1.257,3.39-1.865.353-.189.656-.45,1.091-.353" transform="translate(-2328.265 -1921.615)" fill="#f4a52e"/>
        <path id="Trazado_1043692" data-name="Trazado 1043692" d="M1679.471,1623.67a3.52,3.52,0,0,1,2.067-2.556,13.4,13.4,0,0,1,6.129-1.614c2.528-.093,5.063-.02,7.594-.019a1.506,1.506,0,0,1,.725,1.229,15.412,15.412,0,0,1-.723,8.142,1.494,1.494,0,0,1-.54.691c-1.347.594-2.713.273-4.087.106a25.343,25.343,0,0,1-7.287-1.96,6.336,6.336,0,0,1-3.88-4.02" transform="translate(-1593.695 -1536.742)" fill="#e6791c"/>
        <path id="Trazado_1043693" data-name="Trazado 1043693" d="M2060.574,2708.028c-1.084-2.718-2.245-3.537-5.207-3.5-1.427.016-2.878-.254-4.282.232-6.019.026-12.04-.036-18.056.118-2.78.071-5.566.1-8.343.249a7.3,7.3,0,0,0-4.965,2.726c-.206.223-.211.924-.828.481a5.659,5.659,0,0,1,.259-2.658,6.683,6.683,0,0,1,1.929-2.379,3.566,3.566,0,0,1,1.891-.306c10.6-.261,21.209-.4,31.817-.318a15.941,15.941,0,0,1,4.4.367c1.84,1.283,1.426,3.188,1.381,4.992" transform="translate(-1915.693 -2564.615)" fill="#487bc9"/>
        <path id="Trazado_1043694" data-name="Trazado 1043694" d="M1169.251,2189.031c-1.083-4.138-2.138-8.277-4.226-12.073a40.19,40.19,0,0,1-1.727-4.125c.836-1.2,1.015.062,1.229.408a57.278,57.278,0,0,1,4.735,9.806,67.955,67.955,0,0,1,4.578,19.363c.2,2.873.61,5.731.536,8.62-.014.534.147,1.108-.276,1.573-.668-.175-.7-.748-.823-1.281q-1.523-6.441-2.412-13c-.364-2.645-.907-5.256-1.521-7.851a2.361,2.361,0,0,1-.093-1.44" transform="translate(-1103.885 -2061.379)" fill="#fce267"/>
        <path id="Trazado_1043695" data-name="Trazado 1043695" d="M2248.8,1556.986q-.019.147-.052.292c-.785.163-.854.91-1.138,1.45a29.885,29.885,0,0,1-5.684,8.279c-4.33,4.068-8.107,3.253-12.833.033-.408-.278-.663-.635-.076-1.02a14.621,14.621,0,0,0,8.929-.876,19.887,19.887,0,0,0,9.721-9.128c.34-.6.693-1.2,1.039-1.8q.047,1.383.094,2.765" transform="translate(-2114.844 -1474.842)" fill="#ec845e"/>
        <path id="Trazado_1043696" data-name="Trazado 1043696" d="M1294.794,3090.431c.03.833-.425,1.134-1.2,1.1-1.965-.095-3.94.106-5.9-.177a59.207,59.207,0,0,1,2.294-8.613c.591-1.893,1.182-3.786,1.809-5.667.258-.773.641-1.312,1.247-.2l1.745,13.563" transform="translate(-1221.932 -2919.125)" fill="#e44b36"/>
        <path id="Trazado_1043697" data-name="Trazado 1043697" d="M1884.073,1864.372c2.674.106,5.1-1,7.648-1.541-.775,1.291-2.087,1.952-3.259,2.778l-2.051,1.424c-3.976.729-7.79-.063-11.583-1.183a39.921,39.921,0,0,1-13.217-7.331,12.05,12.05,0,0,1-3.252-3.416.641.641,0,0,1-.192,1.033c-.46.255-.913-.11-1.108-.515-.507-1.056-1.677-2.008-.662-3.372a4.031,4.031,0,0,1,2.21-.807,1.239,1.239,0,0,1,1.036.466c.265.441.033,1.036.447,1.433a18.328,18.328,0,0,0,7.6,6.934c4.541,2.234,9.27,3.793,14.428,3.633a2.283,2.283,0,0,1,1.956.465" transform="translate(-1761.205 -1756.883)" fill="#66a3e6"/>
        <path id="Trazado_1043698" data-name="Trazado 1043698" d="M2101.6,2681.241a.545.545,0,0,1-.634.471c-8.384-.509-16.776-.188-25.162-.143-2.514.014-5.049.169-7.575.2a19.6,19.6,0,0,1-4.741-.275c1.207-1.209,2.784-1.213,4.314-1.244,6.166-.125,12.333-.194,18.5-.306,3.928-.072,7.855-.194,11.783-.267a3.866,3.866,0,0,1,3.516,1.561" transform="translate(-1958.097 -2542.82)" fill="#62a7e8"/>
        <path id="Trazado_1043699" data-name="Trazado 1043699" d="M2059.926,2160.568a3.632,3.632,0,0,1-.637,2.65c-.556.688-.038,1.279.261,1.877a6.461,6.461,0,0,1,1.3,2.972c.248.638-.169,1.228-.137,1.851.264,3.89-.276,7.566-2.948,10.633a19.431,19.431,0,0,1-1.936,1.854c-.392.341-.8.778-1.378.146-.693-.754.118-.972.439-1.249a11.444,11.444,0,0,0,4.146-10.643c-.071-.577-.236-1.144-.358-1.715-.478-.33-.437-.913-.668-1.363a17.883,17.883,0,0,0-1.5-3.711c-.41-.344-.847-.662-1.226-1.038-1.369-1.358-1.08-3.235.692-4.619a2.648,2.648,0,0,1,3.952,2.355" transform="translate(-1949.263 -2047.651)" fill="#1a1949"/>
        <path id="Trazado_1043700" data-name="Trazado 1043700" d="M2128.563,2097.972a42.737,42.737,0,0,1-5.872,4.8c-.748.567-1.386.271-2.041-.178-1.556-1.067-3.124-2.118-4.686-3.175a7.952,7.952,0,0,1-3.361-2.043c-.383-.327-.891-.7-.463-1.343.076-.047.241-.132.237-.141-.181-.406-.932-.642-.528-1.2.433-.6,1.023-.148,1.481.064a31.862,31.862,0,0,0,14.133,2.927c.383-.007.809-.1,1.1.286" transform="translate(-2003.879 -1987.429)" fill="#5fa4ec"/>
        <path id="Trazado_1043701" data-name="Trazado 1043701" d="M1674.744,2117.185a2.544,2.544,0,0,1,.237,1.4,30.188,30.188,0,0,1-13.15-3.894,46.7,46.7,0,0,1-11.466-9.161c-.124-.13-.213-.292-.534-.742l9.908,5.72c1.234.03,1.994,1.02,3.012,1.491a115.506,115.506,0,0,0,11.993,5.183" transform="translate(-1565.569 -1997.292)" fill="#f0a12f"/>
        <path id="Trazado_1043702" data-name="Trazado 1043702" d="M1689.893,1709.944l-2.369.853a4.987,4.987,0,0,1-2.9,1.193,7.969,7.969,0,0,1-4.6-3.667c-1.365-1.877-2.408-3.858-2.026-6.3,3.828,5.01,9.421,5.353,15.02,5.678.344,1.245-.6,1.691-1.383,2.241-.578.212-1.157-.122-1.738,0" transform="translate(-1592.218 -1615.099)" fill="#d05c14"/>
        <path id="Trazado_1043703" data-name="Trazado 1043703" d="M2419.495,2195.552a5.382,5.382,0,0,0-.777,2.379c-1.313,5.154-.245,9.649,3.744,13.3-.99,1.191-1.717,1-2.628-.123a14.586,14.586,0,0,1-3.281-10.284c.027-.546.032-1.094.047-1.642.023-1.051-.241-2.138.385-3.114a7.17,7.17,0,0,1,1.171-2.481,2.287,2.287,0,0,0,.434-1.913c-.414-1.766-.062-2.853,1.063-3.292,2.176-.851,3.363.122,3.271,2.679a1.349,1.349,0,0,1-.7,1.376,13.343,13.343,0,0,0-2.725,3.12" transform="translate(-2293.112 -2076.324)" fill="#1e1b4b"/>
        <path id="Trazado_1043704" data-name="Trazado 1043704" d="M1806.751,1874.632a16.122,16.122,0,0,1,3.025-.884c-.261,1.471.84,2.293,1.5,3.332.051-.955-.872-1.59-.77-2.963,2.354,3.67,5.533,5.957,8.786,8.13a31.717,31.717,0,0,0,18.927,5.765,2.318,2.318,0,0,1,1.455.188l-.522.393c-5.707.078-11.272-.593-16.478-3.24.352.9,1.447.8,1.863,1.59-.715.341-1.3-.272-1.939-.112a1.768,1.768,0,0,1-1.753-.576c-4.228-3.464-8.739-6.557-13.01-9.964-.531-.423-1.156-.825-1.086-1.66" transform="translate(-1714.469 -1778.05)" fill="#4886d6"/>
        <path id="Trazado_1043705" data-name="Trazado 1043705" d="M1722.957,1828.68c5.077,4.334,10.536,8.173,15.849,12.2l3.955,3.212a1.594,1.594,0,0,0-1.423.924,3.571,3.571,0,0,0-3.952-2.355,1.843,1.843,0,0,0-.869-1.407c-5.8-3.869-11.014-8.483-16.441-12.829-.983-.787-1.821-1.679-1.6-3.1l4.479,3.357" transform="translate(-1630.676 -1732.098)" fill="#f9dd5a"/>
        <path id="Trazado_1043706" data-name="Trazado 1043706" d="M2174.577,2258.432a.9.9,0,0,1,.2,1.187c-.5,1.114-.972,2.237-1.456,3.357-2.489,1.8-5.414,1.68-8.232,1.633-1.606-.027-3.393.094-4.816-1.061l-.888-3.015c4.227,2.006,8.451,2.834,12.782.217,1.009-.61,2.389-.721,2.411-2.317" transform="translate(-2049.099 -2143.087)" fill="#fce265"/>
        <path id="Trazado_1043707" data-name="Trazado 1043707" d="M1275.484,2499.416c1.378,5.637,2.347,11.357,3.487,17.042.437,2.18.907,4.353,1.362,6.53l.593,4.8c-.273.7-.433.089-.484-.078a34.966,34.966,0,0,1-1-3.56c-.521-2.719-1.319-5.382-1.644-8.144a2.034,2.034,0,0,0-.478-1.378,108.191,108.191,0,0,0-1.861-13.51c-.128-.576-.42-1.136.021-1.7" transform="translate(-1210.118 -2371.763)" fill="#d8741e"/>
        <path id="Trazado_1043708" data-name="Trazado 1043708" d="M1858.833,2219.079c-.231.474-.556.22-.877.125-5.077-1.5-9.625-4.1-14.128-6.8.713-.577,1.256.048,1.735.352,2.61,1.659,5.325,2.913,8.525,2.67.573-.043,1.035.329,1.554.488s1.091.279,1.261-.508c1.457.8,1.645,2.26,1.93,3.672" transform="translate(-1749.658 -2099.186)" fill="#fde061"/>
        <path id="Trazado_1043709" data-name="Trazado 1043709" d="M2176.774,2347.944a7.078,7.078,0,0,1,2.644.287c3.559.646,6.978-.087,10.4-.86l-.734,2.966c-.138-.6-.586-.358-.95-.348a55.247,55.247,0,0,1-9.418-.541,1.726,1.726,0,0,0-1.674.3,3.915,3.915,0,0,1-.273-1.808" transform="translate(-2065.599 -2227.484)" fill="#f3a833"/>
        <path id="Trazado_1043710" data-name="Trazado 1043710" d="M3346.693,2381.982c-.291-.3.052-.607,0-.91a37.761,37.761,0,0,1,2.961-8.063,26.1,26.1,0,0,1,3.694-5.026c.335-.361.7-.846,1.127-.069v-.005c-1.3,1.569-2.072,3.479-3.294,5.1l-4.49,8.975" transform="translate(-3175.655 -2246.583)" fill="#fce164"/>
        <path id="Trazado_1043711" data-name="Trazado 1043711" d="M2491.66,1849.395l3.257-2.776,4-3.32c1.5-1.924,3.855-2.833,5.488-4.6.918-.665,1.748-1.441,2.644-2.135a2.159,2.159,0,0,1,1.461-.608l2.092-1.6a5.3,5.3,0,0,1-1.708,2.214c-3.15,3.211-6.97,5.543-10.606,8.12-1.619,1.148-3.144,2.427-4.72,3.636a3.561,3.561,0,0,1-1.908,1.07" transform="translate(-2364.403 -1740.668)" fill="#f6e083"/>
        <path id="Trazado_1043712" data-name="Trazado 1043712" d="M2474.562,2185.311a4.475,4.475,0,0,1,2.293-3.378,5.34,5.34,0,0,0,1.135-1.119c.51.592,1.086.472,1.753.266a36.341,36.341,0,0,0,7.632-3.351c.4-.236.765-.741,1.3-.212-3.94,2.574-8.345,4.281-12.392,6.654-.591.347-1.146.758-1.717,1.14" transform="translate(-2348.179 -2066.083)" fill="#fbdc5f"/>
        <path id="Trazado_1043713" data-name="Trazado 1043713" d="M1922,1625.836c.571-.646,1.416-1.072,1.62-2.014,1.488-2.557,1.167-5.342,1.013-8.1-.033-.591-.159-1.177-.243-1.765.024-.109.048-.217.072-.325,1.479-.038,1.1,1.474,1.764,2.114a11.8,11.8,0,0,1-3.783,11.273,1.731,1.731,0,0,1-1.295.633c-.4-.437-.186-.789.157-1.123.084-.378.4-.527.694-.692" transform="translate(-1822.825 -1531.216)" fill="#fcd8ac"/>
        <path id="Trazado_1043714" data-name="Trazado 1043714" d="M1531.993,1789.414l.354-.681c.316-.065.592-.692.956-.052a32.311,32.311,0,0,0,4.717,6.2c-1.906-1.625-4.047-2.895-5.987-4.436-.417-.332-.578-.666-.041-1.032" transform="translate(-1453.425 -1697.056)" fill="#ec9d2b"/>
        <path id="Trazado_1043715" data-name="Trazado 1043715" d="M1679.255,3089.275c-.039,1.406-1.3,2.1-1.916,3.164-1.413,2.43-3.07,4.72-4.651,7.051-.206.3-.319.949-.959.515a3.955,3.955,0,0,1,1.916-3.443l2.99-4.514c.948-.854,1.51-2.072,2.62-2.773" transform="translate(-1586.344 -2931.496)" fill="#fcdaae"/>
        <path id="Trazado_1043716" data-name="Trazado 1043716" d="M2107.516,1396.683c3.041,0,6.081,0,9.122.006.383,0,.871-.169,1.121.2.288.422-.193.722-.384,1.033-1.663,2.7-3.678,5.046-6.957,5.7-4.737.94-9.663-.156-12.433-4.386a7.865,7.865,0,0,1-.561-1.05c-.452-.993-.375-1.545.972-1.513,3.039.073,6.081.023,9.121.023Z" transform="translate(-1990.066 -1325.319)" fill="#f48c61"/>
        <path id="Trazado_1043717" data-name="Trazado 1043717" d="M1901.5,898.9a14.8,14.8,0,0,1,5.591,1.167c.711.3,1.428.706,1.176,1.64-.266.987-1.058,1.062-1.926.868a20.041,20.041,0,0,0-5.329-.616,14.121,14.121,0,0,0-5.575,1.545c-.794.388-1.651.708-2.223-.291s.2-1.609.885-2.088a12.636,12.636,0,0,1,7.4-2.225" transform="translate(-1796.328 -852.995)" fill="#1a1850"/>
        <path id="Trazado_1043718" data-name="Trazado 1043718" d="M2421.656,900.2a3.243,3.243,0,0,1-1.563-.46,13.841,13.841,0,0,0-9.048-.928c-.865.18-2.041.743-2.441-.56s.787-1.679,1.712-2.008a12.181,12.181,0,0,1,11.656,1.547,1.492,1.492,0,0,1,.756,1.776c-.164.519-.6.609-1.072.634" transform="translate(-2285.515 -849.686)" fill="#19184e"/>
        <path id="Trazado_1043719" data-name="Trazado 1043719" d="M1739.717,853.087a75.913,75.913,0,0,1-4.351-11.543c-1.013-3.165-1.9-6.371-2.814-9.566-.118-.412-.632-1.072.083-1.254.75-.191.682.622.834,1.12,1.505,4.931,2.647,9.976,4.625,14.76a3.01,3.01,0,0,0,.7,1.288l.92,5.194" transform="translate(-1643.791 -788.27)" fill="#3f5099"/>
        <path id="Trazado_1043720" data-name="Trazado 1043720" d="M2699.583,825.69c.9-2.01,1.036-4.2,1.516-6.314.319-1.4.461-2.846.743-4.259.088-.442.1-1.027.9-1.211-.365,2.14-.674,4.212-1.077,6.265-.872,4.44-1.79,8.87-2.7,13.3a1.369,1.369,0,0,1-.228.381c.121-2.738.464-5.453.845-8.165" transform="translate(-2560.905 -772.339)" fill="#424986"/>
        <path id="Trazado_1043721" data-name="Trazado 1043721" d="M2232.868,1272.632l.9-.782a2.87,2.87,0,0,1-1.979,3.439,5.471,5.471,0,0,1-6.422-2.319c.537-.356.909.264,1.385.233,2.091.365,4.21,1.043,6.116-.572" transform="translate(-2111.709 -1206.893)" fill="#24173e"/>
        <path id="Trazado_1043722" data-name="Trazado 1043722" d="M2408.645,1047.382c-1.489-.768-1.541-1.226-.256-2.112,2.285-1.575,4.643-2.176,7.2-.623.452.274.808.477.159.9-.641.554-1.235-.054-1.814-.144a5.284,5.284,0,0,0-5.293,1.974" transform="translate(-2284.517 -990.435)" fill="#e99570"/>
        <path id="Trazado_1043723" data-name="Trazado 1043723" d="M1986.338,1071.068c-.739.038-1.161.239-.473,1.107-2.829-1.282-5.433-1.381-7.724,1.362.531-3.285,4.988-4.465,8.2-2.469" transform="translate(-1877.111 -1015.439)" fill="#261c3c"/>
        <path id="Trazado_1043724" data-name="Trazado 1043724" d="M2429.067,1066.536c-.288-.82.346-1.162.841-1.528,2.014-1.487,4.125-1.295,6.267-.3.422.354,1.019.553,1.191,1.389a11.673,11.673,0,0,0-3.732-1.063c-1.754-.063-3.042,1.02-4.566,1.5" transform="translate(-2304.938 -1009.589)" fill="#201335"/>
        <path id="Trazado_1043725" data-name="Trazado 1043725" d="M2258.6,1287.161c-1.445,1.806-3.405,1.989-6.116.571,2.047-.106,4.135.237,6.116-.571" transform="translate(-2137.445 -1221.422)" fill="#d5886d"/>
        <path id="Trazado_1043726" data-name="Trazado 1043726" d="M1628.846,833.827a1.523,1.523,0,0,1-1.571.343,3.871,3.871,0,0,1-1.473-2.334c-2.34-7.558-4.313-15.22-6.432-22.84-.267-.961-.62-1.889-.972-2.82a1.675,1.675,0,0,1,.5-2.254l-.008.031c1.225-.4,1.392.47,1.623,1.317,2.054,7.509,4.144,15.008,6.448,22.445q.946,3.054,1.884,6.112" transform="translate(-1535.536 -762.797)" fill="#f6d44b"/>
        <path id="Trazado_1043727" data-name="Trazado 1043727" d="M2072,3692.313l20.017-.048,6.553.095c-4.99,1.414-9.922,3.087-15.247,2.676a24.756,24.756,0,0,1-8.78-2.018c-.83-.39-1.8-.094-2.542-.705" transform="translate(-1966.18 -3503.69)" fill="#fac23a"/>
        <path id="Trazado_1043728" data-name="Trazado 1043728" d="M1554.609,3010.173l-1.916,3.444a1.539,1.539,0,0,0-.243.078,25.393,25.393,0,0,1-6.169-15.458c3.172,3.7,5.637,7.9,8.328,11.937" transform="translate(-1467.308 -2845.107)" fill="#e58223"/>
        <path id="Trazado_1043729" data-name="Trazado 1043729" d="M2550.357,3305.854a2.111,2.111,0,0,1-.053-.237c3.071,1.352,6.228.813,9.375.417a46.467,46.467,0,0,0,11.549-3.351,6.517,6.517,0,0,1,1-.306,1.68,1.68,0,0,1,.531.1,4.465,4.465,0,0,1-2.38,2.351,32.8,32.8,0,0,1-18.567,1.694,2.178,2.178,0,0,1-1.451-.671" transform="translate(-2420.052 -3133.708)" fill="#f39c6b"/>
        <path id="Trazado_1043730" data-name="Trazado 1043730" d="M2551.447,3471.329a.775.775,0,0,1-.051-.287c2.615.548,5.208,1.251,7.849,1.606a29.562,29.562,0,0,0,11.219-.181c.024-.406-.565-.163-.546-.5s.324-.314.555-.317c.927-.01,1.854,0,2.905,0a3.866,3.866,0,0,1-3.412,2.276,47.474,47.474,0,0,1-9.476-.036c-1.426-.13-2.833-.454-4.259-.592-1.806-.174-3.105-1.517-4.784-1.961" transform="translate(-2421.089 -3293.766)" fill="#f6a16f"/>
        <path id="Trazado_1043731" data-name="Trazado 1043731" d="M1564.71,805.222a1.566,1.566,0,0,0-.25,1.536c2.592,6.652,3.854,13.692,5.981,20.479a69.1,69.1,0,0,0,2.644,8.232,10.709,10.709,0,0,0-2.181-.446c-1.751,0-2.292-1.074-2.746-2.523-2.315-7.393-4.2-14.9-6.14-22.394a5.7,5.7,0,0,0-.943-2.47,10.67,10.67,0,0,1,3.634-2.415" transform="translate(-1481.347 -764.097)" fill="#385db2"/>
        <path id="Trazado_1043732" data-name="Trazado 1043732" d="M916.887,1718.19c-.316,5.167-1.316,5.023-5.328,3.885a8.18,8.18,0,0,1-4.064-2.631c-1.655-1.92-.353-6.182,2.108-6.851,3.106-.844,7.289,2.369,7.285,5.6" transform="translate(-860.443 -1624.997)" fill="#e44b36"/>
        <path id="Trazado_1043733" data-name="Trazado 1043733" d="M322.723,1958.23a7.979,7.979,0,0,1,4.415,1.342c1.8,1.153,2.105,2.61.949,4.44a14.12,14.12,0,0,1-1.659,2.1,3.485,3.485,0,0,1-4.8.364c-1.8-1.285-2.677-3.762-1.871-5.332a13.527,13.527,0,0,0,.78-1.439c.422-1.15,1.156-1.7,2.188-1.47" transform="translate(-303.137 -1858.168)" fill="#e44b36"/>
        <path id="Trazado_1043734" data-name="Trazado 1043734" d="M426.9,2404.706a3.213,3.213,0,0,1,2.809,1.886,2.234,2.234,0,0,1-.415,2.741c-.993,1.173-1.977,2.4-3.773,2.262-1.038-.08-2.145-.382-2.5-1.321a3.908,3.908,0,0,1,3.883-5.568" transform="translate(-401.071 -2281.888)" fill="#e44b36"/>
        <path id="Trazado_1043735" data-name="Trazado 1043735" d="M1120.216,1378.818c1.54-1.143,1.551-1.285-.045-2.143-.525-.282-.79-.5-.522-1.132a4.526,4.526,0,0,1,4.822-2.433,2.641,2.641,0,0,1,1.876,3.464,4.943,4.943,0,0,1-3.558,3.419c-1.111.338-1.588-.973-2.573-1.175" transform="translate(-1062.365 -1302.891)" fill="#e44b36"/>
        <path id="Trazado_1043736" data-name="Trazado 1043736" d="M610.673,2048.99c-.2.676-.391,1.444-1.3,1.316a1.44,1.44,0,0,1-1.329-1.521,1.132,1.132,0,0,1,1.314-1.1,1.243,1.243,0,0,1,1.31,1.307" transform="translate(-576.993 -1943.101)" fill="#e44b36"/>
        <path id="Trazado_1043737" data-name="Trazado 1043737" d="M3517.692,3442.791l-8.733.589c.071.665.568.782.9,1.026a47.228,47.228,0,0,1,12,12.1,9.628,9.628,0,0,1,1.556,6.25c-.033.4-.02.847-.476,1-.423.145-.752-.158-1.078-.385a3.839,3.839,0,0,1-1.317-2.6,19.57,19.57,0,0,0-9.78-13.035,68.983,68.983,0,0,1-6.653-4.787c-.3-.23-.724-.482-.607-.946.142-.566.674-.5,1.111-.512a92.544,92.544,0,0,1,10.991.733c.686.06,1.368.159,2.052.24q.015.166.03.331" transform="translate(-3324.554 -3265.705)" fill="#fce46c"/>
        <path id="Trazado_1043738" data-name="Trazado 1043738" d="M3436.8,2380.641c.854-1.857,1.6-3.784,3.294-5.1a16.588,16.588,0,0,1-3.294,5.1" transform="translate(-3261.276 -2254.217)" fill="#fec53d"/>
        <path id="Trazado_1043739" data-name="Trazado 1043739" d="M2308.7,3084.325a5.181,5.181,0,0,1-5.131,4.083c-.789-.464-1.734-.335-2.564-.713a5.1,5.1,0,0,1-2.9-6.64,5.39,5.39,0,0,1,6.569-3.2c3.081.915,4.377,3,4.027,6.474" transform="translate(-2180.403 -2920.446)" fill="#7ebaf0"/>
        <path id="Trazado_1043740" data-name="Trazado 1043740" d="M2300.384,3078.211c-.173-3.635-1.266-5.29-4.056-6.137a4.876,4.876,0,0,0-6.322,3.4c-.761,2.845.7,5.218,3.623,6.011.567.154,1.364-.006,1.624.813a5.765,5.765,0,0,1-6.162-4.52c-.529-2.37,1.094-5.12,3.665-6.2.321-.135.655-.239.983-.357,3.193-.243,5.581.905,6.857,3.972-.027,1.01.315,2.046-.213,3.021" transform="translate(-2172.086 -2914.332)" fill="#6697da"/>
        <path id="Trazado_1043741" data-name="Trazado 1043741" d="M1882.833,3152.085l-.576-.053c-.052-.193.02.035-.082-.122-.437-.672.315-2.063-.777-2.115-1.43-.068-3.074-.284-4.22,1.064l-1.957-.7c2.029-2.8,4.969-2.632,7.782-1.719a30.948,30.948,0,0,0,6.364,1.6c-.427.431-1.061.063-1.415.482a11.351,11.351,0,0,1-3.775-.8c-1.1-.4-1.584-.239-1.406,1.019a13.364,13.364,0,0,1,.061,1.338" transform="translate(-1779.448 -2987.073)" fill="#eb966a"/>
        <path id="Trazado_1043742" data-name="Trazado 1043742" d="M2534.267,2795.413c.759.039,1.113.342,1.1,1.122s-.549.955-1.063.936a1.056,1.056,0,0,1-1.122-1.137c.033-.682.534-.887,1.085-.921" transform="translate(-2403.802 -2652.643)" fill="#abc2e3"/>
        <path id="Trazado_1043743" data-name="Trazado 1043743" d="M2141.583,3202.056l3.334,0a5.474,5.474,0,0,1-3.334,0" transform="translate(-2032.206 -3038.518)" fill="#eb966a"/>
        <path id="Trazado_1043744" data-name="Trazado 1043744" d="M1870.8,3319.511a37.287,37.287,0,0,1,6.525.167c-.91-.778-2.081-.527-3.112-.749a25.746,25.746,0,0,0-3.229-.139c4.675-.883,8.864.923,13.177,2.446a1.562,1.562,0,0,1-1.513.572,99.251,99.251,0,0,1-11.562-2c-.039-.01-.066-.065-.286-.295" transform="translate(-1775.254 -3149.068)" fill="#f29b6b"/>
        <path id="Trazado_1043745" data-name="Trazado 1043745" d="M1910.023,3174.134c-.449-.759-.047-1.115.647-1.235,1.2-.209,2.411-.408,3.626-.521.949-.088,1.111.589,1.1,1.362a2.787,2.787,0,0,1-.3,1.567l-5.079-1.174" transform="translate(-1812.292 -3010.348)" fill="#f5a736"/>
        <path id="Trazado_1043746" data-name="Trazado 1043746" d="M1925.177,1666.939c2.154-2.106,4.091-4.293,4.567-7.481.22-1.475-.026-3,.51-4.425,1.951,2.568,3.649,5.34,5.984,7.6,4.316,4.177,9.281,7.145,15.347,7.924,1.122.144,1.388.442.582,1.325a.614.614,0,0,0,.089,1.016.905.905,0,0,1-.089,1.613c-1.35.824-1.712,2.27-2.446,3.485-9.028.385-16.965-2.079-23.216-8.914a6.549,6.549,0,0,1-1.327-2.142" transform="translate(-1826.852 -1570.505)" fill="#fdbe86"/>
        <path id="Trazado_1043747" data-name="Trazado 1043747" d="M2648.371,1838.042l-3.822,3.065a2.564,2.564,0,0,1-3.113-1.532c-.888-.934-2.116-1.6-2.388-3.021a42.767,42.767,0,0,0,7.609,1.2c.579.023,1.205-.176,1.713.288" transform="translate(-2504.265 -1742.757)" fill="#d45e12"/>
        <path id="Trazado_1043748" data-name="Trazado 1043748" d="M2636.4,1895.706c.774,1.045,2.144.88,3.112,1.531-1.61,1.848-3.767,2.961-5.771,4.28a14.008,14.008,0,0,1,2.05-3.036c.563-.8,1.286-1.58.285-2.553l.324-.221" transform="translate(-2499.233 -1798.887)" fill="#638bbc"/>
        <path id="Trazado_1043749" data-name="Trazado 1043749" d="M1913.9,1851.1c-.033.429-.344.58-.694.691-.164-.34-.526-.335-.809-.465a1.8,1.8,0,0,1,1.5-.226" transform="translate(-1814.726 -1756.476)" fill="#fdbe86"/>
        <path id="Trazado_1043750" data-name="Trazado 1043750" d="M2125.006,1414.55c5.813-.081,11.416-.028,17.087-.368-2.7,5.212-13.715,5.506-17.087.368" transform="translate(-2016.475 -1341.956)" fill="#fcfbf9"/>
        <path id="Trazado_1043751" data-name="Trazado 1043751" d="M2547.65,2808.969a.552.552,0,0,1-.41.582.477.477,0,0,1-.634-.4.4.4,0,0,1,.378-.5.578.578,0,0,1,.666.32" transform="translate(-2416.533 -2665.193)" fill="#3d5181"/>
      </g>
    </g>
    <g id="Grupo_1203650" data-name="Grupo 1203650" transform="translate(974.686 2254.316)">
      <g id="Grupo_1203651" data-name="Grupo 1203651" transform="translate(0 0)">
        <g transform="matrix(1, 0, 0, 1, -164.69, -29.23)" filter="url(#Trazado_1043752)">
          <path id="Trazado_1043752-2" data-name="Trazado 1043752" d="M28.9.059A30.357,30.357,0,0,1,55.7,47.424l7.724,15.2L46.9,55.769l-3.6,1.876a29.79,29.79,0,0,1-9.99,2.6,30.1,30.1,0,0,1-22.384-7.02,31.4,31.4,0,0,1-10.86-21.4,29.837,29.837,0,0,1,7-21.264C12.783,4,20.3.681,28.9.059" transform="translate(164.69 29.23)" fill="#f6f3ef"/>
        </g>
        <path id="Trazado_1043753" data-name="Trazado 1043753" d="M75.309,52.623l.021.27c.234,4.857-2.972,11.053-6.2,14.473a24.533,24.533,0,0,1-16.922,7.752,23.924,23.924,0,0,1-17.444-6.455A24.53,24.53,0,0,1,27,51.912a23.176,23.176,0,0,1,6.521-17.146A24.484,24.484,0,0,1,67.9,34.223c4.244,4.228,7.44,10.323,7.408,16.427a15.543,15.543,0,0,0,0,1.973" transform="translate(-20.726 -21.071)" fill="#fec53d"/>
        <path id="Trazado_1043754" data-name="Trazado 1043754" d="M83.035,104.675c-1.685,0-17.24-.128-17.386-.021a5.482,5.482,0,0,0-.469,1.042c-.673,1.489-1.472,4.022-2.737,5.023a1.677,1.677,0,0,1-1.37-.254,7.61,7.61,0,0,1-1-2.685l-1.349-5.165-1.934,6.708-1.008,4.336a5.413,5.413,0,0,1-.843,2.672,1.25,1.25,0,0,1-1.091-.148c-.991-1.578-1.321-4.682-1.723-6.524l-2.064-9.813a15.533,15.533,0,0,1-.933,3.923,1.507,1.507,0,0,1-.954.879,15.187,15.187,0,0,1-2.579.033H39.926a10.061,10.061,0,0,1-2.268-.046,3.258,3.258,0,0,1-.543-.449,1.481,1.481,0,0,1,.174-1.268,9.938,9.938,0,0,1,3.4-.226l6.828.018,1.56-6.853a1.493,1.493,0,0,1,1.165-.625,3.282,3.282,0,0,1,.562.4,5.329,5.329,0,0,1,.443,1.457l.924,4.193,2.217,9.6,2.18-7.324c.306-1.092.676-3.469,1.409-4.287.409-.455.657-.388,1.237-.442.9.643,1.012,2.052,1.256,3.092l1.456,6.357a46.2,46.2,0,0,1,2.73-5.515,57.683,57.683,0,0,1,6.31-.074l12.067.012a15.543,15.543,0,0,0,0,1.973" transform="translate(-28.452 -73.123)" fill="#263173"/>
      </g>
    </g>
    <g id="Grupo_1203653" data-name="Grupo 1203653" transform="translate(1232.192 2330.852)">
      <g id="Grupo_1203652" data-name="Grupo 1203652" clip-path="url(#clip-path-3)">
        <path id="Trazado_1043755" data-name="Trazado 1043755" d="M219.316,72.759c-.019-1.14-.356-3.581.449-4.406.832-.851,4.4-.5,5.7-.5.782,0,2.686-.235,3.237.326a1.8,1.8,0,0,1,.529.961,22.844,22.844,0,0,1,.032,3.521l.015,8.876c.015.945.318,3.536-.188,4.24a2.957,2.957,0,0,1-1.564.089,8.927,8.927,0,0,0-2.073-.089l-4.528.023a2.605,2.605,0,0,1-1.41-.139l-.162-.594a47.465,47.465,0,0,1-.006-6.266Z" transform="translate(-177.505 -54.882)" fill="#747eca"/>
        <path id="Trazado_1043756" data-name="Trazado 1043756" d="M229.819,140.079c.015.945.318,3.536-.188,4.24a2.957,2.957,0,0,1-1.564.089,8.927,8.927,0,0,0-2.073-.089l-4.528.023a2.605,2.605,0,0,1-1.41-.139l-.162-.594.019-3.476Z" transform="translate(-178.041 -113.418)" fill="#303a72"/>
        <path id="Trazado_1043757" data-name="Trazado 1043757" d="M158.236,437.2l4.263-.065a11.566,11.566,0,0,1,2.139.01l.129.012.049,1.577c.436.344,1.258.205,1.821.2l4.941-.007a17.589,17.589,0,0,1,2.916.093c3.894.68,6.058,3.355,7.143,6.973l-39.866.015A7.191,7.191,0,0,1,144.2,441.3c2.488-2.4,5.141-2.361,8.365-2.365l5.676.048Z" transform="translate(-114.79 -353.896)" fill="#303a72"/>
        <path id="Trazado_1043758" data-name="Trazado 1043758" d="M228.273,437.2l4.263-.065a11.566,11.566,0,0,1,2.139.01v1.673a1.2,1.2,0,0,1-.23.209c-.287.147-5.158.028-5.826,0l-.346-.042Z" transform="translate(-184.826 -353.896)" fill="#1a275f"/>
        <path id="Trazado_1043759" data-name="Trazado 1043759" d="M.085,27.286C.224,25.609.09,23.808.09,22.12l0-10.908c0-2.313-.438-5.562.579-7.653a6.174,6.174,0,0,1,3.7-3.2A7.33,7.33,0,0,1,6.843.074L17.757.067A24.484,24.484,0,0,1,22.77.193,6.032,6.032,0,0,1,27.151,4.5,21,21,0,0,1,27.3,8.829l.025,9.051-.01,6.044-.017,7.049c0,1.475.2,3.244-.348,4.625A6.233,6.233,0,0,1,22,39.329a29.211,29.211,0,0,1-3.163.036l-6.119-.012H7.989A11.376,11.376,0,0,1,5.248,39.2a6.783,6.783,0,0,1-3.384-1.816c-2.438-2.512-1.77-6.854-1.78-10.1" transform="translate(0 0)" fill="#303a72"/>
        <path id="Trazado_1043760" data-name="Trazado 1043760" d="M228.088,162.313l4.528-.023a8.928,8.928,0,0,1,2.073.089l.01,6.813-6.625-.013Z" transform="translate(-184.664 -131.389)" fill="#1a275f"/>
        <path id="Trazado_1043761" data-name="Trazado 1043761" d="M143.5,93.932l14.492,0,.034,6.048H143.493Z" transform="translate(-116.182 -76.052)" fill="#6c58aa"/>
        <path id="Trazado_1043762" data-name="Trazado 1043762" d="M228.073,198.557l6.625.013-.055,45.457-.129-.012a11.565,11.565,0,0,0-2.139-.01l-4.263.065Z" transform="translate(-184.664 -160.766)" fill="#747eca"/>
      </g>
    </g>
    <g id="Grupo_1203655" data-name="Grupo 1203655" transform="translate(898.909 2320.89)">
      <g id="Grupo_1203654" data-name="Grupo 1203654" clip-path="url(#clip-path-4)">
        <path id="Trazado_1043763" data-name="Trazado 1043763" d="M61.72,200.017c.213-.377,17.433-8.922,18.856-9.477a18.311,18.311,0,0,0,2.35,3.4L70.9,199.939c-1.857.939-3.947,2.358-5.9,2.946a2.043,2.043,0,0,1-1.316-.1c-1-.348-1.4-1.48-1.8-2.367Z" transform="translate(-49.092 -151.557)" fill="#141e54"/>
        <path id="Trazado_1043764" data-name="Trazado 1043764" d="M69.984,144.989c-1.159,3.027-1.592,6.138-.241,9.205l.052.114c-1.424.555-18.643,9.1-18.856,9.477l-2.077-4.136c-.54-1.071-.943-1.816-.519-3.016a2.453,2.453,0,0,1,.966-1.26,61.293,61.293,0,0,1,6.5-3.3Z" transform="translate(-38.31 -115.325)" fill="#1a275f"/>
        <path id="Trazado_1043765" data-name="Trazado 1043765" d="M241.783,79.895l.913-.545a29.985,29.985,0,0,0,4.933,11.331L232.3,98.5a14.558,14.558,0,0,0-.665-4.542c-.945-2.861-2.994-4.622-5.5-6.128Z" transform="translate(-179.867 -63.115)" fill="#1a275f"/>
        <path id="Trazado_1043766" data-name="Trazado 1043766" d="M263.155,79.895l.913-.545A29.985,29.985,0,0,0,269,90.681L253.667,98.5A14.558,14.558,0,0,0,253,93.96l12.858-6.52a30.581,30.581,0,0,1-2.7-7.545" transform="translate(-201.239 -63.115)" fill="#141e54"/>
        <path id="Trazado_1043767" data-name="Trazado 1043767" d="M305.635,35.728a8.165,8.165,0,0,1-.106-4.476c.775-2.384,3.129-3.206,5.158-4.256l4.893-2.489a28.755,28.755,0,0,0,.012,4.85,25.4,25.4,0,0,0,6.16,13.292,18.388,18.388,0,0,0,7.123,5.089l-9.417,4.986a4.672,4.672,0,0,1-2.389.208c-2.38-.4-5.162-3.955-6.5-5.874a29.985,29.985,0,0,1-4.933-11.331" transform="translate(-242.806 -19.494)" fill="#303a72"/>
        <path id="Trazado_1043768" data-name="Trazado 1043768" d="M150.616,121.153l.09-.183a10.56,10.56,0,0,1,6.223-5.429,10.948,10.948,0,0,1,8.279.665c2.5,1.506,4.552,3.267,5.5,6.128a14.557,14.557,0,0,1,.665,4.542,11.515,11.515,0,0,1-4.547,7.921,2.77,2.77,0,0,1-.731.442,5.925,5.925,0,0,1,.162,2.492l-.372.438a18.539,18.539,0,0,1-10.372.291,2.281,2.281,0,0,1-1.143-.927,3.693,3.693,0,0,1,.2-2.345,12.192,12.192,0,0,1-1.786-1.308,18.312,18.312,0,0,1-2.35-3.4l-.052-.114c-1.351-3.067-.918-6.178.241-9.205" transform="translate(-118.943 -91.489)" fill="#303a72"/>
        <path id="Trazado_1043769" data-name="Trazado 1043769" d="M172.812,213.576c2.915,1.468,5.691,2.13,8.888,1.1l2.642-1.044a5.925,5.925,0,0,1,.162,2.492l-.372.438a18.539,18.539,0,0,1-10.372.291,2.281,2.281,0,0,1-1.143-.927,3.693,3.693,0,0,1,.2-2.345" transform="translate(-137.191 -169.879)" fill="#1a275f"/>
        <path id="Trazado_1043770" data-name="Trazado 1043770" d="M176.011,134.94a7.056,7.056,0,0,1,4.13.805,6.881,6.881,0,0,1,3.272,4.083,6.512,6.512,0,0,1-.662,5.082,6.64,6.64,0,0,1-9.508,2.263,6.579,6.579,0,0,1-2.826-4.106,6.715,6.715,0,0,1,.9-5.068,7.042,7.042,0,0,1,4.691-3.06" transform="translate(-135.43 -107.308)" fill="#747eca"/>
        <path id="Trazado_1043771" data-name="Trazado 1043771" d="M36.569,228.444a18.539,18.539,0,0,0,10.372-.291,27.243,27.243,0,0,0,2.584,3.992l19.145,27.264L85.852,283.55H81.934l-17.349-24.59L48.2,235.768c-.5-.738-2.869-4.6-3.522-4.675l-1.091.055c-.418,1.109-.134,3.107-.131,4.332l.03,10.838-.023,30.324,6.883.01a16.151,16.151,0,0,1,3.009.057,1.8,1.8,0,0,1,.84.5c.992.97.533,4.82.534,6.263l-24.684-.007c-.006-1.448-.456-5.242.544-6.28a2.421,2.421,0,0,1,.634-.446,8.4,8.4,0,0,1,2.605-.139l6.527.058-.044-34.474.026-7.954a9.282,9.282,0,0,0-.129-3.056,5.455,5.455,0,0,0-1.605,0L3.909,283.448H0Z" transform="translate(0 -181.474)" fill="#303a72"/>
        <path id="Trazado_1043772" data-name="Trazado 1043772" d="M364.566,0A14.307,14.307,0,0,1,375.432,4.2a15.733,15.733,0,0,1,4.577,11.037c.013,2.849-.92,6.323-3,8.366a5.687,5.687,0,0,1-1.317.969l-1.488.774-4.278,2.168-1.31.735a18.388,18.388,0,0,1-7.123-5.089,25.4,25.4,0,0,1-6.16-13.292,28.758,28.758,0,0,1-.012-4.85l1.355-.814a.7.7,0,0,1,.052-.264c.6-1.624,3.39-2.607,4.852-3.254l1.561-.5Z" transform="translate(-282.543 0)" fill="#303a72"/>
        <path id="Trazado_1043773" data-name="Trazado 1043773" d="M384.672,1.4l1.561-.5c-.191,1.365-.533,2.712-.619,4.087A20.719,20.719,0,0,0,390,18.922a17.341,17.341,0,0,0,6.352,5.248,10.414,10.414,0,0,1,2.431,1.113l-1.488.774c-3.462-1.553-6.13-3.165-8.373-6.324A22.736,22.736,0,0,1,384.672,1.4" transform="translate(-305.638 -0.714)" fill="#141e54"/>
        <path id="Trazado_1043774" data-name="Trazado 1043774" d="M361.577,3.336a22.736,22.736,0,0,0,4.252,18.336c2.243,3.159,4.911,4.77,8.373,6.324l-4.278,2.168-1.31.735a18.388,18.388,0,0,1-7.123-5.089,25.4,25.4,0,0,1-6.16-13.292,28.758,28.758,0,0,1-.012-4.85l1.355-.814a.7.7,0,0,1,.052-.264c.6-1.624,3.39-2.607,4.852-3.254" transform="translate(-282.543 -2.653)" fill="#303a72"/>
        <path id="Trazado_1043775" data-name="Trazado 1043775" d="M355.318,21.344l1.355-.814a31.8,31.8,0,0,0-.031,5.326,24.506,24.506,0,0,0,6.085,12.974,18.065,18.065,0,0,0,5.034,4.1,17.292,17.292,0,0,1,2.162.908l-1.31.735a18.388,18.388,0,0,1-7.123-5.089,25.4,25.4,0,0,1-6.16-13.292,28.758,28.758,0,0,1-.012-4.85" transform="translate(-282.543 -16.33)" fill="#141e54"/>
      </g>
    </g>
  </g>
</svg>
