<svg xmlns="http://www.w3.org/2000/svg" width="85" height="78" viewBox="0 0 85 78">
  <g id="Grupo_1230880" data-name="Grupo 1230880" transform="translate(-180 -1548.085)">
    <g id="Grupo_1230708" data-name="Grupo 1230708" transform="translate(0 375)">
      <g id="Grupo_1230383" data-name="Grupo 1230383" transform="translate(0 -1477.915)">
        <rect id="Rectángulo_423244" data-name="Rectángulo 423244" width="85" height="78" rx="15" transform="translate(180 2651)" fill="#f4b6ae"/>
      </g>
    </g>
    <g id="Page-1" transform="translate(194.379 1558.964)">
      <g id="_097---Nuclear-Energy" data-name="097---Nuclear-Energy" transform="translate(0.004 0.004)">
        <path id="Path" d="M56.1,25.484a1.733,1.733,0,0,0-1.455-1.493l-3.738-.612a23.129,23.129,0,0,0-3.323-8.011l2.206-3.084a1.745,1.745,0,0,0-.017-2.092A23.087,23.087,0,0,0,48,8.242a26.136,26.136,0,0,0-1.951-1.775,1.745,1.745,0,0,0-2.092-.017L40.873,8.657a23.129,23.129,0,0,0-8.011-3.323L32.251,1.6A1.733,1.733,0,0,0,30.758.145a24.79,24.79,0,0,0-5.273,0A1.733,1.733,0,0,0,23.991,1.6l-.612,3.734a23.129,23.129,0,0,0-8.011,3.323L12.285,6.45a1.745,1.745,0,0,0-2.092.017A26.136,26.136,0,0,0,8.242,8.242a23.086,23.086,0,0,0-1.775,1.951,1.745,1.745,0,0,0-.017,2.092l2.206,3.084a23.129,23.129,0,0,0-3.323,8.011L1.6,23.991A1.733,1.733,0,0,0,.145,25.484a24.79,24.79,0,0,0,0,5.273A1.752,1.752,0,0,0,1.6,32.251l3.734.612a23.129,23.129,0,0,0,3.323,8.011L6.45,43.957a1.74,1.74,0,0,0,.017,2.091A25.958,25.958,0,0,0,8.242,48c.632.633,1.283,1.213,1.95,1.775a1.745,1.745,0,0,0,2.092.017l3.084-2.206a23.129,23.129,0,0,0,8.012,3.322l.612,3.734A1.733,1.733,0,0,0,25.484,56.1a24.79,24.79,0,0,0,5.273,0,1.733,1.733,0,0,0,1.493-1.455l.612-3.734a23.129,23.129,0,0,0,8.011-3.323l3.084,2.206a1.745,1.745,0,0,0,2.092-.017c.667-.562,1.318-1.142,1.95-1.775a25.957,25.957,0,0,0,1.775-1.951,1.74,1.74,0,0,0,.017-2.091l-2.206-3.084a23.129,23.129,0,0,0,3.323-8.011l3.734-.612A1.752,1.752,0,0,0,56.1,30.758a24.79,24.79,0,0,0,0-5.273Z" transform="translate(-0.004 -0.004)" fill="#e44b36" fill-rule="evenodd"/>
        <path id="Oval" d="M18.424,0A18.424,18.424,0,1,1,0,18.424,18.424,18.424,0,0,1,18.424,0Z" transform="translate(9.693 9.693)" fill="#f4b6ae"/>
        <g id="Grupo_1230879" data-name="Grupo 1230879" transform="translate(13.678 16.337)">
          <circle id="Oval-2" data-name="Oval" cx="2.909" cy="2.909" r="2.909" transform="translate(11.53 8.871)" fill="#e44b36"/>
          <path id="Path-2" data-name="Path" d="M34.944,41.3a.979.979,0,0,1-.526,1.319,14.558,14.558,0,0,1-11.227,0,.979.979,0,0,1-.526-1.319l2.484-5.274a.97.97,0,0,1,1.232-.485,6.819,6.819,0,0,0,4.848,0,.97.97,0,0,1,1.232.485Z" transform="translate(-14.367 -17.416)" fill="#e44b36" fill-rule="evenodd"/>
          <path id="Path-3" data-name="Path" d="M36.532,17.265a.98.98,0,0,1,1.405-.2,14.564,14.564,0,0,1,5.614,9.723.98.98,0,0,1-.88,1.114l-5.809.485a.97.97,0,0,1-1.035-.824,6.821,6.821,0,0,0-2.424-4.2.97.97,0,0,1-.194-1.308Z" transform="translate(-14.684 -16.851)" fill="#e44b36" fill-rule="evenodd"/>
          <path id="Path-4" data-name="Path" d="M15,27.9a.98.98,0,0,1-.88-1.114,14.564,14.564,0,0,1,5.614-9.723.98.98,0,0,1,1.405.2l3.325,4.788a.97.97,0,0,1-.194,1.308,6.821,6.821,0,0,0-2.424,4.2.97.97,0,0,1-1.035.824Z" transform="translate(-14.11 -16.851)" fill="#e44b36" fill-rule="evenodd"/>
        </g>
      </g>
    </g>
  </g>
</svg>
