<svg xmlns="http://www.w3.org/2000/svg" width="28.258" height="38.799" viewBox="0 0 28.258 38.799">
  <g id="cologne_685704" transform="translate(-53.198)">
    <g id="Grupo_1230723" data-name="Grupo 1230723" transform="translate(53.198 0)">
      <g id="Grupo_1230722" data-name="Grupo 1230722" transform="translate(0 0)">
        <path id="Trazado_1051754" data-name="Trazado 1051754" d="M75.709,11.335h-.832V8.283A4.358,4.358,0,0,0,77.571,4.32V4.28A4.262,4.262,0,0,0,73.291,0H61.441a4.3,4.3,0,0,0-1.585,8.283v3.091h-.872A5.793,5.793,0,0,0,53.2,17.16V33.013A5.793,5.793,0,0,0,58.984,38.8H75.669a5.793,5.793,0,0,0,5.786-5.786V17.16A5.768,5.768,0,0,0,75.709,11.335ZM61.441,1.268h11.81a2.933,2.933,0,0,1,2.893,2.378h-17.6A2.972,2.972,0,0,1,61.441,1.268ZM58.548,4.954h17.6a2.97,2.97,0,0,1-2.893,2.338H61.441A3,3,0,0,1,58.548,4.954ZM73.608,8.56v2.774H61.164V8.56H73.608Zm2.1,28.891H58.984a4.5,4.5,0,0,1-4.478-4.478V17.121a4.5,4.5,0,0,1,4.478-4.478H75.669a4.5,4.5,0,0,1,4.478,4.478V32.973h.04A4.5,4.5,0,0,1,75.709,37.452Z" transform="translate(-53.198 0)" fill="#292584"/>
        <path id="Trazado_1051755" data-name="Trazado 1051755" d="M157.642,204.559a11.294,11.294,0,0,0-1.9-.159c-1.783,0-4.241.4-5.707,2.219-1.229,1.506-1.585,3.725-.991,6.539,0,.04,0,.04.04.079,0,.04,0,.04.04.079.04.079.079.119.119.2a.865.865,0,0,0,.2.119c.04,0,.04,0,.079.04.04,0,.04.04.079.04a11.725,11.725,0,0,0,2.5.277,5.865,5.865,0,0,0,4.716-1.942c2.14-2.576,1.427-6.737,1.387-6.936A.861.861,0,0,0,157.642,204.559Zm-1.863,6.618a4.562,4.562,0,0,1-3.725,1.466,8.348,8.348,0,0,1-.991-.079l3.012-3.012a.645.645,0,0,0-.912-.912l-3.012,3.012a5.643,5.643,0,0,1,.912-4.241c1.189-1.427,3.21-1.744,4.716-1.744a8.849,8.849,0,0,1,1.189.079C157.047,206.857,157.166,209.512,155.779,211.177Z" transform="translate(-139.292 -184.148)" fill="#292584"/>
        <path id="Trazado_1051756" data-name="Trazado 1051756" d="M120.479,166.8a8.481,8.481,0,1,0,8.481,8.481A8.491,8.491,0,0,0,120.479,166.8Zm0,15.615a7.173,7.173,0,1,1,7.173-7.173A7.171,7.171,0,0,1,120.479,182.415Z" transform="translate(-106.172 -150.274)" fill="#292584"/>
      </g>
    </g>
  </g>
</svg>
