<svg xmlns="http://www.w3.org/2000/svg" width="40.205" height="40.723" viewBox="0 0 40.205 40.723">
  <g id="pesticide_5756545" transform="translate(-3.25)">
    <path id="Trazado_1051757" data-name="Trazado 1051757" d="M43.123,2.565A1.591,1.591,0,1,0,40.608.616L38.271,3.634a3.169,3.169,0,0,0-.661,1.932v1.3a1.234,1.234,0,0,0-.954,1.2v7.987a1.234,1.234,0,0,0,.954,1.2V26.8a.4.4,0,0,1-.4.4h-2.1V9.987a1.792,1.792,0,0,0-1.79-1.79H26.577V6.811a1.234,1.234,0,0,0-1.233-1.233H23.611v-2.4h1.372a1.234,1.234,0,0,0,1.233-1.233V1.233A1.234,1.234,0,0,0,24.984,0H19.057a1.234,1.234,0,0,0-1.233,1.233v.716a1.234,1.234,0,0,0,1.233,1.233H20.43v2.4H18.7a1.234,1.234,0,0,0-1.233,1.233V8.2H15.657V6.656a.914.914,0,0,0-.407-.76V3.579A3.583,3.583,0,0,0,11.67,0H6.829A3.583,3.583,0,0,0,3.25,3.579V26.8a3.583,3.583,0,0,0,3.579,3.579h2.1v8.552a1.792,1.792,0,0,0,1.79,1.79h22.6a1.792,1.792,0,0,0,1.79-1.79V30.381h2.1A3.583,3.583,0,0,0,40.791,26.8V17.251a1.234,1.234,0,0,0,.954-1.2V8.064a1.234,1.234,0,0,0-.954-1.2V5.575Zm-3.909,1.8,2.337-3.017a.4.4,0,1,1,.629.487L39.843,4.851a1.172,1.172,0,0,0-.244.715V6.831h-.8V5.566A1.97,1.97,0,0,1,39.214,4.364ZM37.889,16.091a.04.04,0,0,1-.04-.04V8.064a.04.04,0,0,1,.04-.04h2.623a.04.04,0,0,1,.04.04v7.987a.04.04,0,0,1-.04.04ZM19.018,1.949V1.233a.04.04,0,0,1,.04-.04h5.926a.04.04,0,0,1,.04.04v.716a.04.04,0,0,1-.04.04H19.057A.04.04,0,0,1,19.018,1.949Zm2.605,1.233h.8v2.4h-.8Zm-2.966,3.63a.04.04,0,0,1,.04-.04h6.648a.04.04,0,0,1,.04.04V8.2H18.657ZM12.855,8.2V6.934h1.609V8.2ZM6.829,29.188A2.389,2.389,0,0,1,4.443,26.8V3.579A2.389,2.389,0,0,1,6.829,1.193H11.67a2.389,2.389,0,0,1,2.386,2.386V5.741h-.8V3.579A1.593,1.593,0,0,0,11.67,1.988H6.829A1.593,1.593,0,0,0,5.238,3.579V26.8a1.593,1.593,0,0,0,1.591,1.591h2.1v.8Zm27.089,9.745a.6.6,0,0,1-.6.6h-22.6a.6.6,0,0,1-.6-.6V19.923a.6.6,0,0,0-1.193,0V27.2h-2.1a.4.4,0,0,1-.4-.4V3.579a.4.4,0,0,1,.4-.4H11.67a.4.4,0,0,1,.4.4V5.9a.914.914,0,0,0-.406.76V8.2h-.943a1.792,1.792,0,0,0-1.79,1.79v7.152a.6.6,0,1,0,1.193,0V9.987a.6.6,0,0,1,.6-.6h22.6a.6.6,0,0,1,.6.6Zm3.294-9.745h-2.1v-.8h2.1A1.593,1.593,0,0,0,38.8,26.8V17.284h.8V26.8A2.389,2.389,0,0,1,37.212,29.188Z" transform="translate(0)" fill="#292584"/>
    <path id="Trazado_1051758" data-name="Trazado 1051758" d="M155.253,169.351a7.258,7.258,0,1,0,7.258,7.258A7.266,7.266,0,0,0,155.253,169.351Zm-6.065,7.258a6.061,6.061,0,0,1,8.565-5.523l-1.25,2.165a1.885,1.885,0,0,0-1.309-.569c-1.16,0-2.11,1.191-2.4,2.856-.109-.057-.217-.116-.323-.18a.6.6,0,1,0-.621,1.019,6.571,6.571,0,0,0,.855.438s0,.01,0,.015h-.546a.6.6,0,1,0,0,1.193h.7c.009.039.019.079.029.117a5.983,5.983,0,0,0-.619.308.6.6,0,1,0,.594,1.035l.054-.029-1.2,2.081A6.059,6.059,0,0,1,149.188,176.609Zm6.378-1.736a1.779,1.779,0,0,1-1.26-.2c.249-.5.578-.8.888-.8a.925.925,0,0,1,.684.459Zm-1.669,1.736a5.132,5.132,0,0,1,.058-.774,2.968,2.968,0,0,0,.91.251l-.872,1.511A5.038,5.038,0,0,1,153.9,176.609Zm2.527-.835a5.111,5.111,0,0,1,.068.835c0,1.565-.685,2.735-1.3,2.735a.852.852,0,0,1-.617-.372Zm-1.171,6.9a6.027,6.027,0,0,1-2.5-.542l1.21-2.1a1.853,1.853,0,0,0,1.232.5,2.233,2.233,0,0,0,1.872-1.312,4.712,4.712,0,0,1,.614.314.6.6,0,1,0,.62-1.019,5.9,5.9,0,0,0-.8-.406c.008-.03.015-.061.022-.091h.82a.6.6,0,1,0,0-1.193h-.515a6.608,6.608,0,0,0,.756-.372.6.6,0,0,0-.595-1.034c-.124.072-.252.136-.382.2a5.193,5.193,0,0,0-.364-1.267l1.541-2.669a6.062,6.062,0,0,1-3.533,10.99Z" transform="translate(-133.233 -155.881)" fill="#292584"/>
    <path id="Trazado_1051759" data-name="Trazado 1051759" d="M164.722,393.27h-11.4a1.234,1.234,0,0,0-1.233,1.233v1.653a1.234,1.234,0,0,0,1.233,1.233h7.045a.6.6,0,0,0,0-1.193h-7.045a.04.04,0,0,1-.04-.04V394.5a.04.04,0,0,1,.04-.04h11.4a.04.04,0,0,1,.04.04v1.653a.04.04,0,0,1-.04.04h-1.57a.6.6,0,1,0,0,1.193h1.57a1.234,1.234,0,0,0,1.233-1.233V394.5A1.234,1.234,0,0,0,164.722,393.27Z" transform="translate(-137.002 -361.991)" fill="#292584"/>
  </g>
</svg>
