<svg xmlns="http://www.w3.org/2000/svg" xmlns:xlink="http://www.w3.org/1999/xlink" width="108" height="108" viewBox="0 0 108 108">
  <defs>
    <filter id="Trazado_904820" x="0" y="0" width="108" height="108" filterUnits="userSpaceOnUse">
      <feOffset dy="3" input="SourceAlpha"/>
      <feGaussianBlur stdDeviation="3" result="blur"/>
      <feFlood flood-opacity="0.161"/>
      <feComposite operator="in" in2="blur"/>
      <feComposite in="SourceGraphic"/>
    </filter>
  </defs>
  <g id="Grupo_1230937" data-name="Grupo 1230937" transform="translate(-200 -333)">
    <g id="Grupo_1230499" data-name="Grupo 1230499" transform="translate(209 339)">
      <g id="Grupo_1173585" data-name="Grupo 1173585" transform="translate(0 0)">
        <g id="Grupo_1173428" data-name="Grupo 1173428">
          <g id="Grupo_1171958" data-name="Grupo 1171958">
            <g id="Grupo_1167341" data-name="Grupo 1167341">
              <g id="Grupo_1166792" data-name="Grupo 1166792">
                <g transform="matrix(1, 0, 0, 1, -9, -6)" filter="url(#Trazado_904820)">
                  <g id="Trazado_904820-2" data-name="Trazado 904820" transform="translate(9 6)" fill="#fcebe9">
                    <path d="M 44.99999618530273 88.5 C 39.12687301635742 88.5 33.43022155761719 87.35007476806641 28.06829643249512 85.08216094970703 C 22.88852119445801 82.89131164550781 18.23629570007324 79.75458526611328 14.24084663391113 75.75914001464844 C 10.24540901184082 71.76368713378906 7.108683586120605 67.11146545410156 4.917821407318115 61.93168640136719 C 2.649921178817749 56.56976318359375 1.499996185302734 50.87311172485352 1.499996185302734 45 C 1.499996185302734 39.12687683105469 2.649921178817749 33.43022537231445 4.917821407318115 28.06830024719238 C 7.108683586120605 22.88852500915527 10.24540901184082 18.23631286621094 14.24084663391113 14.24086284637451 C 18.23629570007324 10.24541282653809 22.88852119445801 7.108699798583984 28.06829643249512 4.917837619781494 C 33.43022155761719 2.649937391281128 39.12687301635742 1.500012516975403 44.99999618530273 1.500012516975403 C 50.87311935424805 1.500012516975403 56.56977081298828 2.649937391281128 61.93169784545898 4.917837619781494 C 67.11147308349609 7.108699798583984 71.76369476318359 10.24541282653809 75.75914764404297 14.24086284637451 C 79.75458526611328 18.23631286621094 82.89131164550781 22.88852500915527 85.08216857910156 28.06830024719238 C 87.35007476806641 33.43022537231445 88.5 39.12687683105469 88.5 45 C 88.5 50.87311172485352 87.35007476806641 56.56976318359375 85.08216857910156 61.93168640136719 C 82.89131164550781 67.11146545410156 79.75458526611328 71.76368713378906 75.75914764404297 75.75914001464844 C 71.76369476318359 79.75458526611328 67.11147308349609 82.89131164550781 61.93169784545898 85.08216094970703 C 56.56977081298828 87.35007476806641 50.87311935424805 88.5 44.99999618530273 88.5 Z" stroke="none"/>
                    <path d="M 44.99999618530273 3 C 39.32870864868164 3 33.82865142822266 4.110054016113281 28.65262603759766 6.299339294433594 C 23.65165710449219 8.414573669433594 19.15968322753906 11.44334411621094 15.301513671875 15.301513671875 C 11.44333648681641 19.15968322753906 8.414566040039062 23.65165710449219 6.299339294433594 28.65262985229492 C 4.110054016113281 33.82865524291992 2.999992370605469 39.32871246337891 2.999992370605469 45 C 2.999992370605469 50.67128753662109 4.110054016113281 56.17132949829102 6.299339294433594 61.34735870361328 C 8.414566040039062 66.34832763671875 11.44333648681641 70.84028625488281 15.301513671875 74.69847106933594 C 19.15968322753906 78.556640625 23.65165710449219 81.58541107177734 28.65262603759766 83.70064544677734 C 33.82865142822266 85.88993072509766 39.32870864868164 86.99998474121094 44.99999618530273 86.99998474121094 C 50.67128372192383 86.99998474121094 56.17134094238281 85.88993072509766 61.34736633300781 83.70064544677734 C 66.34834289550781 81.58541107177734 70.84030914306641 78.556640625 74.69847869873047 74.69847106933594 C 78.55665588378906 70.84028625488281 81.58542633056641 66.34832763671875 83.70065307617188 61.34735870361328 C 85.88993835449219 56.17132949829102 87 50.67128753662109 87 45 C 87 39.32871246337891 85.88993835449219 33.82865524291992 83.70065307617188 28.65262985229492 C 81.58542633056641 23.65165710449219 78.55665588378906 19.15968322753906 74.69847869873047 15.301513671875 C 70.84030914306641 11.44334411621094 66.34834289550781 8.414573669433594 61.34736633300781 6.299339294433594 C 56.17134094238281 4.110054016113281 50.67128372192383 3 44.99999618530273 3 M 44.99999618530273 0 C 69.85281372070312 0 90 20.14718627929688 90 45 C 90 69.852783203125 69.85281372070312 89.99998474121094 44.99999618530273 89.99998474121094 C 20.14717864990234 89.99998474121094 -7.62939453125e-06 69.852783203125 -7.62939453125e-06 45 C -7.62939453125e-06 20.14718627929688 20.14717864990234 0 44.99999618530273 0 Z" stroke="none" fill="#e44b36"/>
                  </g>
                </g>
              </g>
            </g>
          </g>
        </g>
      </g>
    </g>
    <g id="nuclear-weapon_11299052_2_" data-name="nuclear-weapon_11299052 (2)" transform="translate(218.8 346.8)">
      <g id="Grupo_1230932" data-name="Grupo 1230932" transform="translate(7.5 7.5)">
        <rect id="Rectángulo_423844" data-name="Rectángulo 423844" width="7.376" height="42.775" transform="translate(24.512 8.715)" fill="#fff"/>
        <rect id="Rectángulo_423845" data-name="Rectángulo 423845" width="2.837" height="42.775" transform="translate(24.512 8.715)" fill="#e3e9ee"/>
        <path id="Trazado_1179549" data-name="Trazado 1179549" d="M171.843,219.423a2.976,2.976,0,0,0-1.81.611,2.987,2.987,0,0,0-3.62,0,2.987,2.987,0,0,0-3.5-.09,2.987,2.987,0,0,0-3.5.09,2.987,2.987,0,0,0-3.62,0,2.989,2.989,0,1,0,0,4.757,2.987,2.987,0,0,0,3.62,0,2.987,2.987,0,0,0,3.5.09,2.987,2.987,0,0,0,3.5-.09,2.987,2.987,0,0,0,3.62,0,2.989,2.989,0,1,0,1.81-5.368Z" transform="translate(-134.716 -195.374)" fill="#ff6a47"/>
        <path id="Trazado_1179550" data-name="Trazado 1179550" d="M116.483,13.061a4.857,4.857,0,0,0-1.213.153,6.13,6.13,0,0,0-8.5-2.809,6.127,6.127,0,0,0-10.422,0,6.13,6.13,0,0,0-8.5,2.809,4.848,4.848,0,1,0,2.46,7.854,6.093,6.093,0,0,0,2.87.838,4.845,4.845,0,0,0,8.38,2.39,4.845,4.845,0,0,0,8.38-2.39,6.092,6.092,0,0,0,2.87-.838,4.846,4.846,0,1,0,3.673-8.007Z" transform="translate(-73.36 -7.5)" fill="#ff6a47"/>
        <g id="Grupo_1230930" data-name="Grupo 1230930" transform="translate(0 39.264)">
          <path id="Trazado_1179551" data-name="Trazado 1179551" d="M32.239,362.578c-5.583,0-6.752-9.078-11.008-9.078a5.675,5.675,0,0,0-5.6,4.737,4.541,4.541,0,0,0-5.653,5.717,3.4,3.4,0,0,0,.922,6.681H60.5a3.4,3.4,0,0,0,.922-6.681,4.541,4.541,0,0,0-5.653-5.717,5.675,5.675,0,0,0-5.6-4.737c-4.256,0-6.505,9.078-11.008,9.078Z" transform="translate(-7.5 -353.5)" fill="#fff"/>
          <path id="Trazado_1179552" data-name="Trazado 1179552" d="M11.7,368.123a3.386,3.386,0,0,1,2.547-3.237,4.326,4.326,0,0,1-.218-1.359,4.573,4.573,0,0,1,4.658-4.484,4.825,4.825,0,0,1,1.361.2,5.677,5.677,0,0,1,3.856-4.377,3.7,3.7,0,0,0-2.675-1.361,5.675,5.675,0,0,0-5.6,4.737,4.541,4.541,0,0,0-5.653,5.717,3.4,3.4,0,0,0,.922,6.682h1.969A3.3,3.3,0,0,1,11.7,368.123Z" transform="translate(-7.5 -353.499)" fill="#e3e9ee"/>
        </g>
        <g id="Grupo_1230931" data-name="Grupo 1230931" transform="translate(16.852 33.704)">
          <circle id="Elipse_12862" data-name="Elipse 12862" cx="11.348" cy="11.348" r="11.348" fill="#fde31d"/>
          <path id="Trazado_1179553" data-name="Trazado 1179553" d="M159.152,315.848a11.35,11.35,0,0,1,9.772-11.239,11.348,11.348,0,1,0,0,22.477A11.35,11.35,0,0,1,159.152,315.848Z" transform="translate(-156 -304.5)" fill="#e7c900"/>
        </g>
        <path id="Trazado_1179554" data-name="Trazado 1179554" d="M154.4,222.412a2.985,2.985,0,0,1,1.285-2.456,2.989,2.989,0,1,0,0,4.911A2.985,2.985,0,0,1,154.4,222.412Z" transform="translate(-134.715 -195.374)" fill="#fd3501"/>
        <path id="Trazado_1179555" data-name="Trazado 1179555" d="M90.593,34.691a17.582,17.582,0,0,1,.509-4.207,6.151,6.151,0,0,0-3.252,3.105,4.848,4.848,0,1,0,2.46,7.854,6.085,6.085,0,0,0,1.956.733A17.475,17.475,0,0,1,90.593,34.691Z" transform="translate(-73.36 -27.876)" fill="#fd3501"/>
        <path id="Trazado_1179556" data-name="Trazado 1179556" d="M203.438,351.054l4.749.542a6.872,6.872,0,0,0-4.1-7.1l-1.9,4.383a2.328,2.328,0,0,0-1.968-.088l-1.864-4.295a6.872,6.872,0,0,0-4.1,7.1l4.525-.516a2.331,2.331,0,0,0,1.076,1.842l-2.844,3.84a6.872,6.872,0,0,0,8.195,0l-2.844-3.84A2.331,2.331,0,0,0,203.438,351.054Z" transform="translate(-173.021 -306.257)" fill="#767676"/>
      </g>
      <g id="Grupo_1230935" data-name="Grupo 1230935" transform="translate(7.5 7.5)">
        <line id="Línea_865" data-name="Línea 865" y1="6.165" transform="translate(24.512 18.36)" fill="none" stroke="#000" stroke-miterlimit="10" stroke-width="1.3"/>
        <line id="Línea_866" data-name="Línea 866" y1="4.663" transform="translate(24.512 29.551)" fill="none" stroke="#000" stroke-miterlimit="10" stroke-width="1.3"/>
        <line id="Línea_867" data-name="Línea 867" y1="4.663" transform="translate(31.888 29.551)" fill="none" stroke="#000" stroke-miterlimit="10" stroke-width="1.3"/>
        <line id="Línea_868" data-name="Línea 868" y1="6.165" transform="translate(31.888 18.36)" fill="none" stroke="#000" stroke-miterlimit="10" stroke-width="1.3"/>
        <path id="Trazado_1179557" data-name="Trazado 1179557" d="M171.842,219.416a2.976,2.976,0,0,0-1.81.611,3.008,3.008,0,0,0-3.62,0,3.009,3.009,0,0,0-3.5-.089,3.009,3.009,0,0,0-3.5.089,3.008,3.008,0,0,0-3.62,0,2.989,2.989,0,1,0,0,4.757,3.008,3.008,0,0,0,3.62,0,3.009,3.009,0,0,0,3.5.089,3.009,3.009,0,0,0,3.5-.089,3.008,3.008,0,0,0,3.62,0,2.989,2.989,0,1,0,1.81-5.368Z" transform="translate(-134.716 -195.367)" fill="none" stroke="#000" stroke-miterlimit="10" stroke-width="1.3"/>
        <path id="Trazado_1179558" data-name="Trazado 1179558" d="M116.483,13.061a4.857,4.857,0,0,0-1.213.153,6.13,6.13,0,0,0-8.5-2.809,6.127,6.127,0,0,0-10.422,0,6.13,6.13,0,0,0-8.5,2.809,4.848,4.848,0,1,0,2.46,7.854,6.093,6.093,0,0,0,2.87.838,4.845,4.845,0,0,0,8.38,2.39,4.845,4.845,0,0,0,8.38-2.39,6.092,6.092,0,0,0,2.87-.838,4.846,4.846,0,1,0,3.673-8.007Z" transform="translate(-73.36 -7.5)" fill="none" stroke="#000" stroke-miterlimit="10" stroke-width="1.3"/>
        <path id="Trazado_1179559" data-name="Trazado 1179559" d="M129.97,504.5h28.6" transform="translate(-116.072 -448.1)" fill="none" stroke="#000" stroke-miterlimit="10" stroke-width="1.3"/>
        <path id="Trazado_1179560" data-name="Trazado 1179560" d="M19.7,370.636H10.9a3.4,3.4,0,0,1-.921-6.682,4.541,4.541,0,0,1,5.652-5.717,5.675,5.675,0,0,1,5.6-4.737c1.467,0,2.567,1.079,3.608,2.493" transform="translate(-7.5 -314.236)" fill="none" stroke="#000" stroke-miterlimit="10" stroke-width="1.3"/>
        <path id="Trazado_1179561" data-name="Trazado 1179561" d="M351.11,355.771c1.111-1.3,2.287-2.271,3.676-2.271a5.675,5.675,0,0,1,5.6,4.737,4.54,4.54,0,0,1,5.652,5.717,3.4,3.4,0,0,1-.921,6.682h-8.791" transform="translate(-312.117 -314.236)" fill="none" stroke="#000" stroke-miterlimit="10" stroke-width="1.3"/>
        <path id="Trazado_1179562" data-name="Trazado 1179562" d="M40.9,474.5a3.4,3.4,0,0,1-3.4,3.4" transform="translate(-34.096 -421.505)" fill="none" stroke="#000" stroke-miterlimit="10" stroke-width="1.3"/>
        <path id="Trazado_1179563" data-name="Trazado 1179563" d="M413.578,431.5a4.539,4.539,0,1,1-9.078,0" transform="translate(-359.448 -383.384)" fill="none" stroke="#000" stroke-miterlimit="10" stroke-width="1.3"/>
        <path id="Trazado_1179564" data-name="Trazado 1179564" d="M67.5,393.5a4.539,4.539,0,0,1,4.539,4.539" transform="translate(-60.691 -349.697)" fill="none" stroke="#000" stroke-miterlimit="10" stroke-width="1.3"/>
        <g id="Grupo_1230933" data-name="Grupo 1230933" transform="translate(13.277 0)">
          <path id="Trazado_1179565" data-name="Trazado 1179565" d="M256,7.5a6.128,6.128,0,0,1,6.128,6.128" transform="translate(-241.077 -7.5)" fill="none" stroke="#000" stroke-miterlimit="10" stroke-width="1.3"/>
          <path id="Trazado_1179566" data-name="Trazado 1179566" d="M184.209,26.5a6.128,6.128,0,0,1,6.128,6.128" transform="translate(-177.433 -24.344)" fill="none" stroke="#000" stroke-miterlimit="10" stroke-width="1.3"/>
          <path id="Trazado_1179567" data-name="Trazado 1179567" d="M129.347,99.209a4.847,4.847,0,0,1-4.847,4.847" transform="translate(-124.5 -88.802)" fill="none" stroke="#000" stroke-miterlimit="10" stroke-width="1.3"/>
          <path id="Trazado_1179568" data-name="Trazado 1179568" d="M229.05,127a4.847,4.847,0,0,1-4.847,4.847" transform="translate(-212.889 -113.442)" fill="none" stroke="#000" stroke-miterlimit="10" stroke-width="1.3"/>
          <path id="Trazado_1179569" data-name="Trazado 1179569" d="M349.638,56.5a4.847,4.847,0,0,0-4.847,4.847" transform="translate(-319.792 -50.939)" fill="none" stroke="#000" stroke-miterlimit="10" stroke-width="1.3"/>
        </g>
        <circle id="Elipse_12863" data-name="Elipse 12863" cx="11.348" cy="11.348" r="11.348" transform="translate(16.852 33.704)" fill="none" stroke="#000" stroke-miterlimit="10" stroke-width="1.3"/>
        <g id="Grupo_1230934" data-name="Grupo 1230934" transform="translate(21.188 38.243)">
          <circle id="Elipse_12864" data-name="Elipse 12864" cx="2.336" cy="2.336" r="2.336" transform="translate(4.564 4.118)" fill="none" stroke="#000" stroke-miterlimit="10" stroke-width="1.3"/>
          <path id="Trazado_1179570" data-name="Trazado 1179570" d="M224.278,419.046l2.816,3.8a6.872,6.872,0,0,1-8.195,0l2.816-3.8" transform="translate(-216.097 -410.586)" fill="none" stroke="#000" stroke-miterlimit="10" stroke-width="1.3"/>
          <path id="Trazado_1179571" data-name="Trazado 1179571" d="M264.663,348.841l1.884-4.341a6.872,6.872,0,0,1,4.1,7.1l-4.7-.536" transform="translate(-256.668 -344.5)" fill="none" stroke="#000" stroke-miterlimit="10" stroke-width="1.3"/>
          <path id="Trazado_1179572" data-name="Trazado 1179572" d="M198.956,351.059l-4.7.536a6.872,6.872,0,0,1,4.1-7.1l1.884,4.341" transform="translate(-194.209 -344.499)" fill="none" stroke="#000" stroke-miterlimit="10" stroke-width="1.3"/>
        </g>
      </g>
      <g id="Grupo_1230936" data-name="Grupo 1230936" transform="translate(31.24 17.523)">
        <line id="Línea_869" data-name="Línea 869" x2="1.702" transform="translate(0 1.584)" fill="none" stroke="#fff" stroke-miterlimit="10" stroke-width="1.3"/>
        <line id="Línea_870" data-name="Línea 870" x2="1.702" transform="translate(7.874)" fill="none" stroke="#fff" stroke-miterlimit="10" stroke-width="1.3"/>
      </g>
    </g>
  </g>
</svg>
