<svg xmlns="http://www.w3.org/2000/svg" xmlns:xlink="http://www.w3.org/1999/xlink" width="118" height="118" viewBox="0 0 118 118">
  <defs>
    <filter id="Trazado_982547" x="0" y="0" width="118" height="118" filterUnits="userSpaceOnUse">
      <feOffset dy="3" input="SourceAlpha"/>
      <feGaussianBlur stdDeviation="3" result="blur"/>
      <feFlood flood-opacity="0.161"/>
      <feComposite operator="in" in2="blur"/>
      <feComposite in="SourceGraphic"/>
    </filter>
  </defs>
  <g id="Grupo_1230990" data-name="Grupo 1230990" transform="translate(-584 -3795.093)">
    <g id="Grupo_1230870" data-name="Grupo 1230870" transform="translate(593 3801.093)">
      <g id="Grupo_1209739" data-name="Grupo 1209739">
        <g id="Grupo_1209277" data-name="Grupo 1209277" transform="translate(0 0)">
          <g id="Grupo_1208028" data-name="Grupo 1208028">
            <g id="Grupo_1177675" data-name="Grupo 1177675">
              <g id="Grupo_1176928" data-name="Grupo 1176928">
                <g id="Grupo_1172322" data-name="Grupo 1172322">
                  <g id="Grupo_1164700" data-name="Grupo 1164700">
                    <g id="Grupo_1160931" data-name="Grupo 1160931">
                      <g id="Grupo_1160749" data-name="Grupo 1160749">
                        <g id="Grupo_1158891" data-name="Grupo 1158891">
                          <g id="Grupo_1157406" data-name="Grupo 1157406">
                            <g id="Grupo_1155793" data-name="Grupo 1155793">
                              <g id="Grupo_1154704" data-name="Grupo 1154704">
                                <g id="Grupo_1150790" data-name="Grupo 1150790">
                                  <g id="Grupo_1154214" data-name="Grupo 1154214">
                                    <g id="Grupo_1152583" data-name="Grupo 1152583">
                                      <g id="Grupo_1146973" data-name="Grupo 1146973">
                                        <g id="Grupo_1146954" data-name="Grupo 1146954">
                                          <g transform="matrix(1, 0, 0, 1, -9, -6)" filter="url(#Trazado_982547)">
                                            <g id="Trazado_982547-2" data-name="Trazado 982547" transform="translate(9 6)" fill="#fcebe9">
                                              <path d="M 49.99995040893555 98.49974060058594 C 43.45183563232422 98.49974060058594 37.10039138793945 97.21762847900391 31.12205123901367 94.68899536132812 C 25.34687805175781 92.24631500244141 20.15995025634766 88.74908447265625 15.70530796051025 84.29445648193359 C 11.25067901611328 79.83982849121094 7.753450393676758 74.65290069580078 5.310764789581299 68.87775421142578 C 2.782136201858521 62.8994140625 1.500007510185242 56.54796981811523 1.500007510185242 49.99987030029297 C 1.500007510185242 43.4517707824707 2.782136201858521 37.10032653808594 5.310764789581299 31.12198448181152 C 7.753450393676758 25.34684181213379 11.25067901611328 20.15991401672363 15.70530796051025 15.70528411865234 C 20.15995025634766 11.25065612792969 25.34687805175781 7.753427505493164 31.12205123901367 5.310741901397705 C 37.10039138793945 2.782113075256348 43.45183563232422 1.499998927116394 49.99995040893555 1.499998927116394 C 56.54806518554688 1.499998927116394 62.89950942993164 2.782113075256348 68.87785339355469 5.310741901397705 C 74.65302276611328 7.753427505493164 79.83995056152344 11.25065612792969 84.29459381103516 15.70528411865234 C 88.74922180175781 20.15991401672363 92.24645233154297 25.34684181213379 94.68913269042969 31.12198448181152 C 97.21776580810547 37.10032653808594 98.49989318847656 43.4517707824707 98.49989318847656 49.99987030029297 C 98.49989318847656 56.54796981811523 97.21776580810547 62.8994140625 94.68913269042969 68.87775421142578 C 92.24645233154297 74.65290069580078 88.74922180175781 79.83982849121094 84.29459381103516 84.29445648193359 C 79.83995056152344 88.74908447265625 74.65302276611328 92.24631500244141 68.87785339355469 94.68899536132812 C 62.89950942993164 97.21762847900391 56.54806518554688 98.49974060058594 49.99995040893555 98.49974060058594 Z" stroke="none"/>
                                              <path d="M 49.99995040893555 2.999992370605469 C 43.6536750793457 2.999992370605469 37.49882888793945 4.242240905761719 31.70638275146484 6.692237854003906 C 26.11000823974609 9.059303283691406 21.08333587646484 12.44857788085938 16.76598358154297 16.76594543457031 C 12.4486083984375 21.08329772949219 9.059333801269531 26.10996246337891 6.692276000976562 31.70631408691406 C 4.242271423339844 37.49876403808594 3.000015258789062 43.65361022949219 3.000015258789062 49.99987030029297 C 3.000015258789062 56.34613037109375 4.242271423339844 62.5009765625 6.692276000976562 68.29342651367188 C 9.059333801269531 73.88977813720703 12.4486083984375 78.91644287109375 16.76598358154297 83.23379516601562 C 21.08333587646484 87.5511474609375 26.11000823974609 90.94042205810547 31.70638275146484 93.30748748779297 C 37.49882888793945 95.75748443603516 43.6536750793457 96.99973297119141 49.99995040893555 96.99973297119141 C 56.34622573852539 96.99973297119141 62.50107192993164 95.75748443603516 68.29351806640625 93.30748748779297 C 73.889892578125 90.94042205810547 78.91656494140625 87.5511474609375 83.23391723632812 83.23379516601562 C 87.55128479003906 78.91644287109375 90.94056701660156 73.88977813720703 93.30762481689453 68.29342651367188 C 95.75762939453125 62.5009765625 96.99988555908203 56.34613037109375 96.99988555908203 49.99987030029297 C 96.99988555908203 43.65361022949219 95.75762939453125 37.49876403808594 93.30762481689453 31.70631408691406 C 90.94056701660156 26.10996246337891 87.55128479003906 21.08329772949219 83.23391723632812 16.76594543457031 C 78.91656494140625 12.44857788085938 73.889892578125 9.059303283691406 68.29351806640625 6.692237854003906 C 62.50107192993164 4.242240905761719 56.34622573852539 2.999992370605469 49.99995040893555 2.999992370605469 M 49.99995040893555 -7.62939453125e-06 C 77.61415100097656 -7.62939453125e-06 99.99988555908203 22.38570404052734 99.99988555908203 49.99987030029297 C 99.99988555908203 77.61404418945312 77.61415100097656 99.99973297119141 49.99995040893555 99.99973297119141 C 22.38574981689453 99.99973297119141 1.52587890625e-05 77.61404418945312 1.52587890625e-05 49.99987030029297 C 1.52587890625e-05 22.38570404052734 22.38574981689453 -7.62939453125e-06 49.99995040893555 -7.62939453125e-06 Z" stroke="none" fill="#e44b36"/>
                                            </g>
                                          </g>
                                        </g>
                                      </g>
                                    </g>
                                  </g>
                                </g>
                              </g>
                            </g>
                          </g>
                        </g>
                      </g>
                    </g>
                  </g>
                </g>
              </g>
            </g>
          </g>
        </g>
      </g>
    </g>
    <g id="cholesterol_2689874" transform="translate(604.922 3813.405)">
      <path id="Trazado_1179724" data-name="Trazado 1179724" d="M78.264,42.132A36.163,36.163,0,1,0,53.713,76.349,10.585,10.585,0,0,0,70.053,65.04,35.968,35.968,0,0,0,78.264,42.132Z" transform="translate(-1.591 -1.591)" fill="#e6e7e8"/>
      <g id="Grupo_1230989" data-name="Grupo 1230989" transform="translate(2 2)">
        <g id="Grupo_1230986" data-name="Grupo 1230986" transform="translate(0.602 0.602)">
          <path id="Trazado_1179725" data-name="Trazado 1179725" d="M46.162,64.048A10.008,10.008,0,0,1,65.8,61.3,35.512,35.512,0,1,0,50.219,72.082,9.986,9.986,0,0,1,46.162,64.048Z" transform="translate(-3 -3)" fill="#0089ef"/>
          <path id="Trazado_1179726" data-name="Trazado 1179726" d="M72.292,18.769a61.752,61.752,0,0,0-6.158,2.32,98.736,98.736,0,0,0-12.322,6.688s-.546-3.737,2.4-11.278A55.171,55.171,0,0,1,60.42,8.1,35.29,35.29,0,0,0,51.676,4.69,58.6,58.6,0,0,0,44.49,16.314c-3.184,6.746-3.641,15.922-3.641,15.922A101.177,101.177,0,0,0,24.411,47.264,91.972,91.972,0,0,0,14.825,60.54a35.7,35.7,0,0,0,10.632,9.42A122.6,122.6,0,0,1,43.191,48.793c8.852-8.256,24.8-15.771,34.1-19.735a35.368,35.368,0,0,0-4.994-10.289Z" transform="translate(-7.704 -3.672)" fill="#ffd7e5"/>
          <path id="Trazado_1179727" data-name="Trazado 1179727" d="M51.8,74.987a54.1,54.1,0,0,1,4.8-3.939,6.224,6.224,0,0,0-3.337-.425c-3.9.835-4.038,4.8-5.464,5.6s-2.83.427-4.118,1.7c-1.723,1.7-1.077,3.257-2.342,4.522s-3.257,1.265-4.495,4.495a7.482,7.482,0,0,0,.139,5.021A118.523,118.523,0,0,1,51.8,74.987Z" transform="translate(-16.313 -29.867)" fill="#d4fbff"/>
          <path id="Trazado_1179728" data-name="Trazado 1179728" d="M26.153,67.139a88.873,88.873,0,0,0-6.951,9.11,4.675,4.675,0,0,0,3.335-.107c2.153-.808,1.212-3.522,3.568-6.06,1.4-1.507,3.14-1.385,4.076-2.177,1.129-.954,1.531-2.752,2.207-3.445,2.237-2.293,4.553-1.985,5.437-3.23a9.808,9.808,0,0,0,1.416-6.578A104.668,104.668,0,0,0,26.153,67.139Z" transform="translate(-9.445 -23.547)" fill="#d4fbff"/>
          <g id="Grupo_1230985" data-name="Grupo 1230985" transform="translate(14.371 12.481)">
            <circle id="Elipse_12865" data-name="Elipse 12865" cx="1.2" cy="1.2" r="1.2" transform="translate(21.159 21.198)" fill="#fa759e"/>
            <circle id="Elipse_12866" data-name="Elipse 12866" cx="1.781" cy="1.781" r="1.781" transform="translate(12.53 28.385)" fill="#fa759e"/>
            <circle id="Elipse_12867" data-name="Elipse 12867" cx="1.335" cy="1.335" r="1.335" transform="translate(4.217 37.51)" fill="#fa759e"/>
            <circle id="Elipse_12868" data-name="Elipse 12868" cx="1.781" cy="1.781" r="1.781" transform="translate(0.507 45.841)" fill="#fa759e"/>
            <circle id="Elipse_12869" data-name="Elipse 12869" cx="1.144" cy="1.144" r="1.144" transform="translate(0 42.408)" fill="#fa759e"/>
            <circle id="Elipse_12870" data-name="Elipse 12870" cx="2.038" cy="2.038" r="2.038" transform="translate(25.265 14.329)" fill="#fa759e"/>
            <circle id="Elipse_12871" data-name="Elipse 12871" cx="1.368" cy="1.368" r="1.368" transform="translate(32.946 15.883)" fill="#fa759e"/>
            <circle id="Elipse_12872" data-name="Elipse 12872" cx="0.891" cy="0.891" r="0.891" transform="translate(22.778 8.445)" fill="#fa759e"/>
            <circle id="Elipse_12873" data-name="Elipse 12873" cx="0.891" cy="0.891" r="0.891" transform="translate(45.375 9.172)" fill="#fa759e"/>
            <circle id="Elipse_12874" data-name="Elipse 12874" cx="1.781" cy="1.781" r="1.781" transform="translate(39.18 13.689)" fill="#fa759e"/>
            <circle id="Elipse_12875" data-name="Elipse 12875" cx="2.231" cy="2.231" r="2.231" transform="translate(25.265)" fill="#fa759e"/>
            <circle id="Elipse_12876" data-name="Elipse 12876" cx="1.781" cy="1.781" r="1.781" transform="translate(48.143 7.39)" fill="#fa759e"/>
          </g>
        </g>
        <g id="Grupo_1230988" data-name="Grupo 1230988">
          <circle id="Elipse_12877" data-name="Elipse 12877" cx="10.012" cy="10.012" r="10.012" transform="translate(43.764 51.638)" fill="#ffd7e5"/>
          <path id="Trazado_1179729" data-name="Trazado 1179729" d="M90.7,87.749c-.3,0-.605.019-.9.046a10.007,10.007,0,0,1,0,19.933c.3.026.6.046.9.046a10.012,10.012,0,0,0,0-20.024Z" transform="translate(-36.927 -36.111)" fill="#fff"/>
          <g id="Grupo_1230987" data-name="Grupo 1230987">
            <path id="Trazado_1179730" data-name="Trazado 1179730" d="M58.39,89.862a.6.6,0,0,0-.814.888l1.849,1.7a.6.6,0,0,0,.814-.888Z" transform="translate(-24.03 -36.889)" fill="#3a2c60"/>
            <path id="Trazado_1179731" data-name="Trazado 1179731" d="M54.487,94.5a.6.6,0,1,0-1.118.448L54.4,97.536a.6.6,0,1,0,1.118-.448Z" transform="translate(-22.417 -38.647)" fill="#3a2c60"/>
            <path id="Trazado_1179732" data-name="Trazado 1179732" d="M64.876,86.116l-2.664-.808a.6.6,0,1,0-.35,1.153l2.664.808a.6.6,0,0,0,.751-.4A.6.6,0,0,0,64.876,86.116Z" transform="translate(-25.643 -35.129)" fill="#3a2c60"/>
            <path id="Trazado_1179733" data-name="Trazado 1179733" d="M31.846,62.026a.6.6,0,0,0,.839-.864l-1.8-1.749a.6.6,0,1,0-.839.864Z" transform="translate(-13.085 -24.771)" fill="#3a2c60"/>
            <path id="Trazado_1179734" data-name="Trazado 1179734" d="M37.005,57.327a.6.6,0,0,0,.207-.037.6.6,0,0,0,.358-.773L36.613,53.9a.6.6,0,0,0-1.131.415l.958,2.613A.6.6,0,0,0,37.005,57.327Z" transform="translate(-15.304 -22.49)" fill="#3a2c60"/>
            <path id="Trazado_1179735" data-name="Trazado 1179735" d="M24.317,65.386a.6.6,0,0,0,.379.763l2.638.887a.611.611,0,0,0,.192.031.6.6,0,0,0,.192-1.174l-2.638-.887A.6.6,0,0,0,24.317,65.386Z" transform="translate(-10.865 -27.052)" fill="#3a2c60"/>
            <path id="Trazado_1179736" data-name="Trazado 1179736" d="M17.251,20.317a.6.6,0,0,0,.453-.2,35.149,35.149,0,0,1,4.677-4.432.6.6,0,0,0-.744-.947A36.463,36.463,0,0,0,16.8,19.318a.6.6,0,0,0,.452,1Z" transform="translate(-7.827 -7.015)" fill="#3a2c60"/>
            <path id="Trazado_1179737" data-name="Trazado 1179737" d="M74.264,38.132a36.138,36.138,0,0,0-55.823-30.3A.6.6,0,0,0,19.1,8.842,34.906,34.906,0,0,1,45.512,4a60.124,60.124,0,0,0-6.669,10.991c-2.916,6.179-3.573,14.2-3.681,15.855A103.926,103.926,0,0,0,18.856,45.8,92.555,92.555,0,0,0,9.687,58.364a34.877,34.877,0,0,1,.373-41.018.6.6,0,0,0-.968-.717,36.121,36.121,0,0,0,40.621,55.72A10.584,10.584,0,0,0,66.047,61.021,35.942,35.942,0,0,0,74.264,38.132ZM66.212,17.389c-1.849.614-3.67,1.308-5.422,2.078a98.637,98.637,0,0,0-11.512,6.168,30.247,30.247,0,0,1,2.4-9.987A53.778,53.778,0,0,1,55.53,7.865a35.183,35.183,0,0,1,10.682,9.523Zm-46.45,29.2A104.092,104.092,0,0,1,31.852,34.931a8.358,8.358,0,0,1-1.36,5.006,3.368,3.368,0,0,1-1.6.882,9.207,9.207,0,0,0-3.781,2.276,5.7,5.7,0,0,0-.885,1.457,5.965,5.965,0,0,1-1.28,1.948,3.969,3.969,0,0,1-1.256.568,6.3,6.3,0,0,0-2.873,1.658A8.7,8.7,0,0,0,16.868,52.5c-.356,1.2-.579,1.835-1.386,2.137a4.432,4.432,0,0,1-2.137.286,88.048,88.048,0,0,1,6.418-8.329Zm-9.3,12.82c.608-1.009,1.326-2.156,2.15-3.4a4.846,4.846,0,0,0,1.21.154,5.92,5.92,0,0,0,2.083-.4c1.4-.527,1.751-1.69,2.118-2.921a7.566,7.566,0,0,1,1.68-3.293,5.143,5.143,0,0,1,2.373-1.336,4.826,4.826,0,0,0,1.651-.791,6.861,6.861,0,0,0,1.585-2.341,5.072,5.072,0,0,1,.665-1.144,8.081,8.081,0,0,1,3.336-1.987,4.17,4.17,0,0,0,2.162-1.315,10.015,10.015,0,0,0,1.545-6.647c1.869-1.487,3.041-2.306,3.072-2.327a.6.6,0,0,0,.258-.465c0-.09.487-9.132,3.584-15.695A58.5,58.5,0,0,1,46.807,4.295a34.68,34.68,0,0,1,7.673,2.983,54.94,54.94,0,0,0-3.926,7.93c-2.974,7.6-2.462,11.426-2.439,11.584a.6.6,0,0,0,.348.462.593.593,0,0,0,.248.054.6.6,0,0,0,.329-.1A98.878,98.878,0,0,1,61.275,20.57c1.828-.8,3.734-1.525,5.668-2.155a34.813,34.813,0,0,1,4.507,9.232c-7.481,3.211-19.669,8.919-28.659,15.468a6.5,6.5,0,0,0-3.364-.345c-2.814.6-3.865,2.668-4.632,4.176a3.984,3.984,0,0,1-1,1.493,5.471,5.471,0,0,1-1.588.53,4.935,4.935,0,0,0-2.656,1.261A5.727,5.727,0,0,0,28,53.1a3.339,3.339,0,0,1-.795,1.655,5.8,5.8,0,0,1-1.242.864,6.755,6.755,0,0,0-3.389,3.841,7.748,7.748,0,0,0,.038,5.125c-.893,1.24-1.7,2.411-2.432,3.493a35.235,35.235,0,0,1-9.715-8.669Zm13.061,3.921a6.065,6.065,0,0,1,.172-3.441,5.579,5.579,0,0,1,2.869-3.23,6.9,6.9,0,0,0,1.489-1.054,4.443,4.443,0,0,0,1.105-2.188,4.508,4.508,0,0,1,1.233-2.331,3.782,3.782,0,0,1,2.073-.944,6.62,6.62,0,0,0,1.919-.658,4.442,4.442,0,0,0,1.483-2c.73-1.436,1.557-3.063,3.81-3.545a4.534,4.534,0,0,1,1.887.08c-1.4,1.068-2.707,2.155-3.887,3.255a117.723,117.723,0,0,0-14.155,16.05ZM38.132,73.06a34.7,34.7,0,0,1-16.909-4.38A120.954,120.954,0,0,1,38.5,48.163c8.659-8.076,24.306-15.489,33.288-19.351A34.8,34.8,0,0,1,65.605,59.66,10.607,10.607,0,1,0,48.594,71.442,34.736,34.736,0,0,1,38.132,73.06Zm17.645,0a9.41,9.41,0,1,1,9.409-9.41A9.421,9.421,0,0,1,55.777,73.06Z" transform="translate(-2 -2)" fill="#3a2c60"/>
            <path id="Trazado_1179738" data-name="Trazado 1179738" d="M90.214,93.635a1.757,1.757,0,0,0-1.174.4,1.324,1.324,0,0,0-.47,1.067,1.365,1.365,0,0,0,.018.253l.794,6.323a1.031,1.031,0,0,0,.281.632.809.809,0,0,0,1.1,0,.961.961,0,0,0,.262-.632l.813-6.305a1.317,1.317,0,0,0,.018-.253,1.347,1.347,0,0,0-.47-1.085A1.756,1.756,0,0,0,90.214,93.635Z" transform="translate(-36.437 -38.452)" fill="#3a2c60"/>
            <path id="Trazado_1179739" data-name="Trazado 1179739" d="M90.285,109.954a1.476,1.476,0,0,0-1.1.443,1.639,1.639,0,0,0,0,2.222,1.593,1.593,0,0,0,2.2,0,1.64,1.64,0,0,0,0-2.222A1.478,1.478,0,0,0,90.285,109.954Z" transform="translate(-36.509 -44.944)" fill="#3a2c60"/>
          </g>
        </g>
      </g>
    </g>
  </g>
</svg>
