<svg xmlns="http://www.w3.org/2000/svg" xmlns:xlink="http://www.w3.org/1999/xlink" width="118" height="118" viewBox="0 0 118 118">
  <defs>
    <filter id="Trazado_982547" x="0" y="0" width="118" height="118" filterUnits="userSpaceOnUse">
      <feOffset dy="3" input="SourceAlpha"/>
      <feGaussianBlur stdDeviation="3" result="blur"/>
      <feFlood flood-opacity="0.161"/>
      <feComposite operator="in" in2="blur"/>
      <feComposite in="SourceGraphic"/>
    </filter>
  </defs>
  <g id="Grupo_1230991" data-name="Grupo 1230991" transform="translate(-899 -3795.093)">
    <g id="Grupo_1230871" data-name="Grupo 1230871" transform="translate(908 3801.093)">
      <g id="Grupo_1209739" data-name="Grupo 1209739">
        <g id="Grupo_1209277" data-name="Grupo 1209277" transform="translate(0 0)">
          <g id="Grupo_1208028" data-name="Grupo 1208028">
            <g id="Grupo_1177675" data-name="Grupo 1177675">
              <g id="Grupo_1176928" data-name="Grupo 1176928">
                <g id="Grupo_1172322" data-name="Grupo 1172322">
                  <g id="Grupo_1164700" data-name="Grupo 1164700">
                    <g id="Grupo_1160931" data-name="Grupo 1160931">
                      <g id="Grupo_1160749" data-name="Grupo 1160749">
                        <g id="Grupo_1158891" data-name="Grupo 1158891">
                          <g id="Grupo_1157406" data-name="Grupo 1157406">
                            <g id="Grupo_1155793" data-name="Grupo 1155793">
                              <g id="Grupo_1154704" data-name="Grupo 1154704">
                                <g id="Grupo_1150790" data-name="Grupo 1150790">
                                  <g id="Grupo_1154214" data-name="Grupo 1154214">
                                    <g id="Grupo_1152583" data-name="Grupo 1152583">
                                      <g id="Grupo_1146973" data-name="Grupo 1146973">
                                        <g id="Grupo_1146954" data-name="Grupo 1146954">
                                          <g transform="matrix(1, 0, 0, 1, -9, -6)" filter="url(#Trazado_982547)">
                                            <g id="Trazado_982547-2" data-name="Trazado 982547" transform="translate(9 6)" fill="#fcebe9">
                                              <path d="M 49.99995040893555 98.49974060058594 C 43.45183563232422 98.49974060058594 37.10039138793945 97.21762847900391 31.12205123901367 94.68899536132812 C 25.34687805175781 92.24631500244141 20.15995025634766 88.74908447265625 15.70530796051025 84.29445648193359 C 11.25067901611328 79.83982849121094 7.753450393676758 74.65290069580078 5.310764789581299 68.87775421142578 C 2.782136201858521 62.8994140625 1.500007510185242 56.54796981811523 1.500007510185242 49.99987030029297 C 1.500007510185242 43.4517707824707 2.782136201858521 37.10032653808594 5.310764789581299 31.12198448181152 C 7.753450393676758 25.34684181213379 11.25067901611328 20.15991401672363 15.70530796051025 15.70528411865234 C 20.15995025634766 11.25065612792969 25.34687805175781 7.753427505493164 31.12205123901367 5.310741901397705 C 37.10039138793945 2.782113075256348 43.45183563232422 1.499998927116394 49.99995040893555 1.499998927116394 C 56.54806518554688 1.499998927116394 62.89950942993164 2.782113075256348 68.87785339355469 5.310741901397705 C 74.65302276611328 7.753427505493164 79.83995056152344 11.25065612792969 84.29459381103516 15.70528411865234 C 88.74922180175781 20.15991401672363 92.24645233154297 25.34684181213379 94.68913269042969 31.12198448181152 C 97.21776580810547 37.10032653808594 98.49989318847656 43.4517707824707 98.49989318847656 49.99987030029297 C 98.49989318847656 56.54796981811523 97.21776580810547 62.8994140625 94.68913269042969 68.87775421142578 C 92.24645233154297 74.65290069580078 88.74922180175781 79.83982849121094 84.29459381103516 84.29445648193359 C 79.83995056152344 88.74908447265625 74.65302276611328 92.24631500244141 68.87785339355469 94.68899536132812 C 62.89950942993164 97.21762847900391 56.54806518554688 98.49974060058594 49.99995040893555 98.49974060058594 Z" stroke="none"/>
                                              <path d="M 49.99995040893555 2.999992370605469 C 43.6536750793457 2.999992370605469 37.49882888793945 4.242240905761719 31.70638275146484 6.692237854003906 C 26.11000823974609 9.059303283691406 21.08333587646484 12.44857788085938 16.76598358154297 16.76594543457031 C 12.4486083984375 21.08329772949219 9.059333801269531 26.10996246337891 6.692276000976562 31.70631408691406 C 4.242271423339844 37.49876403808594 3.000015258789062 43.65361022949219 3.000015258789062 49.99987030029297 C 3.000015258789062 56.34613037109375 4.242271423339844 62.5009765625 6.692276000976562 68.29342651367188 C 9.059333801269531 73.88977813720703 12.4486083984375 78.91644287109375 16.76598358154297 83.23379516601562 C 21.08333587646484 87.5511474609375 26.11000823974609 90.94042205810547 31.70638275146484 93.30748748779297 C 37.49882888793945 95.75748443603516 43.6536750793457 96.99973297119141 49.99995040893555 96.99973297119141 C 56.34622573852539 96.99973297119141 62.50107192993164 95.75748443603516 68.29351806640625 93.30748748779297 C 73.889892578125 90.94042205810547 78.91656494140625 87.5511474609375 83.23391723632812 83.23379516601562 C 87.55128479003906 78.91644287109375 90.94056701660156 73.88977813720703 93.30762481689453 68.29342651367188 C 95.75762939453125 62.5009765625 96.99988555908203 56.34613037109375 96.99988555908203 49.99987030029297 C 96.99988555908203 43.65361022949219 95.75762939453125 37.49876403808594 93.30762481689453 31.70631408691406 C 90.94056701660156 26.10996246337891 87.55128479003906 21.08329772949219 83.23391723632812 16.76594543457031 C 78.91656494140625 12.44857788085938 73.889892578125 9.059303283691406 68.29351806640625 6.692237854003906 C 62.50107192993164 4.242240905761719 56.34622573852539 2.999992370605469 49.99995040893555 2.999992370605469 M 49.99995040893555 -7.62939453125e-06 C 77.61415100097656 -7.62939453125e-06 99.99988555908203 22.38570404052734 99.99988555908203 49.99987030029297 C 99.99988555908203 77.61404418945312 77.61415100097656 99.99973297119141 49.99995040893555 99.99973297119141 C 22.38574981689453 99.99973297119141 1.52587890625e-05 77.61404418945312 1.52587890625e-05 49.99987030029297 C 1.52587890625e-05 22.38570404052734 22.38574981689453 -7.62939453125e-06 49.99995040893555 -7.62939453125e-06 Z" stroke="none" fill="#e44b36"/>
                                            </g>
                                          </g>
                                        </g>
                                      </g>
                                    </g>
                                  </g>
                                </g>
                              </g>
                            </g>
                          </g>
                        </g>
                      </g>
                    </g>
                  </g>
                </g>
              </g>
            </g>
          </g>
        </g>
      </g>
    </g>
    <g id="virus_3035143" transform="translate(865.929 3800.003)">
      <rect id="Rectángulo_423890" data-name="Rectángulo 423890" width="39.494" height="68.217" rx="4" transform="translate(72.324 16.981)" fill="#0093b9"/>
      <rect id="Rectángulo_423891" data-name="Rectángulo 423891" width="62.832" height="35.904" rx="5" transform="translate(110.023 19.674) rotate(90)" fill="#2aa2c3"/>
      <rect id="Rectángulo_423892" data-name="Rectángulo 423892" width="11.669" height="6.283" rx="3.142" transform="translate(80.402 30.445)" fill="#85bb40"/>
      <path id="Trazado_1179740" data-name="Trazado 1179740" d="M183.9,354.327l-2.563,2.812a2.339,2.339,0,0,0,3.458,3.152l2.563-2.812Z" transform="translate(-99.658 -288.861)" fill="#bc2f57"/>
      <path id="Trazado_1179741" data-name="Trazado 1179741" d="M304.69,266.619l3.42-1.668a2.339,2.339,0,1,1,2.051,4.2l-3.42,1.668Z" transform="translate(-205.5 -212.35)" fill="#bc2f57"/>
      <path id="Trazado_1179742" data-name="Trazado 1179742" d="M208.918,252.395l-2.643-2.737a9.362,9.362,0,0,0-11.394-13.607l-2.23-3.081a2.339,2.339,0,1,0-3.791,2.743l2.231,3.083a9.359,9.359,0,0,0,11.818,14.113l2.643,2.737a2.34,2.34,0,0,0,3.366-3.251Z" transform="translate(-106.226 -184.421)" fill="#e53d5d"/>
      <path id="Trazado_1179743" data-name="Trazado 1179743" d="M148.259,16H117.848A5.855,5.855,0,0,0,112,21.848V80.331a5.855,5.855,0,0,0,5.848,5.848h30.411a5.855,5.855,0,0,0,5.848-5.848V21.848A5.855,5.855,0,0,0,148.259,16Zm3.509,64.331a3.513,3.513,0,0,1-3.509,3.509H117.848a3.513,3.513,0,0,1-3.509-3.509V21.848a3.513,3.513,0,0,1,3.509-3.509h30.411a3.513,3.513,0,0,1,3.509,3.509Z" transform="translate(-40.982)"/>
      <path id="Trazado_1179744" data-name="Trazado 1179744" d="M160,200h2.339v2.339H160Z" transform="translate(-81.964 -157.098)"/>
      <path id="Trazado_1179745" data-name="Trazado 1179745" d="M328,88h2.339v2.339H328Z" transform="translate(-225.402 -61.473)"/>
      <path id="Trazado_1179746" data-name="Trazado 1179746" d="M336,416h2.339v2.339H336Z" transform="translate(-232.232 -341.517)"/>
      <path id="Trazado_1179747" data-name="Trazado 1179747" d="M152,408h2.339v2.339H152Z" transform="translate(-75.134 -334.687)"/>
      <path id="Trazado_1179748" data-name="Trazado 1179748" d="M193.573,228.975a3.487,3.487,0,0,0-2.681.163l-2.65,1.293a10.556,10.556,0,0,0-3.444-2.261l.661-2.465-2.26-.605-.654,2.442a10.53,10.53,0,0,0-4.654.292l-1.723-2.382a3.509,3.509,0,1,0-5.686,4.114l1.724,2.382a10.55,10.55,0,0,0-1.8,4.815H168V239.1h2.406a10.45,10.45,0,0,0,1.184,3.8l-1.984,2.176a3.509,3.509,0,0,0,2.591,5.872c.055,0,.111,0,.167,0a3.484,3.484,0,0,0,2.43-1.141l1.982-2.174a10.438,10.438,0,0,0,2.921.761V250.8h2.339v-2.406a10.518,10.518,0,0,0,3.2-.883l2.043,2.115a3.486,3.486,0,0,0,2.463,1.071h.063a3.509,3.509,0,0,0,2.523-5.947l-2.043-2.115a10.466,10.466,0,0,0,.681-1.733l2.367.417.406-2.3-2.369-.418q.022-.331.022-.665a10.6,10.6,0,0,0-.07-1.2l2.645-1.291a3.508,3.508,0,0,0-.4-6.471ZM173.064,248.23a1.17,1.17,0,0,1-1.729-1.577l1.625-1.782a10.612,10.612,0,0,0,1.728,1.577Zm14.389-8.528-1.683,1.625,4.875,5.048a1.171,1.171,0,0,1-.029,1.654,1.149,1.149,0,0,1-.833.328,1.162,1.162,0,0,1-.821-.357l-4.875-5.048-1.683,1.625,1.077,1.116a8.188,8.188,0,0,1-9.794-11.7l.907,1.254,1.9-1.371-4.113-5.686a1.17,1.17,0,1,1,1.9-1.371l4.114,5.686,1.9-1.371-.909-1.256a8.19,8.19,0,0,1,9.158,10.936Zm5.49-6.359L190.78,234.4a10.484,10.484,0,0,0-1.03-2.1l2.166-1.057a1.17,1.17,0,1,1,1.026,2.1Z" transform="translate(-88.795 -177.588)"/>
      <path id="Trazado_1179749" data-name="Trazado 1179749" d="M256,327.3h2.339v2.339H256Z" transform="translate(-163.929 -265.783)"/>
      <path id="Trazado_1179750" data-name="Trazado 1179750" d="M224,319.3h2.339v2.339H224Z" transform="translate(-136.607 -258.953)"/>
      <path id="Trazado_1179751" data-name="Trazado 1179751" d="M264,287.3h2.339v2.339H264Z" transform="translate(-170.759 -231.632)"/>
      <path id="Trazado_1179752" data-name="Trazado 1179752" d="M232,48h2.339v2.339H232Z" transform="translate(-143.437 -27.321)"/>
      <path id="Trazado_1179753" data-name="Trazado 1179753" d="M264,48h2.339v2.339H264Z" transform="translate(-170.759 -27.321)"/>
      <path id="Trazado_1179754" data-name="Trazado 1179754" d="M248,448h2.339v2.339H248Z" transform="translate(-157.098 -368.839)"/>
      <path id="Trazado_1179755" data-name="Trazado 1179755" d="M171.884,100.866H178.9a3.509,3.509,0,0,0,0-7.018H168.227a4.653,4.653,0,0,0-.5-1.205l1.761-1.761-1.654-1.654-1.761,1.761a4.653,4.653,0,0,0-1.205-.5V88h-2.339v2.339h-2.339V88h-2.339v2.487a4.653,4.653,0,0,0-1.205.5l-1.761-1.761-1.654,1.654,1.761,1.761a4.653,4.653,0,0,0-.5,1.205H152v2.339h2.487a4.654,4.654,0,0,0,.5,1.205l-1.761,1.761,1.654,1.654,1.761-1.761a4.653,4.653,0,0,0,1.205.5v2.487h2.339V99.7h2.339v2.339h2.339V99.548a4.7,4.7,0,0,0,3.361-3.361H178.9a1.17,1.17,0,0,1,0,2.339h-7.018a3.509,3.509,0,1,0,0,7.018h10.527v-2.339H171.884a1.17,1.17,0,0,1,0-2.339ZM163.7,97.357h-4.679a2.339,2.339,0,1,1,0-4.679H163.7a2.339,2.339,0,1,1,0,4.679Z" transform="translate(-75.134 -61.473)"/>
      <path id="Trazado_1179756" data-name="Trazado 1179756" d="M418.607,70.235l1.854-2.595a1.17,1.17,0,0,0,0-1.36l-1.854-2.595,1.854-2.6a1.17,1.17,0,0,0,0-1.36l-1.854-2.6,1.854-2.6a1.17,1.17,0,0,0,0-1.36l-1.854-2.6,1.854-2.6a1.17,1.17,0,0,0,0-1.36l-2.339-3.275-1.9,1.36,1.854,2.595-1.854,2.6a1.17,1.17,0,0,0,0,1.36l1.854,2.6-1.854,2.6a1.17,1.17,0,0,0,0,1.36l1.854,2.6-1.854,2.6a1.17,1.17,0,0,0,0,1.36l1.854,2.595-1.854,2.595a1.17,1.17,0,0,0,0,1.36l1.854,2.594-1.854,2.6,1.9,1.36,2.339-3.275a1.17,1.17,0,0,0,0-1.36Z" transform="translate(-300.535 -23.355)"/>
      <path id="Trazado_1179757" data-name="Trazado 1179757" d="M68.46,241.9,66.607,239.3l1.854-2.6-1.9-1.36-2.339,3.275a1.17,1.17,0,0,0,0,1.36l1.853,2.594-1.853,2.595a1.17,1.17,0,0,0,0,1.36l1.854,2.595-1.854,2.6a1.17,1.17,0,0,0,0,1.36l1.854,2.6-1.854,2.6a1.17,1.17,0,0,0,0,1.36l1.854,2.6-1.854,2.6a1.17,1.17,0,0,0,0,1.36l2.339,3.275,1.9-1.36-1.854-2.595,1.854-2.6a1.17,1.17,0,0,0,0-1.36l-1.854-2.6,1.854-2.6a1.17,1.17,0,0,0,0-1.36l-1.854-2.6,1.854-2.6a1.17,1.17,0,0,0,0-1.36l-1.854-2.595,1.854-2.595a1.17,1.17,0,0,0,0-1.36Z" transform="translate(0 -187.28)"/>
    </g>
  </g>
</svg>
