<svg xmlns="http://www.w3.org/2000/svg" xmlns:xlink="http://www.w3.org/1999/xlink" width="118" height="118" viewBox="0 0 118 118">
  <defs>
    <filter id="Trazado_982547" x="0" y="0" width="118" height="118" filterUnits="userSpaceOnUse">
      <feOffset dy="3" input="SourceAlpha"/>
      <feGaussianBlur stdDeviation="3" result="blur"/>
      <feFlood flood-opacity="0.161"/>
      <feComposite operator="in" in2="blur"/>
      <feComposite in="SourceGraphic"/>
    </filter>
  </defs>
  <g id="Grupo_1231002" data-name="Grupo 1231002" transform="translate(-1214 -3795.093)">
    <g id="Grupo_1230872" data-name="Grupo 1230872" transform="translate(1223 3801.093)">
      <g id="Grupo_1209739" data-name="Grupo 1209739">
        <g id="Grupo_1209277" data-name="Grupo 1209277" transform="translate(0 0)">
          <g id="Grupo_1208028" data-name="Grupo 1208028">
            <g id="Grupo_1177675" data-name="Grupo 1177675">
              <g id="Grupo_1176928" data-name="Grupo 1176928">
                <g id="Grupo_1172322" data-name="Grupo 1172322">
                  <g id="Grupo_1164700" data-name="Grupo 1164700">
                    <g id="Grupo_1160931" data-name="Grupo 1160931">
                      <g id="Grupo_1160749" data-name="Grupo 1160749">
                        <g id="Grupo_1158891" data-name="Grupo 1158891">
                          <g id="Grupo_1157406" data-name="Grupo 1157406">
                            <g id="Grupo_1155793" data-name="Grupo 1155793">
                              <g id="Grupo_1154704" data-name="Grupo 1154704">
                                <g id="Grupo_1150790" data-name="Grupo 1150790">
                                  <g id="Grupo_1154214" data-name="Grupo 1154214">
                                    <g id="Grupo_1152583" data-name="Grupo 1152583">
                                      <g id="Grupo_1146973" data-name="Grupo 1146973">
                                        <g id="Grupo_1146954" data-name="Grupo 1146954">
                                          <g transform="matrix(1, 0, 0, 1, -9, -6)" filter="url(#Trazado_982547)">
                                            <g id="Trazado_982547-2" data-name="Trazado 982547" transform="translate(9 6)" fill="#fcebe9">
                                              <path d="M 49.99995040893555 98.49974060058594 C 43.45183563232422 98.49974060058594 37.10039138793945 97.21762847900391 31.12205123901367 94.68899536132812 C 25.34687805175781 92.24631500244141 20.15995025634766 88.74908447265625 15.70530796051025 84.29445648193359 C 11.25067901611328 79.83982849121094 7.753450393676758 74.65290069580078 5.310764789581299 68.87775421142578 C 2.782136201858521 62.8994140625 1.500007510185242 56.54796981811523 1.500007510185242 49.99987030029297 C 1.500007510185242 43.4517707824707 2.782136201858521 37.10032653808594 5.310764789581299 31.12198448181152 C 7.753450393676758 25.34684181213379 11.25067901611328 20.15991401672363 15.70530796051025 15.70528411865234 C 20.15995025634766 11.25065612792969 25.34687805175781 7.753427505493164 31.12205123901367 5.310741901397705 C 37.10039138793945 2.782113075256348 43.45183563232422 1.499998927116394 49.99995040893555 1.499998927116394 C 56.54806518554688 1.499998927116394 62.89950942993164 2.782113075256348 68.87785339355469 5.310741901397705 C 74.65302276611328 7.753427505493164 79.83995056152344 11.25065612792969 84.29459381103516 15.70528411865234 C 88.74922180175781 20.15991401672363 92.24645233154297 25.34684181213379 94.68913269042969 31.12198448181152 C 97.21776580810547 37.10032653808594 98.49989318847656 43.4517707824707 98.49989318847656 49.99987030029297 C 98.49989318847656 56.54796981811523 97.21776580810547 62.8994140625 94.68913269042969 68.87775421142578 C 92.24645233154297 74.65290069580078 88.74922180175781 79.83982849121094 84.29459381103516 84.29445648193359 C 79.83995056152344 88.74908447265625 74.65302276611328 92.24631500244141 68.87785339355469 94.68899536132812 C 62.89950942993164 97.21762847900391 56.54806518554688 98.49974060058594 49.99995040893555 98.49974060058594 Z" stroke="none"/>
                                              <path d="M 49.99995040893555 2.999992370605469 C 43.6536750793457 2.999992370605469 37.49882888793945 4.242240905761719 31.70638275146484 6.692237854003906 C 26.11000823974609 9.059303283691406 21.08333587646484 12.44857788085938 16.76598358154297 16.76594543457031 C 12.4486083984375 21.08329772949219 9.059333801269531 26.10996246337891 6.692276000976562 31.70631408691406 C 4.242271423339844 37.49876403808594 3.000015258789062 43.65361022949219 3.000015258789062 49.99987030029297 C 3.000015258789062 56.34613037109375 4.242271423339844 62.5009765625 6.692276000976562 68.29342651367188 C 9.059333801269531 73.88977813720703 12.4486083984375 78.91644287109375 16.76598358154297 83.23379516601562 C 21.08333587646484 87.5511474609375 26.11000823974609 90.94042205810547 31.70638275146484 93.30748748779297 C 37.49882888793945 95.75748443603516 43.6536750793457 96.99973297119141 49.99995040893555 96.99973297119141 C 56.34622573852539 96.99973297119141 62.50107192993164 95.75748443603516 68.29351806640625 93.30748748779297 C 73.889892578125 90.94042205810547 78.91656494140625 87.5511474609375 83.23391723632812 83.23379516601562 C 87.55128479003906 78.91644287109375 90.94056701660156 73.88977813720703 93.30762481689453 68.29342651367188 C 95.75762939453125 62.5009765625 96.99988555908203 56.34613037109375 96.99988555908203 49.99987030029297 C 96.99988555908203 43.65361022949219 95.75762939453125 37.49876403808594 93.30762481689453 31.70631408691406 C 90.94056701660156 26.10996246337891 87.55128479003906 21.08329772949219 83.23391723632812 16.76594543457031 C 78.91656494140625 12.44857788085938 73.889892578125 9.059303283691406 68.29351806640625 6.692237854003906 C 62.50107192993164 4.242240905761719 56.34622573852539 2.999992370605469 49.99995040893555 2.999992370605469 M 49.99995040893555 -7.62939453125e-06 C 77.61415100097656 -7.62939453125e-06 99.99988555908203 22.38570404052734 99.99988555908203 49.99987030029297 C 99.99988555908203 77.61404418945312 77.61415100097656 99.99973297119141 49.99995040893555 99.99973297119141 C 22.38574981689453 99.99973297119141 1.52587890625e-05 77.61404418945312 1.52587890625e-05 49.99987030029297 C 1.52587890625e-05 22.38570404052734 22.38574981689453 -7.62939453125e-06 49.99995040893555 -7.62939453125e-06 Z" stroke="none" fill="#e44b36"/>
                                            </g>
                                          </g>
                                        </g>
                                      </g>
                                    </g>
                                  </g>
                                </g>
                              </g>
                            </g>
                          </g>
                        </g>
                      </g>
                    </g>
                  </g>
                </g>
              </g>
            </g>
          </g>
        </g>
      </g>
    </g>
    <g id="tactic_6857352" transform="translate(1246.315 3818.004)">
      <g id="Grupo_1231000" data-name="Grupo 1231000" transform="translate(1.067 1.067)">
        <g id="Grupo_1230992" data-name="Grupo 1230992" transform="translate(0 10.674)">
          <path id="Trazado_1179758" data-name="Trazado 1179758" d="M8,88v40.561a12.809,12.809,0,0,0,12.809,12.809H46.426a12.809,12.809,0,0,0,12.809-12.809V88Z" transform="translate(-8 -88)" fill="#b4dd7f"/>
        </g>
        <g id="Grupo_1230993" data-name="Grupo 1230993" transform="translate(13.876 10.674)">
          <path id="Trazado_1179759" data-name="Trazado 1179759" d="M135.483,88v35.224a11.741,11.741,0,0,0-18.151-9.837A5.336,5.336,0,0,0,112,108.28V88h1.067a10.675,10.675,0,0,0,5.825,9.512,5.337,5.337,0,1,0,9.7,0A10.675,10.675,0,0,0,134.415,88Z" transform="translate(-112 -88)" fill="#e6e9ed"/>
        </g>
        <g id="Grupo_1230994" data-name="Grupo 1230994" transform="translate(13.876 34.156)">
          <path id="Trazado_1179760" data-name="Trazado 1179760" d="M135.483,275.741c0,.348-.016.694-.045,1.034A5.337,5.337,0,1,0,129.8,285.8a11.745,11.745,0,0,1-16.97-14.394,5.338,5.338,0,0,0,4.511-5.273c0-.077,0-.155-.005-.231a11.741,11.741,0,0,1,18.151,9.837Z" transform="translate(-112 -264)" fill="#aab2bd"/>
        </g>
        <g id="Grupo_1230995" data-name="Grupo 1230995" transform="translate(14.943)">
          <path id="Trazado_1179761" data-name="Trazado 1179761" d="M135.522,28.186a10.676,10.676,0,1,1,5.825-9.512A10.628,10.628,0,0,1,135.522,28.186Z" transform="translate(-120 -8)" fill="#fcd770"/>
        </g>
        <g id="Grupo_1230996" data-name="Grupo 1230996" transform="translate(18.505 3.574)">
          <ellipse id="Elipse_12878" data-name="Elipse 12878" cx="7.112" cy="6.401" rx="7.112" ry="6.401" transform="translate(0)" fill="#ffeaa7"/>
        </g>
        <g id="Grupo_1230997" data-name="Grupo 1230997" transform="translate(28.819 45.898)">
          <path id="Trazado_1179762" data-name="Trazado 1179762" d="M226.853,362.06a5.337,5.337,0,1,1,2.484.614A5.333,5.333,0,0,1,226.853,362.06Z" transform="translate(-224 -352)" fill="#ff826e"/>
        </g>
        <g id="Grupo_1230998" data-name="Grupo 1230998" transform="translate(20.28 20.186)">
          <path id="Trazado_1179763" data-name="Trazado 1179763" d="M170.186,159.29a5.337,5.337,0,1,1-9.7,0,10.7,10.7,0,0,0,9.7,0Z" transform="translate(-160 -159.29)" fill="#ff826e"/>
        </g>
        <g id="Grupo_1230999" data-name="Grupo 1230999" transform="translate(8.539 30.954)">
          <path id="Trazado_1179764" data-name="Trazado 1179764" d="M82.669,245.106c0,.076.005.153.005.231a5.338,5.338,0,0,1-4.511,5.273,5.279,5.279,0,0,1-.826.064,5.337,5.337,0,1,1,5.332-5.568Z" transform="translate(-72 -240)" fill="#ff826e"/>
        </g>
      </g>
      <g id="Grupo_1231001" data-name="Grupo 1231001">
        <path id="Trazado_1179765" data-name="Trazado 1179765" d="M151.472,46.943A7.472,7.472,0,1,0,144,39.472,7.48,7.48,0,0,0,151.472,46.943Zm0-12.809a5.337,5.337,0,1,1-5.337,5.337A5.343,5.343,0,0,1,151.472,34.135Z" transform="translate(-124.787 -27.73)"/>
        <path id="Trazado_1179766" data-name="Trazado 1179766" d="M38.377,10.674a11.741,11.741,0,0,0-23.385,0H0V52.3A13.892,13.892,0,0,0,13.876,66.178H39.493A13.892,13.892,0,0,0,53.369,52.3V10.674ZM30.882,22.706a4.27,4.27,0,1,1-8.4,0,11.736,11.736,0,0,0,8.4,0ZM22.111,27.96l-3.69,4.025a6.363,6.363,0,0,0-2.41-.94V16.63a11.819,11.819,0,0,0,4.513,5.1,6.393,6.393,0,0,0,1.587,6.227Zm4.573,8.332a10.686,10.686,0,0,1,10.648,9.965A6.386,6.386,0,0,0,30.777,47.7L20.658,40.244a6.357,6.357,0,0,0,.678-2.515,10.63,10.63,0,0,1,5.348-1.437Zm-7.295,5.67L24.733,45.9H16.064a10.581,10.581,0,0,1,.5-2.344,6.4,6.4,0,0,0,2.821-1.592Zm-4.447-8.872a4.27,4.27,0,1,1-4.27,4.27A4.274,4.274,0,0,1,14.943,33.089ZM27.63,48.032l1.879,1.384a6.388,6.388,0,0,0,1.209,7.431,10.675,10.675,0,0,1-14.654-8.816Zm3.324,4.27a4.27,4.27,0,1,1,4.27,4.27A4.274,4.274,0,0,1,30.954,52.3Zm-4.27-18.146a12.767,12.767,0,0,0-5.625,1.3,6.392,6.392,0,0,0-1.065-2.03l3.855-4.205a6.4,6.4,0,0,0,9-7.491,11.82,11.82,0,0,0,4.513-5.1V39.893a12.807,12.807,0,0,0-10.674-5.737Zm0-32.022a9.606,9.606,0,1,1-9.606,9.606A9.617,9.617,0,0,1,26.685,2.135ZM51.235,52.3A11.755,11.755,0,0,1,39.493,64.043H13.876A11.755,11.755,0,0,1,2.135,52.3V12.809H13.876V31.045a6.4,6.4,0,0,0,.416,12.685,12.809,12.809,0,0,0,18.5,14.495,6.4,6.4,0,0,0,6.69-10.7c.008-.188.013-.374.013-.558V12.809H51.235Z"/>
      </g>
    </g>
  </g>
</svg>
