<svg xmlns="http://www.w3.org/2000/svg" xmlns:xlink="http://www.w3.org/1999/xlink" width="108" height="108" viewBox="0 0 108 108">
  <defs>
    <filter id="Trazado_904820" x="0" y="0" width="108" height="108" filterUnits="userSpaceOnUse">
      <feOffset dy="3" input="SourceAlpha"/>
      <feGaussianBlur stdDeviation="3" result="blur"/>
      <feFlood flood-opacity="0.161"/>
      <feComposite operator="in" in2="blur"/>
      <feComposite in="SourceGraphic"/>
    </filter>
  </defs>
  <g id="Grupo_1230876" data-name="Grupo 1230876" transform="translate(-620 -609)">
    <g id="Grupo_1209884" data-name="Grupo 1209884" transform="translate(0 -108)">
      <g id="Grupo_1230498" data-name="Grupo 1230498" transform="translate(629 723)">
        <g id="Grupo_1230365" data-name="Grupo 1230365" transform="translate(0 0)">
          <g id="Grupo_1229419" data-name="Grupo 1229419" transform="translate(0)">
            <g id="Grupo_1211546" data-name="Grupo 1211546">
              <g id="Grupo_1173585" data-name="Grupo 1173585">
                <g id="Grupo_1173428" data-name="Grupo 1173428">
                  <g id="Grupo_1171958" data-name="Grupo 1171958">
                    <g id="Grupo_1167341" data-name="Grupo 1167341">
                      <g id="Grupo_1166792" data-name="Grupo 1166792">
                        <g transform="matrix(1, 0, 0, 1, -9, -6)" filter="url(#Trazado_904820)">
                          <g id="Trazado_904820-2" data-name="Trazado 904820" transform="translate(9 6)" fill="#eaf5f4">
                            <path d="M 44.99999618530273 88.50003051757812 C 39.12687301635742 88.50003051757812 33.43022155761719 87.35010528564453 28.06829643249512 85.08219146728516 C 22.88852119445801 82.89134216308594 18.23629570007324 79.75461578369141 14.24084663391113 75.75916290283203 C 10.24540901184082 71.76371765136719 7.108683586120605 67.11148834228516 4.917821407318115 61.93172836303711 C 2.649921178817749 56.56978988647461 1.499996185302734 50.87314987182617 1.499996185302734 45.00002670288086 C 1.499996185302734 39.12690353393555 2.649921178817749 33.43025207519531 4.917821407318115 28.06832695007324 C 7.108683586120605 22.88855171203613 10.24540901184082 18.23632621765137 14.24084663391113 14.24087715148926 C 18.23629570007324 10.24543952941895 22.88852119445801 7.10871410369873 28.06829643249512 4.91785192489624 C 33.43022155761719 2.649951696395874 39.12687301635742 1.500026702880859 44.99999618530273 1.500026702880859 C 50.87311935424805 1.500026702880859 56.56977081298828 2.649951696395874 61.93169784545898 4.91785192489624 C 67.11147308349609 7.10871410369873 71.76369476318359 10.24543952941895 75.75914764404297 14.24087715148926 C 79.75458526611328 18.23632621765137 82.89131164550781 22.88855171203613 85.08216857910156 28.06832695007324 C 87.35007476806641 33.43025207519531 88.5 39.12690353393555 88.5 45.00002670288086 C 88.5 50.87314987182617 87.35007476806641 56.56978988647461 85.08216857910156 61.93172836303711 C 82.89131164550781 67.11148834228516 79.75458526611328 71.76371765136719 75.75914764404297 75.75916290283203 C 71.76369476318359 79.75461578369141 67.11147308349609 82.89134216308594 61.93169784545898 85.08219146728516 C 56.56977081298828 87.35010528564453 50.87311935424805 88.50003051757812 44.99999618530273 88.50003051757812 Z" stroke="none"/>
                            <path d="M 44.99999618530273 3.000022888183594 C 39.32870864868164 3.000022888183594 33.82865142822266 4.110084533691406 28.65262603759766 6.299369812011719 C 23.65165710449219 8.414596557617188 19.15968322753906 11.44336700439453 15.301513671875 15.30154418945312 C 11.44333648681641 19.15971374511719 8.414566040039062 23.65168762207031 6.299339294433594 28.65265655517578 C 4.110054016113281 33.82868194580078 2.999992370605469 39.32873916625977 2.999992370605469 45.00002670288086 C 2.999992370605469 50.67131423950195 4.110054016113281 56.17135620117188 6.299339294433594 61.34739685058594 C 8.414566040039062 66.34837341308594 11.44333648681641 70.84032440185547 15.301513671875 74.69850921630859 C 19.15968322753906 78.55668640136719 23.65165710449219 81.58545684814453 28.65262603759766 83.70068359375 C 33.82865142822266 85.88996887207031 39.32870864868164 87.00003051757812 44.99999618530273 87.00003051757812 C 50.67128372192383 87.00003051757812 56.17134094238281 85.88996887207031 61.34736633300781 83.70068359375 C 66.34834289550781 81.58545684814453 70.84030914306641 78.55668640136719 74.69847869873047 74.69850921630859 C 78.55665588378906 70.84032440185547 81.58542633056641 66.34837341308594 83.70065307617188 61.34739685058594 C 85.88993835449219 56.17135620117188 87 50.67131423950195 87 45.00002670288086 C 87 39.32873916625977 85.88993835449219 33.82868194580078 83.70065307617188 28.65265655517578 C 81.58542633056641 23.65168762207031 78.55665588378906 19.15971374511719 74.69847869873047 15.30154418945312 C 70.84030914306641 11.44336700439453 66.34834289550781 8.414596557617188 61.34736633300781 6.299369812011719 C 56.17134094238281 4.110084533691406 50.67128372192383 3.000022888183594 44.99999618530273 3.000022888183594 M 44.99999618530273 2.288818359375e-05 C 69.85281372070312 2.288818359375e-05 90 20.14720916748047 90 45.00002670288086 C 90 69.85282897949219 69.85281372070312 90.00003051757812 44.99999618530273 90.00003051757812 C 20.14717864990234 90.00003051757812 -7.62939453125e-06 69.85282897949219 -7.62939453125e-06 45.00002670288086 C -7.62939453125e-06 20.14720916748047 20.14717864990234 2.288818359375e-05 44.99999618530273 2.288818359375e-05 Z" stroke="none" fill="#41a599"/>
                          </g>
                        </g>
                      </g>
                    </g>
                  </g>
                </g>
              </g>
            </g>
          </g>
        </g>
      </g>
    </g>
    <g id="paramedic_5745511" transform="translate(569.526 626.452)">
      <path id="Trazado_1179465" data-name="Trazado 1179465" d="M126.3,46.191l-3.076-.77a4.523,4.523,0,0,1-3.425-4.387V39.482a4.432,4.432,0,0,1,.845-2.632,11.875,11.875,0,0,0,2.3-6.3l.618-9.682a12.563,12.563,0,1,0-25.074,0l.618,9.682a11.875,11.875,0,0,0,2.3,6.3,4.432,4.432,0,0,1,.845,2.632v1.552a4.523,4.523,0,0,1-3.425,4.387l-3.077.77a7.71,7.71,0,0,0-5.84,7.48V70.562a.127.127,0,0,0,.127.127h41.981a.127.127,0,0,0,.127-.127V53.671a7.71,7.71,0,0,0-5.84-7.48Z" transform="translate(-6.547 -6.546)" fill="#fed402"/>
      <path id="Trazado_1179466" data-name="Trazado 1179466" d="M126.3,309.538l-1.327-.332a7.7,7.7,0,0,1,2.081,5.269v7.992a9.026,9.026,0,0,1-9.026,9.026H89.9v2.416a.127.127,0,0,0,.127.127H132.01a.127.127,0,0,0,.127-.127V317.018A7.71,7.71,0,0,0,126.3,309.538Z" transform="translate(-6.546 -269.893)" fill="#fac600"/>
      <path id="Trazado_1179467" data-name="Trazado 1179467" d="M203.953,92.505l.326-5.11a7.007,7.007,0,0,0-2.8-5.657,10.831,10.831,0,0,0-12.016,0,7.007,7.007,0,0,0-2.8,5.657l.326,5.109Z" transform="translate(-90.998 -69.758)" fill="#ffeee6"/>
      <path id="Trazado_1179468" data-name="Trazado 1179468" d="M275.273,82.929a10.816,10.816,0,0,0-4.076-1.645,7.092,7.092,0,0,1,1.789,4.76l-.326,5.11-.066,1.028a8.409,8.409,0,0,1-.236,1.515h5.388l.326-5.11A7.006,7.006,0,0,0,275.273,82.929Z" transform="translate(-164.792 -70.95)" fill="#ffdfcf"/>
      <path id="Trazado_1179469" data-name="Trazado 1179469" d="M167.819,114.02l1.407-.469a6.023,6.023,0,0,1,3.81,0l1.407.469a12.7,12.7,0,0,0,4.014.651H179.6a3.69,3.69,0,0,0,3.682-3.456c.083-1.3.149-2.325.2-3.147a3.689,3.689,0,0,0-3.681-3.928H162.458a3.688,3.688,0,0,0-3.681,3.928c.054.822.12,1.851.2,3.147a3.69,3.69,0,0,0,3.682,3.456H163.8a12.689,12.689,0,0,0,4.014-.651Z" transform="translate(-66.657 -90.9)" fill="#62dbfb"/>
      <path id="Trazado_1179470" data-name="Trazado 1179470" d="M188.155,104.141a7.009,7.009,0,0,0-1.491,4.4l.326,5.109h6.292l.284-.095a6.023,6.023,0,0,1,3.81,0l.285.095h6.292l.326-5.11a7.009,7.009,0,0,0-1.491-4.4Z" transform="translate(-90.998 -90.9)" fill="#01d0fb"/>
      <path id="Trazado_1179471" data-name="Trazado 1179471" d="M280.74,104.141a5.624,5.624,0,0,1,.222,1.854l-.326,5.11-.066,1.028a8.409,8.409,0,0,1-.236,1.515h5.388l.326-5.11a7.009,7.009,0,0,0-1.491-4.4Z" transform="translate(-172.767 -90.9)" fill="#01c0fa"/>
      <path id="Trazado_1179472" data-name="Trazado 1179472" d="M202.06,155.474a9.593,9.593,0,0,0-8.579,0l-4.191,2.1.058.9a8.434,8.434,0,0,0,16.84.125l.066-1.028Z" transform="translate(-93.297 -134.823)" fill="#05e39c"/>
      <path id="Trazado_1179473" data-name="Trazado 1179473" d="M218.784,159.731a9.609,9.609,0,0,0-.9-.393l-.062.973a8.45,8.45,0,0,1-8.416,7.9,8.363,8.363,0,0,1-.96-.055,8.343,8.343,0,0,0,6.046,2.6,8.45,8.45,0,0,0,8.416-7.9l.066-1.028Z" transform="translate(-110.021 -139.08)" fill="#0ed290"/>
      <path id="Trazado_1179474" data-name="Trazado 1179474" d="M206.186,158.6l.065-1.025-4.193-2.1a9.593,9.593,0,0,0-8.579,0l-4.191,2.1.058.9q0,.061.009.122h1.089a12.7,12.7,0,0,0,4.014-.651l1.407-.469a6.023,6.023,0,0,1,3.81,0l1.407.469a12.7,12.7,0,0,0,4.014.651h1.09Z" transform="translate(-93.296 -134.823)" fill="#08a9f1"/>
      <path id="Trazado_1179475" data-name="Trazado 1179475" d="M280.12,159.336a12.588,12.588,0,0,1-.3,2.488q-.035.14-.075.278l.292.1a12.7,12.7,0,0,0,4.014.651h1.09l.065-1.025-4.193-2.1A9.573,9.573,0,0,0,280.12,159.336Z" transform="translate(-172.255 -139.078)" fill="#0290cf"/>
      <path id="Trazado_1179476" data-name="Trazado 1179476" d="M235.41,276.3h-7.021V245.975a2.913,2.913,0,0,1,2.913-2.913h4.108V276.3Z" transform="translate(-127.426 -212.159)" fill="#fee45a"/>
      <path id="Trazado_1179477" data-name="Trazado 1179477" d="M228.389,484.5h7.021v2.543h-7.021Z" transform="translate(-127.426 -422.9)" fill="#fedf30"/>
      <path id="Trazado_1179478" data-name="Trazado 1179478" d="M119.982,38.72l-3.076-.77a3.564,3.564,0,0,1-2.7-3.462V32.935a3.6,3.6,0,0,1,.818-2.287,12.829,12.829,0,0,0,2.324-6.59l.618-9.682A13.517,13.517,0,0,0,96.689,2.466a.954.954,0,0,0,1.1,1.559,11.611,11.611,0,0,1,18.295,9.309,4.663,4.663,0,0,0-2.936-1.047h-.9a6.275,6.275,0,0,0-1.233-1.1,11.753,11.753,0,0,0-13.073,0,6.274,6.274,0,0,0-1.233,1.1h-.9a4.663,4.663,0,0,0-2.937,1.047,11.4,11.4,0,0,1,2.015-6.361.954.954,0,1,0-1.572-1.08,13.334,13.334,0,0,0-2.323,8.484l.618,9.682a12.87,12.87,0,0,0,2.55,6.906,3.519,3.519,0,0,1,.591,1.97v1.552a3.564,3.564,0,0,1-2.7,3.462l-2.982.746c-.032.008-.063.017-.093.026v0a8.651,8.651,0,0,0-6.562,8.4v16.89A1.082,1.082,0,0,0,83.483,65.1h41.981a1.082,1.082,0,0,0,1.081-1.081V47.124A8.651,8.651,0,0,0,119.982,38.72Zm-4.84-23.66a2.708,2.708,0,0,1,.733,2.047q0,.023,0,.047l-.193,3.028q-.005.037-.008.074a2.744,2.744,0,0,1-1.756,2.383l.315-4.94a7.322,7.322,0,0,0-.742-3.483A2.706,2.706,0,0,1,115.143,15.059Zm-3.84-.865a5.89,5.89,0,0,1,1.027,3.383l-.234,3.674L109.189,19.8a10.6,10.6,0,0,0-9.432,0l-2.9,1.452-.234-3.674a5.89,5.89,0,0,1,1.027-3.383ZM100.609,21.5a8.641,8.641,0,0,1,3.814-.907v.795a6.984,6.984,0,0,0-2.156.355l-1.407.469a11.711,11.711,0,0,1-2.811.568Zm5.721-.707a8.574,8.574,0,0,1,2.006.707l2.56,1.28a11.719,11.719,0,0,1-2.81-.568l-1.407-.469q-.173-.058-.349-.106Zm2.812-8.51H99.8A9.843,9.843,0,0,1,109.142,12.287ZM93.8,15.059a2.706,2.706,0,0,1,1.653-.844,7.322,7.322,0,0,0-.742,3.483l.315,4.94a2.744,2.744,0,0,1-1.756-2.383c0-.025,0-.05-.008-.074l-.193-3.028c0-.016,0-.031,0-.047A2.707,2.707,0,0,1,93.8,15.059ZM84.309,47.124a6.746,6.746,0,0,1,5.118-6.554h0l1.277-.32,1.8-.449a5.469,5.469,0,0,0,4.147-5.313V33.481l.062.047a.954.954,0,1,0,1.149-1.522A10.979,10.979,0,0,1,93.509,24a4.621,4.621,0,0,0,1.7.661,9.511,9.511,0,0,0,5.388,7.119,3.843,3.843,0,0,0-.583,2.041v5.929a.954.954,0,1,0,1.907,0V33.816a1.962,1.962,0,0,1,1.959-1.959h3.154V48.894a13,13,0,0,1-5.114,0V44.2a.954.954,0,1,0-1.907,0V48.36a13.09,13.09,0,0,1-3.735-2.1.954.954,0,1,0-1.195,1.487,15.013,15.013,0,0,0,4.93,2.624V63.189H91.385v-5a18.289,18.289,0,0,0-.94-5.794L89.581,49.8a.954.954,0,1,0-1.809.6l.864,2.592a16.381,16.381,0,0,1,.842,5.191v5H84.309Zm22.721,3.709V63.189h-5.114V50.833A14.884,14.884,0,0,0,107.03,50.833Zm17.607,12.355h-5.17v-5a16.39,16.39,0,0,1,.843-5.194l.864-2.59a.954.954,0,1,0-1.809-.6l-.864,2.59a18.287,18.287,0,0,0-.942,5.8v5h-8.623V50.372a15.009,15.009,0,0,0,4.937-2.629.954.954,0,0,0-1.2-1.486,13.081,13.081,0,0,1-3.741,2.1V31.491a9.418,9.418,0,0,0,2.129-1.58.954.954,0,0,0-1.34-1.357,7.51,7.51,0,0,1-1.959,1.4h-3.892a3.843,3.843,0,0,0-1.709.4,7.573,7.573,0,0,1-5.008-5.622,13.624,13.624,0,0,0,4.305-.7l1.185-.4a.954.954,0,0,0,.922,1.2h.243a2.519,2.519,0,0,0,2.2-1.293l1.471.49a13.626,13.626,0,0,0,4.32.7q-.046.225-.1.446a.954.954,0,0,0,1.842.494,9.332,9.332,0,0,0,.212-1.011A4.621,4.621,0,0,0,115.437,24a10.976,10.976,0,0,1-4.353,8.011.954.954,0,1,0,1.15,1.521l.061-.046v1.006a5.469,5.469,0,0,0,4.147,5.313l3.077.77a6.746,6.746,0,0,1,5.118,6.554Z" transform="translate(0 0)"/>
      <path id="Trazado_1179479" data-name="Trazado 1179479" d="M166.256,402.5a17.074,17.074,0,0,0,4.164,4.342.954.954,0,0,0,1.123-1.541,15.18,15.18,0,0,1-3.7-3.859l-.432-.647a.954.954,0,0,0-1.587,1.058Z" transform="translate(-72.676 -349.464)"/>
      <path id="Trazado_1179480" data-name="Trazado 1179480" d="M304.853,400.526a.953.953,0,0,0-1.322.264l-.432.647a15.186,15.186,0,0,1-3.426,3.653.954.954,0,0,0,1.158,1.516,17.1,17.1,0,0,0,3.855-4.111l.432-.647A.954.954,0,0,0,304.853,400.526Z" transform="translate(-189.32 -349.463)"/>
      <path id="Trazado_1179481" data-name="Trazado 1179481" d="M196.877,32.119a.954.954,0,0,0,1.348-.043,8.1,8.1,0,0,1,11.812,0,.954.954,0,1,0,1.391-1.3,10.006,10.006,0,0,0-14.594,0A.954.954,0,0,0,196.877,32.119Z" transform="translate(-99.658 -24.101)"/>
    </g>
  </g>
</svg>
