<svg xmlns="http://www.w3.org/2000/svg" xmlns:xlink="http://www.w3.org/1999/xlink" width="108" height="108" viewBox="0 0 108 108">
  <defs>
    <filter id="Trazado_904820" x="0" y="0" width="108" height="108" filterUnits="userSpaceOnUse">
      <feOffset dy="3" input="SourceAlpha"/>
      <feGaussianBlur stdDeviation="3" result="blur"/>
      <feFlood flood-opacity="0.161"/>
      <feComposite operator="in" in2="blur"/>
      <feComposite in="SourceGraphic"/>
    </filter>
  </defs>
  <g id="Grupo_1230878" data-name="Grupo 1230878" transform="translate(-200 -1218.035)">
    <g id="Grupo_1230499" data-name="Grupo 1230499" transform="translate(209 1224.035)">
      <g id="Grupo_1173585" data-name="Grupo 1173585" transform="translate(0 0)">
        <g id="Grupo_1173428" data-name="Grupo 1173428">
          <g id="Grupo_1171958" data-name="Grupo 1171958">
            <g id="Grupo_1167341" data-name="Grupo 1167341">
              <g id="Grupo_1166792" data-name="Grupo 1166792">
                <g transform="matrix(1, 0, 0, 1, -9, -6)" filter="url(#Trazado_904820)">
                  <g id="Trazado_904820-2" data-name="Trazado 904820" transform="translate(9 6)" fill="#fcebe9">
                    <path d="M 44.99999618530273 88.5 C 39.12687301635742 88.5 33.43022155761719 87.35007476806641 28.06829643249512 85.08216094970703 C 22.88852119445801 82.89131164550781 18.23629570007324 79.75458526611328 14.24084663391113 75.75914001464844 C 10.24540901184082 71.76368713378906 7.108683586120605 67.11146545410156 4.917821407318115 61.93168640136719 C 2.649921178817749 56.56976318359375 1.499996185302734 50.87311172485352 1.499996185302734 45 C 1.499996185302734 39.12687683105469 2.649921178817749 33.43022537231445 4.917821407318115 28.06830024719238 C 7.108683586120605 22.88852500915527 10.24540901184082 18.23631286621094 14.24084663391113 14.24086284637451 C 18.23629570007324 10.24541282653809 22.88852119445801 7.108699798583984 28.06829643249512 4.917837619781494 C 33.43022155761719 2.649937391281128 39.12687301635742 1.500012516975403 44.99999618530273 1.500012516975403 C 50.87311935424805 1.500012516975403 56.56977081298828 2.649937391281128 61.93169784545898 4.917837619781494 C 67.11147308349609 7.108699798583984 71.76369476318359 10.24541282653809 75.75914764404297 14.24086284637451 C 79.75458526611328 18.23631286621094 82.89131164550781 22.88852500915527 85.08216857910156 28.06830024719238 C 87.35007476806641 33.43022537231445 88.5 39.12687683105469 88.5 45 C 88.5 50.87311172485352 87.35007476806641 56.56976318359375 85.08216857910156 61.93168640136719 C 82.89131164550781 67.11146545410156 79.75458526611328 71.76368713378906 75.75914764404297 75.75914001464844 C 71.76369476318359 79.75458526611328 67.11147308349609 82.89131164550781 61.93169784545898 85.08216094970703 C 56.56977081298828 87.35007476806641 50.87311935424805 88.5 44.99999618530273 88.5 Z" stroke="none"/>
                    <path d="M 44.99999618530273 3 C 39.32870864868164 3 33.82865142822266 4.110054016113281 28.65262603759766 6.299339294433594 C 23.65165710449219 8.414573669433594 19.15968322753906 11.44334411621094 15.301513671875 15.301513671875 C 11.44333648681641 19.15968322753906 8.414566040039062 23.65165710449219 6.299339294433594 28.65262985229492 C 4.110054016113281 33.82865524291992 2.999992370605469 39.32871246337891 2.999992370605469 45 C 2.999992370605469 50.67128753662109 4.110054016113281 56.17132949829102 6.299339294433594 61.34735870361328 C 8.414566040039062 66.34832763671875 11.44333648681641 70.84028625488281 15.301513671875 74.69847106933594 C 19.15968322753906 78.556640625 23.65165710449219 81.58541107177734 28.65262603759766 83.70064544677734 C 33.82865142822266 85.88993072509766 39.32870864868164 86.99998474121094 44.99999618530273 86.99998474121094 C 50.67128372192383 86.99998474121094 56.17134094238281 85.88993072509766 61.34736633300781 83.70064544677734 C 66.34834289550781 81.58541107177734 70.84030914306641 78.556640625 74.69847869873047 74.69847106933594 C 78.55665588378906 70.84028625488281 81.58542633056641 66.34832763671875 83.70065307617188 61.34735870361328 C 85.88993835449219 56.17132949829102 87 50.67128753662109 87 45 C 87 39.32871246337891 85.88993835449219 33.82865524291992 83.70065307617188 28.65262985229492 C 81.58542633056641 23.65165710449219 78.55665588378906 19.15968322753906 74.69847869873047 15.301513671875 C 70.84030914306641 11.44334411621094 66.34834289550781 8.414573669433594 61.34736633300781 6.299339294433594 C 56.17134094238281 4.110054016113281 50.67128372192383 3 44.99999618530273 3 M 44.99999618530273 0 C 69.85281372070312 0 90 20.14718627929688 90 45 C 90 69.852783203125 69.85281372070312 89.99998474121094 44.99999618530273 89.99998474121094 C 20.14717864990234 89.99998474121094 -7.62939453125e-06 69.852783203125 -7.62939453125e-06 45 C -7.62939453125e-06 20.14718627929688 20.14717864990234 0 44.99999618530273 0 Z" stroke="none" fill="#e44b36"/>
                  </g>
                </g>
              </g>
            </g>
          </g>
        </g>
      </g>
    </g>
    <g id="radioactive_1839205" transform="translate(225.793 1240.86)">
      <path id="Trazado_1179482" data-name="Trazado 1179482" d="M277.44,44.153H266.574L269.7,18.635a.45.45,0,0,1,.448-.4h3.723a.45.45,0,0,1,.448.4Zm0,0" transform="translate(-238.243 -15.85)" fill="#2dd2e3"/>
      <path id="Trazado_1179483" data-name="Trazado 1179483" d="M385.612,44.239H374.746l3.124-25.518a.45.45,0,0,1,.448-.4h3.723a.45.45,0,0,1,.448.4Zm0,0" transform="translate(-334.918 -15.927)" fill="#2dd2e3"/>
      <path id="Trazado_1179484" data-name="Trazado 1179484" d="M419.414,18.716a.45.45,0,0,0-.448-.4h-2.9l3.26,25.918h3.215Zm0,0" transform="translate(-371.844 -15.923)" fill="#00bfd8"/>
      <path id="Trazado_1179485" data-name="Trazado 1179485" d="M35.141,139.682l-12.479-8.741a.6.6,0,0,0-.946.492v7.647a.6.6,0,0,1-.947.492L8.447,130.942a.6.6,0,0,0-.947.492v36.951a1.149,1.149,0,0,0,1.15,1.15H59.171a1.15,1.15,0,0,0,1.15-1.15V140.345a.663.663,0,0,0-.663-.663Zm0,0" transform="translate(-6.703 -116.48)" fill="#8ebac5"/>
      <path id="Trazado_1179486" data-name="Trazado 1179486" d="M471.158,214.109h-3.224a.663.663,0,0,1,.663.663v29.19h2.074a1.15,1.15,0,0,0,1.15-1.15V214.771a.663.663,0,0,0-.663-.663Zm0,0" transform="translate(-418.202 -190.907)" fill="#7ca1b1"/>
      <path id="Trazado_1179487" data-name="Trazado 1179487" d="M84.13,257.526a11.588,11.588,0,1,0-11.587,11.741A11.665,11.665,0,0,0,84.13,257.526Zm0,0" transform="translate(-54.479 -219.216)" fill="#fff"/>
      <path id="Trazado_1179488" data-name="Trazado 1179488" d="M364.089,327.789h-8.644a.518.518,0,0,0-.518.518V345.56h9.681V328.307A.518.518,0,0,0,364.089,327.789Zm0,0" transform="translate(-317.205 -292.505)" fill="#ff9838"/>
      <path id="Trazado_1179489" data-name="Trazado 1179489" d="M287.322,11.914h-6.555a.724.724,0,0,1-.724-.724V8.724A.724.724,0,0,1,280.767,8h6.555a.724.724,0,0,1,.724.724V11.19A.724.724,0,0,1,287.322,11.914Zm0,0" transform="translate(-250.28 -6.703)" fill="#00bfd8"/>
      <path id="Trazado_1179490" data-name="Trazado 1179490" d="M395.494,11.914h-6.555a.724.724,0,0,1-.724-.724V8.724A.724.724,0,0,1,388.939,8h6.555a.724.724,0,0,1,.724.724V11.19A.724.724,0,0,1,395.494,11.914Zm0,0" transform="translate(-346.956 -6.703)" fill="#00bfd8"/>
      <g id="Grupo_1230877" data-name="Grupo 1230877" transform="translate(9.371 29.414)">
        <path id="Trazado_1179491" data-name="Trazado 1179491" d="M133.17,277.047a4.231,4.231,0,0,1,2.111.562l2.235-3.9a8.687,8.687,0,0,0-8.692.032l2.249,3.863A4.226,4.226,0,0,1,133.17,277.047Zm0,0" transform="translate(-124.504 -272.558)" fill="#fff156"/>
        <path id="Trazado_1179492" data-name="Trazado 1179492" d="M157.279,340.662a1.679,1.679,0,1,1-1.679-1.678A1.679,1.679,0,0,1,157.279,340.662Zm0,0" transform="translate(-146.935 -331.924)" fill="#fff156"/>
        <path id="Trazado_1179493" data-name="Trazado 1179493" d="M92.593,354.371c0-.01,0-.02,0-.031l-4.418.015a8.7,8.7,0,0,0,4.373,7.513l2.182-3.811a4.247,4.247,0,0,1-2.138-3.687Zm0,0" transform="translate(-88.176 -345.648)" fill="#fff156"/>
        <path id="Trazado_1179494" data-name="Trazado 1179494" d="M192.266,353.926c0,.02,0,.041,0,.061a4.246,4.246,0,0,1-2.072,3.649l2.221,3.816h0a8.687,8.687,0,0,0,4.32-7.542Zm0,0" transform="translate(-179.353 -345.264)" fill="#fff156"/>
      </g>
      <path id="Trazado_1179495" data-name="Trazado 1179495" d="M84.13,257.526a11.588,11.588,0,1,0-11.587,11.741A11.665,11.665,0,0,0,84.13,257.526Zm0,0" transform="translate(-54.479 -219.216)" fill="#fff"/>
      <path id="Trazado_1179496" data-name="Trazado 1179496" d="M157.279,340.662a1.679,1.679,0,1,1-1.679-1.678A1.679,1.679,0,0,1,157.279,340.662Zm0,0" transform="translate(-137.563 -302.51)" fill="#fff156"/>
      <path id="Trazado_1179497" data-name="Trazado 1179497" d="M92.341,354.363l-3.652.013a.386.386,0,0,0-.385.4,8.706,8.706,0,0,0,4.018,6.9.386.386,0,0,0,.541-.135l1.8-3.148a.384.384,0,0,0-.112-.507,4.3,4.3,0,0,1-1.827-3.181.383.383,0,0,0-.385-.348Zm0,0" transform="translate(-78.919 -316.255)" fill="#fff156"/>
      <path id="Trazado_1179498" data-name="Trazado 1179498" d="M190.638,358.562l1.838,3.155a.386.386,0,0,0,.542.132,8.705,8.705,0,0,0,3.966-6.933.386.386,0,0,0-.388-.4l-3.628.014a.384.384,0,0,0-.382.35,4.3,4.3,0,0,1-1.84,3.174A.383.383,0,0,0,190.638,358.562Zm0,0" transform="translate(-170.33 -316.391)" fill="#fff156"/>
      <path id="Trazado_1179499" data-name="Trazado 1179499" d="M136.8,278.189l1.813-3.17a.386.386,0,0,0-.157-.535,8.7,8.7,0,0,0-7.987.033.386.386,0,0,0-.153.536l1.827,3.134a.383.383,0,0,0,.494.156,4.3,4.3,0,0,1,3.668.006A.383.383,0,0,0,136.8,278.189Zm0,0" transform="translate(-116.417 -244.013)" fill="#fff156"/>
      <path id="Trazado_1179500" data-name="Trazado 1179500" d="M52.955,22.4H50.774L49.5,11.984a.8.8,0,0,0-1.583.193L49.168,22.4H41.354l2.007-16.4h3.8l.367,3a.8.8,0,0,0,1.583-.194l-.346-2.826a1.523,1.523,0,0,0,1.295-1.5V2.021A1.523,1.523,0,0,0,48.538.5H41.983a1.523,1.523,0,0,0-1.521,1.521V4.487a1.524,1.524,0,0,0,1.295,1.5L39.748,22.405h-.469L37.269,5.991a1.524,1.524,0,0,0,1.294-1.5V2.021A1.523,1.523,0,0,0,37.042.5H30.487a1.523,1.523,0,0,0-1.522,1.521V4.487a1.524,1.524,0,0,0,1.294,1.5l-1.975,16.13L16.417,13.808a1.4,1.4,0,0,0-2.2,1.145v7.271L2.2,13.808A1.4,1.4,0,0,0,0,14.954v29.82a.8.8,0,0,0,1.594,0V15.33L13.61,23.746a1.4,1.4,0,0,0,2.2-1.145V15.33l12.171,8.525a.8.8,0,0,0,.457.144H52.821V51.905a.353.353,0,0,1-.352.352H48.2V35.8a1.317,1.317,0,0,0-1.315-1.315H38.239A1.317,1.317,0,0,0,36.924,35.8V52.258c-36.5-.164-35.33.34-35.33-.352V47.963a.8.8,0,0,0-1.594,0v3.943a1.949,1.949,0,0,0,1.947,1.947H52.468a1.949,1.949,0,0,0,1.947-1.947V23.865a1.461,1.461,0,0,0-1.46-1.46ZM42.056,2.094h6.409v2.32H42.056ZM35.665,6.008l2.008,16.4H29.856l2.008-16.4ZM30.56,2.094h6.409v2.32H30.56Zm7.958,33.987H46.6V52.258H38.518Zm0,0"/>
      <path id="Trazado_1179501" data-name="Trazado 1179501" d="M78.225,250.823a12.385,12.385,0,1,0-12.384,12.538A12.476,12.476,0,0,0,78.225,250.823Zm-23.173,0a10.791,10.791,0,1,1,10.79,10.943A10.88,10.88,0,0,1,55.051,250.823Zm0,0" transform="translate(-47.776 -212.514)"/>
      <path id="Trazado_1179502" data-name="Trazado 1179502" d="M151.374,333.96a2.476,2.476,0,1,0-2.476,2.476A2.478,2.478,0,0,0,151.374,333.96Zm-2.476.882a.882.882,0,1,1,.882-.882A.883.883,0,0,1,148.9,334.841Zm0,0" transform="translate(-130.861 -295.808)"/>
      <path id="Trazado_1179503" data-name="Trazado 1179503" d="M88.3,350.534a3.524,3.524,0,0,1-1.487-2.59,1.185,1.185,0,0,0-1.178-1.081h0c-3.374.117-3.915-.242-4.507.382a1.187,1.187,0,0,0-.323.871,9.519,9.519,0,0,0,1.278,4.3c.823,1.414,3.663,4.754,4.768,2.823l1.8-3.147a1.188,1.188,0,0,0-.35-1.558Zm-2.617,3.53a7.909,7.909,0,0,1-3.257-5.6l2.844-.01a5.062,5.062,0,0,0,1.816,3.157Zm0,0" transform="translate(-72.216 -309.552)"/>
      <path id="Trazado_1179504" data-name="Trazado 1179504" d="M185.1,348.109a3.524,3.524,0,0,1-1.5,2.583,1.185,1.185,0,0,0-.345,1.565c1.788,2.861,1.749,3.511,2.586,3.711a1.185,1.185,0,0,0,.915-.156,9.5,9.5,0,0,0,4.331-7.569,1.184,1.184,0,0,0-1.187-1.23l-3.628.015a1.188,1.188,0,0,0-1.173,1.082Zm4.366.5a7.919,7.919,0,0,1-3.216,5.62l-1.432-2.458a5.061,5.061,0,0,0,1.825-3.152Zm0,0" transform="translate(-163.637 -309.685)"/>
      <path id="Trazado_1179505" data-name="Trazado 1179505" d="M124.749,271.893a1.188,1.188,0,0,0,1.524.475c1.764-.835,2.846.117,3.483.117a1.189,1.189,0,0,0,1.031-.6c1.583-2.981,2.165-3.271,1.92-4.1a1.185,1.185,0,0,0-.592-.714,9.506,9.506,0,0,0-8.721.036,1.184,1.184,0,0,0-.472,1.644ZM131,268.311l-1.412,2.469a5.058,5.058,0,0,0-3.642,0l-1.421-2.439A7.911,7.911,0,0,1,131,268.311Zm0,0" transform="translate(-109.714 -237.317)"/>
    </g>
  </g>
</svg>
