<svg xmlns="http://www.w3.org/2000/svg" xmlns:xlink="http://www.w3.org/1999/xlink" width="295" height="169" viewBox="0 0 295 169">
  <defs>
    <clipPath id="clip-path">
      <rect id="Rectángulo_423889" data-name="Rectángulo 423889" width="295" height="169" transform="translate(1125 2570)" fill="#fff" stroke="#707070" stroke-width="1"/>
    </clipPath>
    <clipPath id="clip-path-2">
      <rect id="Rectángulo_423876" data-name="Rectángulo 423876" width="168.183" height="191.758" fill="none"/>
    </clipPath>
    <clipPath id="clip-path-3">
      <rect id="Rectángulo_423875" data-name="Rectángulo 423875" width="168.183" height="8.618" fill="none"/>
    </clipPath>
    <clipPath id="clip-path-4">
      <rect id="Rectángulo_423885" data-name="Rectángulo 423885" width="168.183" height="168.183" fill="none"/>
    </clipPath>
    <clipPath id="clip-path-5">
      <rect id="Rectángulo_423877" data-name="Rectángulo 423877" width="21.506" height="5.765" fill="none"/>
    </clipPath>
    <clipPath id="clip-path-6">
      <rect id="Rectángulo_423878" data-name="Rectángulo 423878" width="8.246" height="1.962" fill="none"/>
    </clipPath>
    <clipPath id="clip-path-7">
      <rect id="Rectángulo_423879" data-name="Rectángulo 423879" width="8.977" height="1.45" fill="none"/>
    </clipPath>
    <clipPath id="clip-path-8">
      <rect id="Rectángulo_423880" data-name="Rectángulo 423880" width="8.25" height="1.905" fill="none"/>
    </clipPath>
    <clipPath id="clip-path-9">
      <rect id="Rectángulo_423881" data-name="Rectángulo 423881" width="15.76" height="28.528" fill="none"/>
    </clipPath>
    <clipPath id="clip-path-10">
      <rect id="Rectángulo_423882" data-name="Rectángulo 423882" width="16.523" height="31.432" fill="none"/>
    </clipPath>
    <clipPath id="clip-path-11">
      <rect id="Rectángulo_423883" data-name="Rectángulo 423883" width="27.796" height="31.944" fill="none"/>
    </clipPath>
    <clipPath id="clip-path-12">
      <rect id="Rectángulo_423884" data-name="Rectángulo 423884" width="8.798" height="14.075" fill="none"/>
    </clipPath>
    <clipPath id="clip-path-14">
      <rect id="Rectángulo_423886" data-name="Rectángulo 423886" width="24.233" height="1.34" fill="none"/>
    </clipPath>
    <clipPath id="clip-path-15">
      <rect id="Rectángulo_423887" data-name="Rectángulo 423887" width="16.02" height="0.886" fill="none"/>
    </clipPath>
  </defs>
  <g id="Enmascarar_grupo_1098832" data-name="Enmascarar grupo 1098832" transform="translate(-1125 -2570)" clip-path="url(#clip-path)">
    <g id="Grupo_1230654" data-name="Grupo 1230654" transform="translate(0 652.634)">
      <g id="Grupo_1209827" data-name="Grupo 1209827" transform="translate(0 1630)">
        <g id="Grupo_1209771" data-name="Grupo 1209771" transform="translate(1125 309.898)">
          <rect id="Rectángulo_418976" data-name="Rectángulo 418976" width="295" height="76" rx="5" transform="translate(0 24.102)" fill="#292584"/>
          <rect id="Rectángulo_418975" data-name="Rectángulo 418975" width="255" height="110" rx="5" transform="translate(20 7.102)" fill="#fcba3d"/>
        </g>
      </g>
    </g>
    <g id="Grupo_1230979" data-name="Grupo 1230979" transform="translate(1193.999 2570.496)">
      <g id="Grupo_1230980" data-name="Grupo 1230980" transform="translate(-5.999)">
        <g id="Grupo_1230943" data-name="Grupo 1230943">
          <g id="Grupo_1230942" data-name="Grupo 1230942" clip-path="url(#clip-path-2)">
            <path id="Trazado_1179573" data-name="Trazado 1179573" d="M451.668,250.9v41.635h-24.5V278.674a10.287,10.287,0,0,1,12.382-6.112,2.194,2.194,0,0,1,2.314-2.832,5.263,5.263,0,0,1,5.005-8.48c-1.588-2.587-.538-6.156,1.655-8.258a11.517,11.517,0,0,1,3.142-2.092" transform="translate(-283.484 -166.506)" fill="#f3ebda"/>
            <path id="Trazado_1179574" data-name="Trazado 1179574" d="M12.438,270.685a2.165,2.165,0,0,0-3.6-1.111,10.207,10.207,0,0,0,.361-3.683,3.463,3.463,0,0,0-1.873-2.84,1.929,1.929,0,0,0-2.455,1.3c.868-4.6-1.257-9.692-4.868-11.946V289.43H21.89V266.663c-3.389-1.84-7.96.1-9.452,4.022" transform="translate(0 -167.506)" fill="#f3ebda"/>
            <path id="Trazado_1179575" data-name="Trazado 1179575" d="M46.179,11.554c1.571,1.46,1.369,4.094.3,5.954s-2.8,3.239-4.184,4.877-2.425,3.586-1.83,5.648h-2.54a17.853,17.853,0,0,0-.6-6.66c-.75-2.116-2.526-4.023-4.756-4.242-1.463-.141-2.9.437-4.373.427a5.582,5.582,0,0,1-4.823-2.977,5.578,5.578,0,0,1,.424-5.654A10.271,10.271,0,0,1,13.787,6.5,10.225,10.225,0,0,1,10.83,0H53.707a15.6,15.6,0,0,1-7.528,11.554" transform="translate(-7.187)" fill="#cbb994"/>
            <path id="Trazado_1179576" data-name="Trazado 1179576" d="M207.877,4.908a11.5,11.5,0,0,1-.535,9.4,11.494,11.494,0,0,1-7.461,5.749,12.63,12.63,0,0,1-.8,13.451c-1.393,1.884-3.3,3.333-4.786,5.146s-2.573,4.238-1.88,6.478l-5.207.239.605-3.38c.394-2.2.774-4.541-.071-6.61a22.155,22.155,0,0,0-2.136-3.4c-.723-1.13-1.837-2.19-1.514-3.491a19.284,19.284,0,0,1-10.178,1.06,7.371,7.371,0,0,1-3.431-1.322,6.524,6.524,0,0,1-2.116-4.154,11.33,11.33,0,0,1,2.116-8.87,3.618,3.618,0,0,1-4.558.36,3.612,3.612,0,0,1-1.012-4.46c-2.772.814-5.923,1.261-8.419-.192-2.654-1.547-3.811-4.908-3.6-7.975A12.291,12.291,0,0,1,153.48,0h60.758a9.508,9.508,0,0,1-6.361,4.908" transform="translate(-101.448)" fill="#cbb994"/>
            <path id="Trazado_1179577" data-name="Trazado 1179577" d="M419.592,0V21.817a14.249,14.249,0,0,1-7.844-3.232,8.556,8.556,0,0,1-11.921,1.82,1.572,1.572,0,0,1-.659-.784,3.174,3.174,0,0,1-.114-.545c-1.046,1.9-3.226,2.97-5.342,3.565-2.264.636-4.669.915-6.727,2.052a8.172,8.172,0,0,0-4.3,6.946H378.9c-.39-2.64,1.046-5.18,2.513-7.41s3.084-4.581,3.121-7.249c.03-1.964-.814-3.952-.289-5.846a4.8,4.8,0,0,1,2.973-3.1,6.447,6.447,0,0,1,4.373.064,5.628,5.628,0,0,1,5.1-3.34,5.336,5.336,0,0,1,4.322,2.519,6.6,6.6,0,0,1,.7-3.8A13.9,13.9,0,0,1,403.759,0Z" transform="translate(-251.409)" fill="#cbb994"/>
            <path id="Trazado_1179578" data-name="Trazado 1179578" d="M63.272,68.349a1.856,1.856,0,1,1-1.856-1.856,1.856,1.856,0,0,1,1.856,1.856" transform="translate(-39.526 -44.127)" fill="#cdbb96"/>
            <path id="Trazado_1179579" data-name="Trazado 1179579" d="M175.654,49.1a1.856,1.856,0,1,1-1.856-1.856,1.856,1.856,0,0,1,1.856,1.856" transform="translate(-114.106 -31.354)" fill="#cdbb96"/>
            <path id="Trazado_1179580" data-name="Trazado 1179580" d="M478.624,69.3a1.856,1.856,0,1,1-1.856-1.856,1.856,1.856,0,0,1,1.856,1.856" transform="translate(-315.167 -44.759)" fill="#cdbb96"/>
            <path id="Trazado_1179581" data-name="Trazado 1179581" d="M233.471,98.688a1.213,1.213,0,1,1-1.213-1.213,1.213,1.213,0,0,1,1.213,1.213" transform="translate(-153.329 -64.688)" fill="#cdbb96"/>
            <path id="Trazado_1179582" data-name="Trazado 1179582" d="M312.157,60.012a1.213,1.213,0,1,1-1.213-1.213,1.213,1.213,0,0,1,1.213,1.213" transform="translate(-205.547 -39.021)" fill="#cdbb96"/>
            <path id="Trazado_1179583" data-name="Trazado 1179583" d="M405.5,10.468a1.213,1.213,0,1,1-1.213-1.213,1.213,1.213,0,0,1,1.213,1.213" transform="translate(-267.495 -6.142)" fill="#cdbb96"/>
            <path id="Trazado_1179584" data-name="Trazado 1179584" d="M253.094,170.029H229.039l2.425-8.582,2.475-8.76.764-2.707,1.59-5.625v-4.508h9.549v4.508l1.587,5.625.767,2.707,2.473,8.76Z" transform="translate(-151.998 -92.808)" fill="#cfbd75"/>
            <path id="Trazado_1179585" data-name="Trazado 1179585" d="M257.865,172.679H243.607l.764-2.707H257.1Z" transform="translate(-161.666 -112.799)" fill="#baa960"/>
            <path id="Trazado_1179586" data-name="Trazado 1179586" d="M253.093,212.646l-2.425-8.583H231.461l-2.425,8.583Z" transform="translate(-151.996 -135.423)" fill="#baa960"/>
            <rect id="Rectángulo_423847" data-name="Rectángulo 423847" width="10.601" height="5.806" transform="translate(83.643 42.538)" fill="#baa960"/>
            <rect id="Rectángulo_423848" data-name="Rectángulo 423848" width="24.261" height="29.559" transform="translate(76.937 77.223)" fill="#baa960"/>
            <rect id="Rectángulo_423849" data-name="Rectángulo 423849" width="2.719" height="12.875" transform="translate(50.426 76.388)" fill="#c4b268"/>
            <rect id="Rectángulo_423850" data-name="Rectángulo 423850" width="2.719" height="12.875" transform="translate(54.697 74.942)" fill="#c4b268"/>
            <rect id="Rectángulo_423851" data-name="Rectángulo 423851" width="2.719" height="12.875" transform="translate(58.968 73.496)" fill="#c4b268"/>
            <rect id="Rectángulo_423852" data-name="Rectángulo 423852" width="2.719" height="12.875" transform="translate(63.24 72.051)" fill="#c4b268"/>
            <path id="Trazado_1179587" data-name="Trazado 1179587" d="M139.2,240.52l-35.077,13.334v29.1L139.2,267.187Z" transform="translate(-69.099 -159.617)" fill="#baa960"/>
            <rect id="Rectángulo_423853" data-name="Rectángulo 423853" width="17.297" height="26.667" transform="translate(70.1 80.903)" fill="#c4b268"/>
            <rect id="Rectángulo_423854" data-name="Rectángulo 423854" width="4.533" height="18.685" transform="translate(58.192 94.236)" fill="#c4b268"/>
            <rect id="Rectángulo_423855" data-name="Rectángulo 423855" width="4.533" height="18.685" transform="translate(46.65 98.227)" fill="#c4b268"/>
            <rect id="Rectángulo_423856" data-name="Rectángulo 423856" width="1.876" height="16.484" transform="translate(81.337 87.095)" fill="#d9c989"/>
            <rect id="Rectángulo_423857" data-name="Rectángulo 423857" width="1.876" height="16.484" transform="translate(75.999 87.095)" fill="#d9c989"/>
            <rect id="Rectángulo_423858" data-name="Rectángulo 423858" width="21.999" height="62.311" transform="translate(25.434 53.75)" fill="#baa960"/>
            <rect id="Rectángulo_423859" data-name="Rectángulo 423859" width="7.712" height="62.311" transform="translate(17.722 53.75)" fill="#cfbd75"/>
            <rect id="Rectángulo_423860" data-name="Rectángulo 423860" width="3.61" height="5.781" transform="translate(29.662 58.86)" fill="#cfbd75"/>
            <rect id="Rectángulo_423861" data-name="Rectángulo 423861" width="3.61" height="5.781" transform="translate(37.9 58.86)" fill="#cfbd75"/>
            <rect id="Rectángulo_423862" data-name="Rectángulo 423862" width="3.61" height="5.781" transform="translate(29.662 69.085)" fill="#cfbd75"/>
            <rect id="Rectángulo_423863" data-name="Rectángulo 423863" width="3.61" height="5.781" transform="translate(37.9 69.085)" fill="#cfbd75"/>
            <rect id="Rectángulo_423864" data-name="Rectángulo 423864" width="3.61" height="5.781" transform="translate(29.662 79.311)" fill="#cfbd75"/>
            <rect id="Rectángulo_423865" data-name="Rectángulo 423865" width="3.61" height="5.781" transform="translate(37.9 79.311)" fill="#cfbd75"/>
            <rect id="Rectángulo_423866" data-name="Rectángulo 423866" width="3.61" height="5.781" transform="translate(29.662 89.536)" fill="#cfbd75"/>
            <rect id="Rectángulo_423867" data-name="Rectángulo 423867" width="3.61" height="5.781" transform="translate(37.9 89.536)" fill="#cfbd75"/>
            <rect id="Rectángulo_423868" data-name="Rectángulo 423868" width="3.61" height="5.781" transform="translate(29.662 99.762)" fill="#cfbd75"/>
            <rect id="Rectángulo_423869" data-name="Rectángulo 423869" width="3.61" height="5.781" transform="translate(37.9 99.762)" fill="#cfbd75"/>
            <path id="Trazado_1179588" data-name="Trazado 1179588" d="M378.394,153.705H359.94l2.182-33.532.214-4.907.336-7.516.22-4.907.33-7.522.22-4.907.275-6.208h10.9l.275,6.208.22,4.907.33,7.522.22,4.907.336,7.516.214,4.907Z" transform="translate(-238.868 -55.882)" fill="#baa960"/>
            <path id="Trazado_1179589" data-name="Trazado 1179589" d="M381.587,107.57H369.7l.22-4.907h11.451Z" transform="translate(-245.342 -68.131)" fill="#d9c989"/>
            <path id="Trazado_1179590" data-name="Trazado 1179590" d="M381.052,144.521H368.061l.22-4.907h12.551Z" transform="translate(-244.258 -92.652)" fill="#d9c989"/>
            <path id="Trazado_1179591" data-name="Trazado 1179591" d="M380.517,181.453H366.426l.214-4.907H380.3Z" transform="translate(-243.173 -117.162)" fill="#d9c989"/>
            <rect id="Rectángulo_423870" data-name="Rectángulo 423870" width="51.391" height="42.285" transform="translate(98.501 70.86)" fill="#c4b268"/>
            <rect id="Rectángulo_423871" data-name="Rectángulo 423871" width="3.854" height="19.068" transform="translate(138.008 75.291)" fill="#d9c989"/>
            <rect id="Rectángulo_423872" data-name="Rectángulo 423872" width="3.854" height="19.068" transform="translate(128.372 75.291)" fill="#d9c989"/>
            <rect id="Rectángulo_423873" data-name="Rectángulo 423873" width="3.854" height="19.068" transform="translate(118.736 75.291)" fill="#d9c989"/>
            <path id="Trazado_1179592" data-name="Trazado 1179592" d="M92.413,103.249,90.268,84.19l-.1-.853L89.423,76.7l-.143-1.289-.492-4.367H81.767L81.4,75.414,81.29,76.7l-.564,6.633-.071.853-1.473,17.424-.138,1.635Z" transform="translate(-52.456 -47.149)" fill="#baa960"/>
            <path id="Trazado_1179593" data-name="Trazado 1179593" d="M93.854,85.32H85.72l.109-1.289h7.881Z" transform="translate(-56.887 -55.766)" fill="#cfbd75"/>
            <path id="Trazado_1179594" data-name="Trazado 1179594" d="M93.447,108.438H83.832l.071-.853h9.445Z" transform="translate(-55.634 -71.397)" fill="#cfbd75"/>
            <path id="Trazado_1179595" data-name="Trazado 1179595" d="M168.183,333.869V356.53H0V333.869l11.537-11.537,6.781-6.781H149.865l6.781,6.781Z" transform="translate(0 -209.41)" fill="#c4b268"/>
            <rect id="Rectángulo_423874" data-name="Rectángulo 423874" width="168.183" height="6.594" transform="translate(0 124.459)" fill="#cfbd75"/>
            <path id="Trazado_1179596" data-name="Trazado 1179596" d="M179.408,322.331H34.3l6.781-6.781H172.627Z" transform="translate(-22.763 -209.41)" fill="#cfbd75"/>
            <path id="Trazado_1179597" data-name="Trazado 1179597" d="M0,335.609v25.016H45.944a5.845,5.845,0,0,0,.343-1.867,6.625,6.625,0,0,0-3.394-5.92c-.626-.35-6.2-1.611-6.556-.2a9.143,9.143,0,0,0-5.722-9.6,9.138,9.138,0,0,0-10.643,3.8c-.535-3.444-1.1-6.976-2.805-10.014s-4.827-5.537-8.315-5.486c-3.027.044-5.96,2.593-6.156,5.486a2.375,2.375,0,0,0-2.1-1.308,2.5,2.5,0,0,0-.6.091" transform="translate(0 -219.888)" fill="#8b712a"/>
            <path id="Trazado_1179598" data-name="Trazado 1179598" d="M426.005,335.116a8.46,8.46,0,0,0-4.67,1.462,4.521,4.521,0,0,0-1.748,5.513c-2.588.5-4.017,3.074-2.67,4.814a12.381,12.381,0,0,0-9.6,2.42,6.329,6.329,0,0,0-1.923,7.5,5.354,5.354,0,0,0-3.7-2.055c-1.585-.088-3.242,1.171-2.583,2.262a8.82,8.82,0,0,0-6.509-.579,5.778,5.778,0,0,0-4.1,3.858l37.5,5.334Z" transform="translate(-257.822 -222.394)" fill="#8b712a"/>
            <path id="Trazado_1179599" data-name="Trazado 1179599" d="M168.183,409.494v28.1H0v-28.1c32.829-2.435,106.79-6.549,168.183.007" transform="translate(0 -269.407)" fill="#6c4f22"/>
            <path id="Trazado_1179600" data-name="Trazado 1179600" d="M168.183,412.441c-14.45-3.074-49.439-3.986-49.439-3.986s26.855,4.154,25.735,4.474-36.765-3.515-36.765-3.515,4.955,3.037,0,3.677-14.548-2.227-14.548-2.227A20.251,20.251,0,0,1,82.3,418.556c-7.511,2.267-5.594-5.146-5.113-7.383s-50.038,8.47-53.233,7.292,5.274-5.056,5.274-5.056c-1.487-.343-18.887,1.763-29.224,3.438v-7.36c32.829-2.435,106.79-6.549,168.183.007Z" transform="translate(0 -269.407)" fill="#89712a"/>
            <g id="Grupo_1230941" data-name="Grupo 1230941" transform="translate(0 159.566)" opacity="0.4" style="mix-blend-mode: multiply;isolation: isolate">
              <g id="Grupo_1230940" data-name="Grupo 1230940">
                <g id="Grupo_1230939" data-name="Grupo 1230939" clip-path="url(#clip-path-3)">
                  <path id="Trazado_1179601" data-name="Trazado 1179601" d="M168.183,476.546V483H0V474.38c32.291,1.9,125.6,6.751,168.183,2.166" transform="translate(0 -474.38)" fill="#6c4f22"/>
                </g>
              </g>
            </g>
          </g>
        </g>
        <g id="Grupo_1230969" data-name="Grupo 1230969">
          <g id="Grupo_1230968" data-name="Grupo 1230968" clip-path="url(#clip-path-4)">
            <path id="Trazado_1179602" data-name="Trazado 1179602" d="M144.175,324.278c-.672,7.572-1.132,15.8-.232,18.048.038.1,23.277,37.538,23.758,38.345l-12.836,6.521c-1.91-3.437-26.092-43.4-26.148-44.206-.114-1.664.655-18.734.964-26.989l7.785.248Z" transform="translate(-85.412 -209.706)" fill="#260d0c"/>
            <path id="Trazado_1179603" data-name="Trazado 1179603" d="M145.663,315.819c-.209.5,1.848,8.76,1.845,10.023a.54.54,0,0,1-.018.132c-.092.222-.184.448-.277.68-2.162,5.272-11.95,29.035-14.236,34.675l-4.884,29.778-2.8-.5-9.089-1.625,3.646-31.663c2.266-7.257,4.523-30.732,7.374-40.454l15.911-.712Z" transform="translate(-77.12 -209.588)" fill="#361613"/>
            <path id="Trazado_1179604" data-name="Trazado 1179604" d="M132.253,431.017a6.246,6.246,0,0,0-.076,3.7c.258.993.839,2.033,1.792,2.085a1.963,1.963,0,0,0,1.427-.647,5.476,5.476,0,0,0,.947-1.412,8.3,8.3,0,0,0,.864-2.439,3.708,3.708,0,0,0-.365-2.44c-1.246-2.089-3.791-1.014-4.589,1.157" transform="translate(-87.556 -284.523)" fill="#49211f"/>
            <path id="Trazado_1179605" data-name="Trazado 1179605" d="M163.6,315.819c-.209.5,1.848,8.76,1.845,10.023a.54.54,0,0,1-.018.132c-.092.222-.184.448-.277.68-2.163,5.272-11.95,29.035-14.236,34.675l-4.884,29.778-2.8-.5,4.312-28.09c2.731-7.38,10.692-26.986,15.231-38.222l-1.7-8.142Z" transform="translate(-95.052 -209.588)" fill="#260d0c"/>
            <path id="Trazado_1179606" data-name="Trazado 1179606" d="M104.77,211.386s-2.679,2.059-2.979,2.821-6.3,22.081-5.9,24.277,7.063,7.925,7.883,7.661,3.377-28.239,1-34.759" transform="translate(-63.622 -140.283)" fill="#6c271c"/>
            <path id="Trazado_1179607" data-name="Trazado 1179607" d="M135.81,203.1l7.274,1.273s6.544,27.479,6.722,29.18a61.773,61.773,0,0,1-.4,7.2s2.754,5.723,1.881,6.959-11.6,5.342-21.107,6.132-14.151-3.6-14.239-4.274c-.167-1.271,1.7-5.214,1.7-5.214a27.105,27.105,0,0,1-.809-4.49c-.039-1.57,1.249-33.978,1.249-33.978l3.853-.739Z" transform="translate(-76.935 -134.784)" fill="#6c271c"/>
            <path id="Trazado_1179608" data-name="Trazado 1179608" d="M133.785,204.141s3.45,4.089,6.38,4.035c3.819-.066,6.479-4.2,7.495-6.084-1.786-.3-3.454-.51-3.454-.51l-6.484.963Z" transform="translate(-88.784 -133.777)" fill="#f3a080"/>
            <path id="Trazado_1179609" data-name="Trazado 1179609" d="M143.778,194.333l2.4,1.184s3.623-2.825,4.354-4.384l-.008-.569-.164-3.391-7.043-1.334s.247,1.195.454,2.73c.263,1.945.458,4.431.008,5.764" transform="translate(-95.109 -123.329)" fill="#f3a080"/>
            <path id="Trazado_1179610" data-name="Trazado 1179610" d="M135.533,201.929l-5.028,2.421s3.041,6.536,3.441,6.841,4.418-3,4.418-3,6.284,2.9,6.668,2.367.808-8.409.808-8.409l-3.812-.575s-.474,4.52-3.612,4.384-2.885-4.033-2.885-4.033" transform="translate(-86.607 -133.774)" fill="#f7f0de"/>
            <path id="Trazado_1179611" data-name="Trazado 1179611" d="M143.77,188.57c1.9.784,5.314,2.173,5.88,2.3a1.087,1.087,0,0,0,.873-.3l-.164-3.391-7.043-1.333s.247,1.194.454,2.73" transform="translate(-95.109 -123.33)" fill="#ea7c6f"/>
            <path id="Trazado_1179612" data-name="Trazado 1179612" d="M135.445,153.826a3.147,3.147,0,0,0,1.061.986h0a6.556,6.556,0,0,0,.586.34c.85.437,8.5,2.449,9.581,2.137s1.564-4.273,1.562-4.682c-.009-2.509-.157-10.242-.157-10.242-3.96-7.863-13.07-2.133-14.056-1.156s1.422,12.617,1.422,12.617" transform="translate(-88.784 -91.767)" fill="#f3a080"/>
            <path id="Trazado_1179613" data-name="Trazado 1179613" d="M141.878,183.08a6.633,6.633,0,0,0,.586.34c.85.437,8.5,2.448,9.581,2.136s1.564-4.273,1.562-4.682c-.441,1.774-.877,4.2-1.672,4.244-1.2.065-9.116-1.709-10.057-2.038" transform="translate(-94.155 -120.035)" fill="#f8bf92"/>
            <path id="Trazado_1179614" data-name="Trazado 1179614" d="M143.092,151.931s2.533-2.787,3.521-1.754c.577.6.157,1,.157,1Z" transform="translate(-94.961 -99.51)" fill="#444"/>
            <path id="Trazado_1179615" data-name="Trazado 1179615" d="M169.585,155.952s-1.889-.334-2.047-1.237c0,0-.369.734-.078,1.082s2.125.155,2.125.155" transform="translate(-111.058 -102.674)" fill="#444"/>
            <path id="Trazado_1179616" data-name="Trazado 1179616" d="M171.255,162.012c.085.576-.136,1.086-.494,1.139s-.719-.37-.8-.946.136-1.086.494-1.139.719.37.8.946" transform="translate(-112.777 -106.886)" fill="#1d1e1e"/>
            <path id="Trazado_1179617" data-name="Trazado 1179617" d="M172.779,162.138a1.449,1.449,0,0,1-1.271.748,1.45,1.45,0,0,1,1.271-.748" transform="translate(-113.818 -107.6)" fill="#fff"/>
            <path id="Trazado_1179618" data-name="Trazado 1179618" d="M150.365,162.053c.1.7.541,1.214.977,1.149s.7-.685.6-1.384-.541-1.214-.977-1.149-.7.684-.6,1.383" transform="translate(-99.772 -106.622)" fill="#1d1e1e"/>
            <path id="Trazado_1179619" data-name="Trazado 1179619" d="M148.125,163.121a1.762,1.762,0,0,0,1.742.421,1.76,1.76,0,0,0-1.742-.421" transform="translate(-98.301 -108.204)" fill="#fff"/>
            <path id="Trazado_1179620" data-name="Trazado 1179620" d="M157.8,184.559a2.577,2.577,0,0,0-2.116-.359,1.108,1.108,0,0,1,1.044-.389,1.831,1.831,0,0,1,1.071.748" transform="translate(-103.315 -121.971)" fill="#ea7c6f"/>
            <path id="Trazado_1179621" data-name="Trazado 1179621" d="M172.506,171.642c.158.286.817.224,1.472-.139s1.057-.888.9-1.174-.817-.224-1.472.139-1.057.888-.9,1.174" transform="translate(-114.458 -112.917)" fill="#ea7c6f"/>
            <path id="Trazado_1179622" data-name="Trazado 1179622" d="M146.016,172.909c-.05.474.789.952,1.875,1.068s2.007-.175,2.057-.65-.789-.952-1.875-1.068-2.007.175-2.058.65" transform="translate(-96.899 -114.3)" fill="#ea7c6f"/>
            <path id="Trazado_1179623" data-name="Trazado 1179623" d="M157.577,182.679l-.116-.177a3.153,3.153,0,0,0-.37-.451,3.9,3.9,0,0,0-3.582-1.095,3.167,3.167,0,0,0-.559.167l-.2.082.21-.028a4.639,4.639,0,0,1,.566-.043,5.838,5.838,0,0,1,3.444,1.052,4.575,4.575,0,0,1,.445.352l.158.14" transform="translate(-101.373 -120.035)" fill="#dd5b67"/>
            <path id="Trazado_1179624" data-name="Trazado 1179624" d="M159.257,173.388a2.589,2.589,0,0,0,2.779-.187,1.478,1.478,0,0,1-1.288,1.369,1.51,1.51,0,0,1-1.491-1.183" transform="translate(-105.688 -114.942)" fill="#ea7c6f"/>
            <path id="Trazado_1179625" data-name="Trazado 1179625" d="M162.976,166.875a1.9,1.9,0,0,0,.57-.311.846.846,0,0,0,.351-.571.5.5,0,0,0-.316-.487.928.928,0,0,0-.428-.092,1.048,1.048,0,0,0-.165.013c-.013-.067-.023-.14-.035-.224a6.819,6.819,0,0,1-.032-1.36,6.679,6.679,0,0,1,.434-1.925,12.669,12.669,0,0,1,0,1.956c-.034.482-.1.918-.153,1.259a.972.972,0,0,1,.514.03.948.948,0,0,1,.438.285.785.785,0,0,1,.176.57,1.1,1.1,0,0,1-.572.85,1.622,1.622,0,0,1-.743.219,1.465,1.465,0,0,1-.5-.055c-.083-.026-.138-.048-.163-.058a1.844,1.844,0,0,0,.629-.1" transform="translate(-107.739 -107.454)" fill="#dd5b67"/>
            <path id="Trazado_1179626" data-name="Trazado 1179626" d="M122.686,137.66a2.073,2.073,0,0,0-.282,1.789,2.422,2.422,0,0,0,.362.714,1.769,1.769,0,0,0,.836.647,3.619,3.619,0,0,1,.3-1.2,1.439,1.439,0,0,1,1.723.136,1.636,1.636,0,0,1,.474,1.792,2.164,2.164,0,0,0,.751-1.647c.152.353.3.7.456,1.052a4.394,4.394,0,0,0-1.106-4.269c.375-.008.749-.02,1.119-.026a1.167,1.167,0,0,1-.867-1.262,2.5,2.5,0,0,1,1.126-1.57,6.516,6.516,0,0,0,1.51-1.268c.059.231.112.459.167.691a1.678,1.678,0,0,0,.912-1.5,3.872,3.872,0,0,0,2.837,1.817c-.052-.432.049-.935,0-1.367a2.556,2.556,0,0,0,3.248,2c-.246-.043-.335-.322-.348-.568a3.4,3.4,0,0,0,5.258-.046,1.358,1.358,0,0,1-1.9-.816,1.566,1.566,0,0,1-.033-.543,4.094,4.094,0,0,0,2.3-.733,1,1,0,0,1-.451-.025,1.532,1.532,0,0,1-.86-.7,6.291,6.291,0,0,1-.512-1.507,2.266,2.266,0,0,0-.813-1.33,1.13,1.13,0,0,0-.469-.17,2.051,2.051,0,0,0,.477-1.878,2.428,2.428,0,0,1-2.385.31c-.8-.257-1.53-.72-2.341-.955a4.493,4.493,0,0,0-3.6.547,3.117,3.117,0,0,0-.74-.218,3.182,3.182,0,0,0-2.436.638,3.84,3.84,0,0,0-3.634,1.424,4.1,4.1,0,0,0-.455,4.013c-.386-.178-.777-.36-1.164-.543a1.528,1.528,0,0,0,.5,1.509,2.191,2.191,0,0,0-1.908.907l1.153.069a2.281,2.281,0,0,0,.8,4.091" transform="translate(-80.122 -82.995)" fill="#2a2b2b"/>
            <path id="Trazado_1179627" data-name="Trazado 1179627" d="M120.959,135.875a2.332,2.332,0,0,0,.75,1.28,2.286,2.286,0,0,0,.979.506,2.073,2.073,0,0,0-.282,1.789,2.419,2.419,0,0,0,.362.713,2.02,2.02,0,0,0,1.157-1.927,1.867,1.867,0,0,0,.381-1.6,1.63,1.63,0,0,1,.836.943c-.209-1.192-.423-2.388-.632-3.584l1.073.74a2.413,2.413,0,0,1,.879-3.149c.05.281.1.556.152.837a2.946,2.946,0,0,0,1.874-2.13c.271.423.537.844.807,1.263.218-.5.436-1,.653-1.5q1.047.672,2.1,1.348c.123-.514.247-1.028.371-1.538a3.345,3.345,0,0,0,2.54,2.461c-.014-.39-.025-.784-.038-1.174a3.266,3.266,0,0,0,3.207,1.51c-.263-.509-.523-1.022-.783-1.531a4.336,4.336,0,0,0,3.737.32,1.533,1.533,0,0,1-.859-.7,3.622,3.622,0,0,1-.357-.922c-.052-.192-.1-.389-.155-.585a2.266,2.266,0,0,0-.813-1.33,1.131,1.131,0,0,0-.469-.17,2.05,2.05,0,0,0,.476-1.878,2.428,2.428,0,0,1-2.384.31c-.8-.257-1.53-.72-2.341-.956a4.493,4.493,0,0,0-3.6.547,3.118,3.118,0,0,0-.74-.218,3.182,3.182,0,0,0-2.436.638,3.841,3.841,0,0,0-3.634,1.424,4.1,4.1,0,0,0-.455,4.014c-.386-.179-.777-.36-1.164-.543a1.528,1.528,0,0,0,.5,1.509,2.191,2.191,0,0,0-1.908.908l1.153.068a2.333,2.333,0,0,0-.929,2.3" transform="translate(-80.123 -82.996)" fill="#444"/>
            <path id="Trazado_1179628" data-name="Trazado 1179628" d="M120.959,135.875a2.332,2.332,0,0,0,.75,1.28,2.6,2.6,0,0,0,1.05-2.591c.186.228.372.456.561.684-.034-.687-.072-1.373-.106-2.059.328.3.659.59.987.885a5.3,5.3,0,0,1,.807-3.338c.318.177.639.349.958.525a3.151,3.151,0,0,1-.781-1.971,1.538,1.538,0,0,1,2.595-.965,1.177,1.177,0,0,1,2.214-.681,2.287,2.287,0,0,1,2.455-.133,6.78,6.78,0,0,1,1.941,1.71c.016-.51.032-1.024.047-1.538a3.191,3.191,0,0,0,3.087,1.968c-.322-.392-.641-.788-.963-1.18q1.68.614,3.3,1.36c-.052-.192-.1-.389-.155-.585a2.266,2.266,0,0,0-.813-1.33,1.131,1.131,0,0,0-.469-.17,2.05,2.05,0,0,0,.476-1.878,2.428,2.428,0,0,1-2.384.31c-.8-.257-1.53-.72-2.341-.956a4.493,4.493,0,0,0-3.6.547,3.118,3.118,0,0,0-.74-.218,3.182,3.182,0,0,0-2.436.638,3.841,3.841,0,0,0-3.634,1.424,4.1,4.1,0,0,0-.455,4.014c-.386-.179-.777-.36-1.164-.543a1.528,1.528,0,0,0,.5,1.509,2.191,2.191,0,0,0-1.908.908l1.153.068a2.333,2.333,0,0,0-.929,2.3" transform="translate(-80.123 -82.996)" fill="#595959"/>
            <path id="Trazado_1179629" data-name="Trazado 1179629" d="M133.32,172.987a4.559,4.559,0,0,1-3.392-1.264,3.638,3.638,0,0,1-.381-.419c-.536-.7-1.053-3.345-.057-4.125a1.179,1.179,0,0,1,1.673.375h0a2.531,2.531,0,0,1,.219.289Z" transform="translate(-85.558 -110.793)" fill="#f8bf92"/>
            <path id="Trazado_1179630" data-name="Trazado 1179630" d="M133.751,173.429a4.559,4.559,0,0,1-3.392-1.264q-.091-.1-.162-.2c-.536-.7-1.053-3.345-.057-4.124a1.056,1.056,0,0,1,1.454.151h0a2.528,2.528,0,0,1,.219.289Z" transform="translate(-85.99 -111.235)" fill="#f3a080"/>
            <path id="Trazado_1179631" data-name="Trazado 1179631" d="M130.509,172.97a1.154,1.154,0,0,0,.146.637,5.306,5.306,0,0,0,2.37,1.9,2.263,2.263,0,0,1-.507-1.353c-.006-.169,0-.338-.018-.5-.093-.67-1.855-1.986-1.99-.681" transform="translate(-86.607 -114.42)" fill="#ea7c6f"/>
            <path id="Trazado_1179632" data-name="Trazado 1179632" d="M133.854,175.64l-.052-.02c-.034-.014-.087-.032-.15-.062a1.96,1.96,0,0,1-.478-.318,1.737,1.737,0,0,1-.451-.657,1.5,1.5,0,0,1-.032-.954.867.867,0,0,1,.045-.126l.013-.031c0-.008,0,0,0,0h0l0,0-.018-.024-.036-.046c-.025-.031-.049-.061-.074-.09a4.125,4.125,0,0,0-.312-.329c-.107-.1-.215-.192-.321-.274a2.493,2.493,0,0,0-.307-.211.6.6,0,0,0-.294-.081.442.442,0,0,0-.229.074.225.225,0,0,0-.09.11.2.2,0,0,0-.008.047.11.11,0,0,1,0-.048.213.213,0,0,1,.07-.135.485.485,0,0,1,.257-.125.763.763,0,0,1,.381.05,2.409,2.409,0,0,1,.368.189,3.637,3.637,0,0,1,.374.259,3.294,3.294,0,0,1,.359.331c.029.031.056.062.084.094l.041.048.055.069.038.048c-.005.019-.014.038-.022.057l-.032.082a.681.681,0,0,0-.038.11,1.579,1.579,0,0,0-.015.849,1.8,1.8,0,0,0,.326.643,1.992,1.992,0,0,0,.383.364c.052.039.1.064.127.084l.045.029" transform="translate(-86.971 -114.361)" fill="#b54b57"/>
            <g id="Grupo_1230946" data-name="Grupo 1230946" transform="translate(44.54 109.572)" opacity="0.4" style="mix-blend-mode: multiply;isolation: isolate">
              <g id="Grupo_1230945" data-name="Grupo 1230945">
                <g id="Grupo_1230944" data-name="Grupo 1230944" clip-path="url(#clip-path-5)">
                  <path id="Trazado_1179633" data-name="Trazado 1179633" d="M132.414,326.4s20.58-.817,21.478-.624-20.18,5.736-20.18,5.736l11.8-4.323Z" transform="translate(-132.414 -325.751)" fill="#6c271c"/>
                </g>
              </g>
            </g>
            <path id="Trazado_1179634" data-name="Trazado 1179634" d="M133.161,166.984a33.662,33.662,0,0,1,2.886,3.476,14.05,14.05,0,0,1,.084,2.528,12.285,12.285,0,0,1-2.421-.557s.594,1.143.843,1.224,1.809.831,1.809.831,4.4,3.311,8.677,2.58,3.54-7.412,3.436-7.687a1.911,1.911,0,0,0-.468-.582s-4.362.111-4.785.167-5.38,1.651-5.38,1.651-4.1-4.075-4.681-3.632" transform="translate(-88.37 -110.794)" fill="#f7f0de"/>
            <g id="Grupo_1230949" data-name="Grupo 1230949" transform="translate(50.426 58.784)" opacity="0.1" style="mix-blend-mode: multiply;isolation: isolate">
              <g id="Grupo_1230948" data-name="Grupo 1230948">
                <g id="Grupo_1230947" data-name="Grupo 1230947" clip-path="url(#clip-path-6)">
                  <path id="Trazado_1179635" data-name="Trazado 1179635" d="M158.1,174.964a3.671,3.671,0,0,0-1.02-.164c-.347-.028-.7-.04-1.046-.038a11.049,11.049,0,0,0-2.19.25,11.75,11.75,0,0,0-3.907,1.626c-.053.034,0,.11.057.077a11.565,11.565,0,0,1,3.966-1.47,12.9,12.9,0,0,1,2-.189c.37-.008.74,0,1.109.031a8.255,8.255,0,0,0,.987.085.11.11,0,0,0,.04-.209" transform="translate(-149.915 -174.762)" fill="#6c271c"/>
                </g>
              </g>
            </g>
            <g id="Grupo_1230952" data-name="Grupo 1230952" transform="translate(49.705 60.84)" opacity="0.1" style="mix-blend-mode: multiply;isolation: isolate">
              <g id="Grupo_1230951" data-name="Grupo 1230951">
                <g id="Grupo_1230950" data-name="Grupo 1230950" clip-path="url(#clip-path-7)">
                  <path id="Trazado_1179636" data-name="Trazado 1179636" d="M156.571,180.879c-.359.093-.7.26-1.052.381s-.675.226-1.019.323a17.763,17.763,0,0,1-2.212.469,15.7,15.7,0,0,1-4.455-.04.053.053,0,0,0-.02.1,16.963,16.963,0,0,0,4.541.107,15,15,0,0,0,2.19-.385,8.1,8.1,0,0,0,2.146-.742c.132-.079.014-.251-.117-.216" transform="translate(-147.769 -180.875)" fill="#6c271c"/>
                </g>
              </g>
            </g>
            <g id="Grupo_1230955" data-name="Grupo 1230955" transform="translate(50.175 63.548)" opacity="0.1" style="mix-blend-mode: multiply;isolation: isolate">
              <g id="Grupo_1230954" data-name="Grupo 1230954">
                <g id="Grupo_1230953" data-name="Grupo 1230953" clip-path="url(#clip-path-8)">
                  <path id="Trazado_1179637" data-name="Trazado 1179637" d="M157.117,189.01a3.426,3.426,0,0,1-3.458,1.613,20.7,20.7,0,0,1-4.419-1.336c-.059-.019-.1.063-.042.086a15.291,15.291,0,0,0,4.758,1.454,3.615,3.615,0,0,0,3.446-1.688c.091-.176-.2-.306-.285-.129" transform="translate(-149.169 -188.925)" fill="#6c271c"/>
                </g>
              </g>
            </g>
            <path id="Trazado_1179638" data-name="Trazado 1179638" d="M175.238,206.883s3.62,1.251,5.056,1.926,9.181,28.931,7.757,30.211-9.394,3.274-9.394,3.274l-14.275-11.818L171.4,224Z" transform="translate(-109.089 -137.294)" fill="#6c271c"/>
            <path id="Trazado_1179639" data-name="Trazado 1179639" d="M153.767,252.51l-1.08.258-1.145,1.325-1.064-.932-1.21-1.058-.017-.017-.7-.617.286-.388.008-.011s-.185-.256-.41-.645c-.025-.051-.056-.1-.087-.157-.053-.1-.11-.211-.166-.326-.036-.076-.07-.157-.107-.236s-.067-.162-.1-.25-.059-.166-.087-.25l0,0a3.88,3.88,0,0,1-.123-.488,2.023,2.023,0,0,1,.05-1.1c.028-.067.053-.138.081-.2l.109-.3c.059-.171.118-.34.169-.511a4.6,4.6,0,0,0,.227-1.445c0-.053,0-.107,0-.165-.011-.219-.034-.435-.042-.657,0-.109-.005-.219,0-.331,0-.059.008-.12.014-.182a1.538,1.538,0,0,1,.02-.165c.008-.042.014-.084.025-.126s.023-.081.034-.123a1.662,1.662,0,0,1,.087-.233,1.329,1.329,0,0,1,.286-.407l.062-.053.068-.048a.324.324,0,0,1,.034-.022.133.133,0,0,1,.034-.02.312.312,0,0,1,.076-.023.161.161,0,0,1,.093.02.186.186,0,0,1,.034.017.4.4,0,0,1,.107.109.266.266,0,0,1,.025.028c.006.011.014.023.02.031a5.577,5.577,0,0,1,.822,3.592s5.8-5.321,6.206-5.032a1.121,1.121,0,0,1,.308.345,1.039,1.039,0,0,1,.135.368s-3.466,4.182-3.466,4.44a28.725,28.725,0,0,0,3.306-2.091,3.277,3.277,0,0,1,1.078-.55.558.558,0,0,1,.354.3,2.543,2.543,0,0,1,.188.393c.02.045.036.09.053.135a5.11,5.11,0,0,1,.18.578l.118.118h0v0c.025.026.05.051.079.081.087.09.2.211.306.345a2.913,2.913,0,0,1,.256.348c.264.427-4.771,6.049-5.521,6.337" transform="translate(-98.023 -160.165)" fill="#ea7c6f"/>
            <g id="Grupo_1230958" data-name="Grupo 1230958" transform="translate(39.719 78.722)" opacity="0.4" style="mix-blend-mode: multiply;isolation: isolate">
              <g id="Grupo_1230957" data-name="Grupo 1230957">
                <g id="Grupo_1230956" data-name="Grupo 1230956" clip-path="url(#clip-path-9)">
                  <path id="Trazado_1179640" data-name="Trazado 1179640" d="M131.882,249.242l-2.995-2.624-1.85-1.592-5.442,5.159.666-16.149-2.525,17.912-1.654,1.568,8.955-6.28,4.933,4.424s-9.332,10.076-9.709,9.965-3.748-.447-3.748-.447a22,22,0,0,0,3.971,1.387c.8,0,11.359-11.108,11.359-11.108Z" transform="translate(-118.082 -234.035)" fill="#6c271c"/>
                </g>
              </g>
            </g>
            <path id="Trazado_1179641" data-name="Trazado 1179641" d="M173.6,250.275c-.1.1-.211.193-.322.288a12.114,12.114,0,0,1-1.785,1.26c-.456.263-.766.4-.8.421.027-.03.257-.281.627-.65.4-.395.947-.924,1.585-1.469.154-.132.306-.257.453-.378a2.865,2.865,0,0,1,.244.528" transform="translate(-113.279 -165.74)" fill="#b54b57"/>
            <path id="Trazado_1179642" data-name="Trazado 1179642" d="M177.349,253.812a12.785,12.785,0,0,1-2.043,1.484,12.836,12.836,0,0,1,1.659-1.913c.1.1.243.256.384.429" transform="translate(-116.339 -168.153)" fill="#b54b57"/>
            <path id="Trazado_1179643" data-name="Trazado 1179643" d="M149.621,253.921a.906.906,0,0,1-.1.278,2.947,2.947,0,0,1-.208.306l-.062.039-.7-.617.286-.387.008-.011s-.185-.255-.41-.645c-.025-.051-.056-.1-.087-.157-.053-.1-.109-.21-.165-.325-.037-.076-.07-.157-.107-.236s-.068-.163-.1-.25-.059-.165-.087-.25l0,0a3.934,3.934,0,0,1-.123-.488,2.034,2.034,0,0,1,.056-1.106l.076-.2.11-.3c.059-.171.118-.34.169-.511a4.591,4.591,0,0,0,.227-1.445c0-.053,0-.107,0-.165-.011-.219-.034-.435-.042-.657,0-.109-.006-.219,0-.331,0-.059.008-.121.014-.183a1.639,1.639,0,0,1,.02-.165c.008-.042.014-.084.025-.126s.023-.081.034-.124a1.665,1.665,0,0,1,.087-.233,1.337,1.337,0,0,1,.287-.407l.062-.053a.4.4,0,0,1,.067-.05c.011-.008.026-.014.034-.02a.134.134,0,0,1,.034-.02.293.293,0,0,1,.076-.022.157.157,0,0,1,.092.02.178.178,0,0,1,.034.017.4.4,0,0,1,.107.11.177.177,0,0,1,.022.028c-.042.087-.087.169-.123.25a7.17,7.17,0,0,0-.258,2.217,16.984,16.984,0,0,0-.477,3.042,7,7,0,0,0,.94,2.419,1.267,1.267,0,0,1,.194.769" transform="translate(-98.028 -162.623)" fill="#f3a080"/>
            <path id="Trazado_1179644" data-name="Trazado 1179644" d="M153.056,247.909l1.1.148,1.274,1.2.962-1.035,1.1-1.174.016-.016.635-.687c-.164-.188-.3-.328-.324-.36l-.008-.008a7.075,7.075,0,0,0,.339-.683c.024-.052.048-.108.072-.164.044-.108.092-.224.136-.343.024-.08.052-.16.08-.244s.052-.172.076-.259.044-.172.06-.256l0,0a3.3,3.3,0,0,0,.064-.391,2.5,2.5,0,0,0,.024-.343,2.264,2.264,0,0,0-.1-.663,1.719,1.719,0,0,0-.08-.2c-.02-.04-.04-.08-.064-.12-.06-.12-.12-.24-.176-.367-.076-.16-.152-.324-.22-.487a4.479,4.479,0,0,1-.371-1.418c0-.052-.008-.108-.016-.164-.012-.22-.012-.435-.024-.659-.008-.108-.016-.22-.032-.327-.008-.06-.02-.12-.028-.18s-.028-.112-.04-.163a2.087,2.087,0,0,0-.136-.356.578.578,0,0,0-.06-.112,1.261,1.261,0,0,0-.323-.371.851.851,0,0,0-.14-.092c-.008,0-.012-.008-.016-.008l-.02-.008a.077.077,0,0,0-.032-.016.176.176,0,0,0-.08-.016.144.144,0,0,0-.088.028.088.088,0,0,0-.032.02.4.4,0,0,0-.1.12.2.2,0,0,0-.024.032c0,.012-.012.02-.016.032A5.6,5.6,0,0,0,156,241.46s-6.314-4.708-6.681-4.381a1.1,1.1,0,0,0-.275.375,1.026,1.026,0,0,0-.092.375s3.874,3.818,3.894,4.069a28.841,28.841,0,0,1-3.5-1.745,3.356,3.356,0,0,0-1.126-.443.572.572,0,0,0-.32.339,2.735,2.735,0,0,0-.188.551,5.037,5.037,0,0,0-.12.591s-.044.052-.108.132h0l-.068.091c-.056.076-.128.168-.2.268-.024.036-.048.068-.068.1a3,3,0,0,0-.22.371c-.224.455,5.355,5.539,6.13,5.751" transform="translate(-97.501 -157.323)" fill="#f3a080"/>
            <path id="Trazado_1179645" data-name="Trazado 1179645" d="M149.273,246.5c.113.085.229.171.349.254a12.075,12.075,0,0,0,1.9,1.073c.48.215.8.325.842.337-.03-.027-.284-.253-.69-.583-.434-.353-1.035-.824-1.725-1.3q-.25-.173-.489-.33a2.839,2.839,0,0,0-.19.55" transform="translate(-99.063 -163.218)" fill="#b54b57"/>
            <path id="Trazado_1179646" data-name="Trazado 1179646" d="M147.585,250.191a12.786,12.786,0,0,0,2.182,1.27,12.789,12.789,0,0,0-1.843-1.736c-.086.111-.216.279-.339.465" transform="translate(-97.942 -165.727)" fill="#b54b57"/>
            <path id="Trazado_1179647" data-name="Trazado 1179647" d="M175.965,241.187a17.31,17.31,0,0,1,.783,2.979,6.982,6.982,0,0,1-.691,2.5,1.283,1.283,0,0,0-.116.783.816.816,0,0,0,.124.267,3.248,3.248,0,0,0,.235.284l.068.036.635-.687c-.164-.188-.3-.327-.324-.359l-.008-.008a7.116,7.116,0,0,0,.34-.683c.024-.052.048-.108.072-.164.044-.108.092-.224.136-.343.024-.08.052-.16.08-.244s.052-.172.076-.259.044-.172.06-.256l0,0a3.363,3.363,0,0,0,.064-.391,2.556,2.556,0,0,0,.024-.343,2.255,2.255,0,0,0-.1-.663,1.687,1.687,0,0,0-.084-.2l-.06-.12c-.06-.124-.12-.244-.176-.367-.076-.16-.152-.324-.22-.487a4.5,4.5,0,0,1-.371-1.418c0-.052-.008-.108-.016-.164-.012-.22-.012-.435-.024-.659-.008-.108-.016-.22-.032-.327-.008-.06-.02-.12-.028-.18s-.028-.112-.04-.163a1.6,1.6,0,0,0-.136-.356.63.63,0,0,0-.06-.112,1.251,1.251,0,0,0-.324-.371.834.834,0,0,0-.14-.1l-.016,0-.02-.008a.08.08,0,0,0-.032-.016.181.181,0,0,0-.08-.016.146.146,0,0,0-.088.028.089.089,0,0,0-.032.02.406.406,0,0,0-.1.119.153.153,0,0,0-.02.032c.048.08.1.156.148.235a7.187,7.187,0,0,1,.479,2.18" transform="translate(-116.36 -158.324)" fill="#f8bf92"/>
            <g id="Grupo_1230961" data-name="Grupo 1230961" transform="translate(55.963 72.572)" opacity="0.4" style="mix-blend-mode: multiply;isolation: isolate">
              <g id="Grupo_1230960" data-name="Grupo 1230960">
                <g id="Grupo_1230959" data-name="Grupo 1230959" clip-path="url(#clip-path-10)">
                  <path id="Trazado_1179648" data-name="Trazado 1179648" d="M166.374,237.137l4.68-4.932,2.709-2.722,1.771,1.373s-1.6-10.788-1.391-11.357,1.748-3.747,1.748-3.747l-.357,4.316,1.741,12.17,5.622,4.677-8.967-4.393-4.644,4.843,11.12,9.819Z" transform="translate(-166.374 -215.752)" fill="#6c271c"/>
                </g>
              </g>
            </g>
            <path id="Trazado_1179649" data-name="Trazado 1179649" d="M332.756,386.516a120.869,120.869,0,0,1,.474,12.609c-.326,2.407,4.893,39.05,4.893,39.05l-4.794,1.088-1.173.266s-7.2-25.886-8.047-30.863q-.021-.133-.036-.241a3.26,3.26,0,0,1-.04-.423c-.03-3.309.8-9.776.8-9.776-.189-.484-1.144-4.659-2.221-9.5.526-.081,1.056-.167,1.581-.257l.377-.063a76.1,76.1,0,0,0,8.184-1.889" transform="translate(-214.098 -256.505)" fill="#f3a080"/>
            <path id="Trazado_1179650" data-name="Trazado 1179650" d="M325.786,413.1l7.543,29.887-1.173.266s-7.2-25.887-8.047-30.863c-.014-.088-.026-.169-.036-.241a3.248,3.248,0,0,1-.04-.423c-.03-3.309.8-9.776.8-9.776-.189-.484-1.144-4.659-2.221-9.5.526-.082,1.056-.168,1.581-.257l.377-.064,1.85,8.813Z" transform="translate(-214.098 -260.232)" fill="#ea7c6f"/>
            <path id="Trazado_1179651" data-name="Trazado 1179651" d="M269.367,396.378a120.516,120.516,0,0,1-5.415,11.4c-1.4,1.982-15.074,37.666-15.074,37.666l-3.53-1.885-1.825-.974s6.308-25.934,7.93-30.6c.056-.156.108-.287.148-.395.022-.054.042-.1.063-.141l.026-.055c1.507-2.944,5.238-8.292,5.238-8.292.053-.517,1.139-4.66,2.426-9.453.623.214,1.254.422,1.883.623a76.724,76.724,0,0,0,8.131,2.116" transform="translate(-161.61 -261.232)" fill="#f3a080"/>
            <path id="Trazado_1179652" data-name="Trazado 1179652" d="M261.236,394.262l-2.438,8.672-6.188,10.482-7.262,30.138-1.825-.974s6.308-25.934,7.93-30.6c.056-.156.108-.287.148-.394.022-.055.042-.1.063-.141l.026-.055c1.506-2.944,5.237-8.293,5.237-8.293.053-.516,1.139-4.66,2.426-9.453.623.214,1.254.422,1.883.623" transform="translate(-161.61 -261.232)" fill="#ea7c6f"/>
            <path id="Trazado_1179653" data-name="Trazado 1179653" d="M291.278,373.514c-3.073-11.117-12.814-42.6-17.359-57.218H247.041c.107,3.32,3.07,16.186,3.07,16.186l-6.484,47c19.47,4.733,48.173-4.017,48.173-4.017-.144-.551-.318-1.2-.522-1.95" transform="translate(-161.679 -209.905)" fill="#361613"/>
            <path id="Trazado_1179654" data-name="Trazado 1179654" d="M291.278,373.514l-42.772,1.829s5.3-41.046,5.37-42.648c.05-1.087-1.949-10.5-3.23-16.4h-3.6c.107,3.32,3.07,16.186,3.07,16.186l-6.484,47c19.47,4.733,48.173-4.017,48.173-4.017-.144-.551-.318-1.2-.522-1.95" transform="translate(-161.679 -209.905)" fill="#260d0c"/>
            <path id="Trazado_1179655" data-name="Trazado 1179655" d="M281.5,159.546a5.851,5.851,0,0,1,1.335-2.381c.372.651.959,1.618,1.675,1.855-.015-.344.364-1.627.275-1.819a3.887,3.887,0,0,0,2.952,2.166,4.267,4.267,0,0,1-.382-1.589,8.913,8.913,0,0,0,4.323,2.426,2.719,2.719,0,0,1-.158-1.653,8.223,8.223,0,0,0,4.583,2.119,5.113,5.113,0,0,0,4.536-1.883,1.851,1.851,0,0,1-.3,1.771,3.272,3.272,0,0,0,2.407-2.409,3.484,3.484,0,0,1,.07,2.276,5.148,5.148,0,0,0,1.536-1.8,2.648,2.648,0,0,0,.042-2.3,7.458,7.458,0,0,1-.628-1.086c-.31-.959.49-1.946.435-2.954-.066-1.181-1.243-1.976-1.705-3.064-.507-1.2-.1-2.567-.127-3.869a5.044,5.044,0,0,0-.18-1.225,6.983,6.983,0,0,0-4.754-4.5c-3-.964-5.407-2.411-8.71-1.433a6.139,6.139,0,0,0-2.538,1.384c-1.57,1.5-1.891,3.862-2.969,5.749a12.311,12.311,0,0,0-1.483,2.713c-.315,1.16-.006,2.4-.19,3.594-.224,1.456-1.166,2.728-1.374,4.185-.01.08-.019.163-.025.243a4.353,4.353,0,0,0,1.35,3.484" transform="translate(-185.91 -91.493)" fill="#2a2b2b"/>
            <path id="Trazado_1179656" data-name="Trazado 1179656" d="M289.834,216.431s1.272,5.811,1.092,7.083a14.475,14.475,0,0,1-1.995,3.638c-.766,1.14-1.458,2.082-1.458,2.082l-2.09,7c1.305,2.259,4.179,10.493,4.179,10.493H264.292A29.009,29.009,0,0,1,261.765,239c-.084-.529-.149-1.067-.183-1.6-.3-4.668,6.331-31.116,6.331-31.116.9-.6,3.472-1.072,5.535-1.368,1.581-.225,2.862-.346,2.862-.346s5.6.284,7.3.329h.056c1.632.045,8.538,2.428,8.538,2.428Z" transform="translate(-173.588 -135.754)" fill="#e6952f"/>
            <g id="Grupo_1230964" data-name="Grupo 1230964" transform="translate(88.177 79.033)" opacity="0.5" style="mix-blend-mode: multiply;isolation: isolate">
              <g id="Grupo_1230963" data-name="Grupo 1230963">
                <g id="Grupo_1230962" data-name="Grupo 1230962" clip-path="url(#clip-path-11)">
                  <path id="Trazado_1179657" data-name="Trazado 1179657" d="M289.942,266.906H264.673a29.017,29.017,0,0,1-2.527-7.735,11.292,11.292,0,0,0,5.636,2.743,11.43,11.43,0,0,0,10.122-3.506,24.117,24.117,0,0,1,2.819-12.7,71.877,71.877,0,0,1,7.561-10.741,101.532,101.532,0,0,0,1.027,12.364c-.765,1.14-1.457,2.082-1.457,2.082l-2.091,7c1.306,2.259,4.179,10.493,4.179,10.493" transform="translate(-262.146 -234.962)" fill="#e6952f"/>
                </g>
              </g>
            </g>
            <path id="Trazado_1179658" data-name="Trazado 1179658" d="M321.457,224.338s-4.519,18.733-4.134,21.943,2.919,14.643,2.919,14.643l8.949,1.457-5.725-13.018,1.934-6.5s3.54-4.884,3.79-6.5-.888-7.138-.888-7.138l-3.164-3.06Z" transform="translate(-210.571 -148.878)" fill="#6c271c"/>
            <path id="Trazado_1179659" data-name="Trazado 1179659" d="M296.374,205.967c.186.959,2.149,4.312,4.359,5.358a4.934,4.934,0,0,0,5.8-1.7c.685-1.035.393-3.44.169-4.737-1.7-.044-7.307-.33-7.307-.33s-1.28.122-2.861.346a2.268,2.268,0,0,0-.158,1.063" transform="translate(-196.672 -135.752)" fill="#f7f0de"/>
            <path id="Trazado_1179660" data-name="Trazado 1179660" d="M307.939,196.01a6.436,6.436,0,0,0,4.028.309c.295-1.566.745-3.434.745-3.434l-5.243-1.18a27.6,27.6,0,0,1-.8,3.2,2.979,2.979,0,0,0,1.275,1.1" transform="translate(-203.513 -127.222)" fill="#ea7c6f"/>
            <path id="Trazado_1179661" data-name="Trazado 1179661" d="M302.756,203.507l.029-.014a4.226,4.226,0,0,0,1.285-2.265,2.98,2.98,0,0,0,1.275,1.1,6.434,6.434,0,0,0,4.028.309,10.284,10.284,0,0,0-.246,1.924,2.213,2.213,0,0,0,.6.9c-.156.983-.592,1.955-1.867,1.955-2.793,0-5.109-3.093-5.109-3.908" transform="translate(-200.919 -133.542)" fill="#f3a080"/>
            <path id="Trazado_1179662" data-name="Trazado 1179662" d="M299.854,159.851a.014.014,0,0,0,0,.008,4.6,4.6,0,0,0,.291.8c.808,1.577,4.928,4.039,5.822,4.448s3.437,1.314,5.66-2.3,1.836-11.871,1.064-14.212a1.693,1.693,0,0,0-.105-.251,4.142,4.142,0,0,0-1.044-1.241,8.028,8.028,0,0,0-10.382.051A8.255,8.255,0,0,0,299,149.532c-.671,1.629.1,7.791.853,10.318" transform="translate(-198.257 -96.37)" fill="#f8bf92"/>
            <path id="Trazado_1179663" data-name="Trazado 1179663" d="M299.854,159.851a.014.014,0,0,0,0,.008c.024.065.052.121.077.174.809,1.577,4.929,4.039,5.823,4.447s3.437,1.314,5.656-2.3c2.119-3.449,1.872-11.1,1.177-13.84a4.142,4.142,0,0,0-1.044-1.241,8.028,8.028,0,0,0-10.382.051A8.255,8.255,0,0,0,299,149.532c-.671,1.629.1,7.791.853,10.318" transform="translate(-198.257 -96.37)" fill="#f3a080"/>
            <path id="Trazado_1179664" data-name="Trazado 1179664" d="M325.938,183.288a1.383,1.383,0,0,0-.605-.076,1.966,1.966,0,0,0,1.2.882.3.3,0,0,0,.116.011.3.3,0,0,0,.126-.067,2.318,2.318,0,0,0,.591-.686.445.445,0,0,0,.065-.171c.02-.2-.109-.142-.22-.08a1.8,1.8,0,0,1-.408.164,1.82,1.82,0,0,1-.861.022" transform="translate(-215.902 -121.473)" fill="#ea7c6f"/>
            <path id="Trazado_1179665" data-name="Trazado 1179665" d="M328.637,176.995c.106-.123.228-.232.337-.353a3.061,3.061,0,0,0,.36-.481c-.7-.356-.779-1.023-.849-1.784a2.221,2.221,0,0,1,.4-1.488,2.264,2.264,0,0,1,.174-.214.8.8,0,0,1,.2-.152c-.033.05-.053.106-.083.157a4.25,4.25,0,0,0-.222.4,2.752,2.752,0,0,0-.151.438,2.7,2.7,0,0,0-.072.921,2.239,2.239,0,0,0,.261.866,1.762,1.762,0,0,0,.749.74s-.369.567-.406.614a2.32,2.32,0,0,1-.324.334.805.805,0,0,1-.408.228.258.258,0,0,1-.144-.023.489.489,0,0,0,.067-.07l.025-.034c.025-.034.05-.066.077-.1" transform="translate(-217.982 -114.492)" fill="#dd5b67"/>
            <path id="Trazado_1179666" data-name="Trazado 1179666" d="M297.068,176.583c-.218-.145-1.179-1.859-2.141-1.035a2.7,2.7,0,0,0-.743,3.331c.6.9,1.475,1.9,2.732,1.758Z" transform="translate(-195.022 -116.352)" fill="#f3a080"/>
            <path id="Trazado_1179667" data-name="Trazado 1179667" d="M296.472,178.716a1.193,1.193,0,0,0-.036.634,5.054,5.054,0,0,0,1.59,2.4,2.316,2.316,0,0,1-.1-1.4c.038-.159.091-.316.114-.478.091-.652-1.116-2.342-1.573-1.154" transform="translate(-196.707 -118.329)" fill="#ea7c6f"/>
            <path id="Trazado_1179668" data-name="Trazado 1179668" d="M298.966,182.045l-.041-.033c-.026-.022-.068-.052-.115-.1a1.814,1.814,0,0,1-.337-.421,1.731,1.731,0,0,1-.227-.733,1.544,1.544,0,0,1,.218-.9.866.866,0,0,1,.072-.107l.019-.026,0,0h0l0,0-.009-.027-.02-.053c-.014-.035-.027-.07-.042-.1a3.911,3.911,0,0,0-.189-.389c-.068-.122-.139-.236-.211-.34a2.406,2.406,0,0,0-.215-.277.539.539,0,0,0-.238-.152.38.38,0,0,0-.221.01.215.215,0,0,0-.108.08.192.192,0,0,0-.019.042.188.188,0,0,1,.008-.046.209.209,0,0,1,.1-.108.426.426,0,0,1,.258-.05.669.669,0,0,1,.322.146,2.229,2.229,0,0,1,.274.272,3.4,3.4,0,0,1,.261.339,3.111,3.111,0,0,1,.23.4c.018.036.034.073.05.11l.023.056.03.079.021.055c-.009.016-.023.032-.034.048l-.049.068a.75.75,0,0,0-.062.093,1.626,1.626,0,0,0-.232.792,1.815,1.815,0,0,0,.12.687,1.909,1.909,0,0,0,.243.44c.036.05.07.085.09.112l.032.039" transform="translate(-197.288 -118.327)" fill="#b54b57"/>
            <path id="Trazado_1179669" data-name="Trazado 1179669" d="M334.522,168.127s-.882-1.182-1.6-1.311-1.113.456-.872.661a15.784,15.784,0,0,0,2.475.65" transform="translate(-220.31 -110.692)" fill="#444"/>
            <path id="Trazado_1179670" data-name="Trazado 1179670" d="M310.733,167.043a8.546,8.546,0,0,1,3.009-1.32c1.151-.068,1.079.683.623.891a28.9,28.9,0,0,1-3.632.429" transform="translate(-206.213 -109.976)" fill="#444"/>
            <path id="Trazado_1179671" data-name="Trazado 1179671" d="M311.436,182.485c-.066.344-.855.482-1.763.308s-1.591-.593-1.525-.937.855-.482,1.763-.308,1.591.593,1.525.937" transform="translate(-204.494 -120.431)" fill="#ea7c6f"/>
            <path id="Trazado_1179672" data-name="Trazado 1179672" d="M339.43,180.41c.1.246-.421.687-1.162.986s-1.422.341-1.521.1.421-.687,1.162-.986,1.422-.341,1.521-.1" transform="translate(-223.469 -119.62)" fill="#ea7c6f"/>
            <path id="Trazado_1179673" data-name="Trazado 1179673" d="M312.745,174.233a2.042,2.042,0,0,0,3.421-.5,1.826,1.826,0,0,1-1.445,1.751,1.928,1.928,0,0,1-1.976-1.253" transform="translate(-207.548 -115.296)" fill="#2a2b2b"/>
            <path id="Trazado_1179674" data-name="Trazado 1179674" d="M335,172.523a1.111,1.111,0,0,1-.566.451.469.469,0,0,0-.343-.192c-.333-.011-.618.413-.636.948s.237.977.57.989.618-.413.636-.948a1.456,1.456,0,0,0-.056-.46,1.786,1.786,0,0,0,.4-.788" transform="translate(-221.289 -114.492)" fill="#1d1e1e"/>
            <path id="Trazado_1179675" data-name="Trazado 1179675" d="M335.279,175.462a.932.932,0,1,0,.5-.417,1.072,1.072,0,0,0-.5.417" transform="translate(-222.502 -116.135)" fill="#fff"/>
            <path id="Trazado_1179676" data-name="Trazado 1179676" d="M326.088,166.885a.668.668,0,0,0-.165-1.185,1.768,1.768,0,0,1,.165,1.185" transform="translate(-216.293 -109.964)" fill="#ea7c6f"/>
            <path id="Trazado_1179677" data-name="Trazado 1179677" d="M328.384,166.846a.5.5,0,0,1-.227.854,1.461,1.461,0,0,0,.227-.854" transform="translate(-217.776 -110.725)" fill="#ea7c6f"/>
            <path id="Trazado_1179678" data-name="Trazado 1179678" d="M317.37,188.547a4.1,4.1,0,0,0,1.5-3.849,2.237,2.237,0,0,1,.222,2.17,3.147,3.147,0,0,1-1.722,1.679" transform="translate(-210.617 -122.572)" fill="#ea7c6f"/>
            <path id="Trazado_1179679" data-name="Trazado 1179679" d="M310.933,147.27a1.808,1.808,0,0,1-2.536,1.879,1.889,1.889,0,0,0,.2-2.541,2.031,2.031,0,0,1-2.577,2.253,2.169,2.169,0,0,0-.328-2.1,1.51,1.51,0,0,1-.621,1.578,3.727,3.727,0,0,1-1.689.592,2.4,2.4,0,0,0-.008-2.3,2.948,2.948,0,0,1-2.79,2.372,3.725,3.725,0,0,0-.054-1.879,5.955,5.955,0,0,1-3,3.909,10.706,10.706,0,0,1,.25,4.579,2.759,2.759,0,0,0-1.108-2.284,1.675,1.675,0,0,0-2.312.444c.163-1.4.266-2.883.429-4.279a6.853,6.853,0,0,1,2.272-5.076,13.542,13.542,0,0,1,2.282-2.13,4.547,4.547,0,0,1,2.94-.87c.932.092,1.794.568,2.726.668.342.037.689.023,1.026.088a4.261,4.261,0,0,1,1.422.657,10.1,10.1,0,0,1,2.378,1.892,4.542,4.542,0,0,1,1.094,2.554" transform="translate(-195.35 -93.834)" fill="#2a2b2b"/>
            <path id="Trazado_1179680" data-name="Trazado 1179680" d="M280.177,156.062a9.715,9.715,0,0,1,2.092-2.383,6.281,6.281,0,0,0,1.811-1.783c.516-1.008.27-2.295.854-3.264a3.374,3.374,0,0,0,1.133.82,2.161,2.161,0,0,1,.987-2.134c.668-.494,1.475-.765,2.183-1.2a5.53,5.53,0,0,0,2.567-4.038,3.361,3.361,0,0,1,.59,2.787,3.809,3.809,0,0,0,1.935-2.715,4.378,4.378,0,0,1,.915,2.466,4.164,4.164,0,0,0,1.344-2.371,2.858,2.858,0,0,1,1.234,2.6,2.505,2.505,0,0,0,1.454-2.256,2.7,2.7,0,0,1,1.348,3.275,2.639,2.639,0,0,0,1.6-1.735,5.373,5.373,0,0,0-.6-1.393,7.568,7.568,0,0,0-4.154-3.11c-3-.963-5.407-2.411-8.71-1.433a6.143,6.143,0,0,0-2.538,1.384c-1.57,1.5-1.891,3.862-2.969,5.749a12.312,12.312,0,0,0-1.483,2.713c-.311,1.145-.015,2.373-.184,3.55l-.006.044c-.224,1.456-1.167,2.728-1.373,4.186-.011.08-.019.162-.026.243" transform="translate(-185.935 -91.493)" fill="#444"/>
            <path id="Trazado_1179681" data-name="Trazado 1179681" d="M284.355,151.589a6.185,6.185,0,0,0,1.384-1.608c.765-1.329.983-3.117,2.311-3.886a1.733,1.733,0,0,0,.5,1.629c.3-1.747,1.794-3.011,3.237-4.04s3.024-2.094,3.657-3.75a7.091,7.091,0,0,1,1.152,2.413,11.621,11.621,0,0,0,1.021-1.961,9.283,9.283,0,0,1,.775,2.056,6.363,6.363,0,0,0,.936-1.99,5.644,5.644,0,0,1,1.969,2.3,5.721,5.721,0,0,0,.627-1.557,5.785,5.785,0,0,1,2.407,2.064c.028-.173.049-.346.064-.522a7.566,7.566,0,0,0-4.154-3.11c-3-.963-5.407-2.411-8.709-1.433a6.141,6.141,0,0,0-2.538,1.384c-1.57,1.5-1.891,3.862-2.969,5.749a12.327,12.327,0,0,0-1.483,2.713c-.31,1.145-.014,2.373-.184,3.55" transform="translate(-188.708 -91.493)" fill="#595959"/>
            <path id="Trazado_1179682" data-name="Trazado 1179682" d="M352.193,187.089l5.909-1.512.077,2.652Z" transform="translate(-233.727 -123.155)" fill="#f3ebda"/>
            <path id="Trazado_1179683" data-name="Trazado 1179683" d="M347.417,181.2l1.606-3.079,1.4,1.081Z" transform="translate(-230.558 -118.205)" fill="#f3ebda"/>
            <path id="Trazado_1179684" data-name="Trazado 1179684" d="M349.43,195.912l3.792,1.3-.789,1.488Z" transform="translate(-231.894 -130.014)" fill="#f3ebda"/>
            <path id="Trazado_1179685" data-name="Trazado 1179685" d="M267.821,185.935a.94.94,0,0,0,.077-.228,3.717,3.717,0,0,0-.426-2.4,1.879,1.879,0,0,1-.306-.97c.049-.5.524-.828.964-1.066a14.667,14.667,0,0,1,2.719-1.132,2.755,2.755,0,0,1,1.378-.15,3.055,3.055,0,0,1,1.509,1.122c.769.873,1.655,1.7,2.422,2.57l2.955,1.013-1.692,2.9-.5.851-2.865-1.016a15.271,15.271,0,0,1-3.19.9Z" transform="translate(-177.298 -119.422)" fill="#ea7c6f"/>
            <path id="Trazado_1179686" data-name="Trazado 1179686" d="M275.325,197.081a33.006,33.006,0,0,0,5.535-2.806l2.874,1.289-1.393,2.385-2.866-1.017a15.26,15.26,0,0,1-3.19.9Z" transform="translate(-182.715 -128.927)" fill="#f3a080"/>
            <path id="Trazado_1179687" data-name="Trazado 1179687" d="M275.717,190.075a5.793,5.793,0,0,1,2.678-.394,4.623,4.623,0,0,0-2.63-.2,2.749,2.749,0,0,0-1.948,1.673,1.229,1.229,0,0,0-.1.493c.305-.115.581-.64.843-.863a4.449,4.449,0,0,1,1.153-.706" transform="translate(-181.648 -125.671)" fill="#b54b57"/>
            <path id="Trazado_1179688" data-name="Trazado 1179688" d="M271.726,179.436a5.946,5.946,0,0,1,.945,2.893,3.482,3.482,0,0,1-.879.521c-.141.064-.29.121-.445.175a9.334,9.334,0,0,1-1.088.3c-.164.037-.331.071-.5.1-.445.078-.888.138-1.3.179-.178.021-.351.036-.517.05-.45.035-.842.054-1.136.064-.341.011-.548.011-.548.011a8.018,8.018,0,0,1-.108-3.276,5.069,5.069,0,0,1,1.381-.653,11.765,11.765,0,0,1,4.2-.361" transform="translate(-176.541 -119.046)" fill="#f3a080"/>
            <path id="Trazado_1179689" data-name="Trazado 1179689" d="M271.114,185.856s.076.167.172.421a7.843,7.843,0,0,1,.306.97c.054.229.091.45.118.648-.178.021-.351.036-.516.051a2.514,2.514,0,0,1-.207-.556,2.573,2.573,0,0,1-.01-1.092,2.14,2.14,0,0,1,.136-.442" transform="translate(-179.794 -123.34)" fill="#b54b57"/>
            <path id="Trazado_1179690" data-name="Trazado 1179690" d="M276.413,185.417s.087.154.194.389a5.815,5.815,0,0,1,.332.912,5.378,5.378,0,0,1,.117.607c-.164.037-.331.071-.5.1a2.406,2.406,0,0,1-.221-.552,2.508,2.508,0,0,1-.038-1.029,2.209,2.209,0,0,1,.114-.427" transform="translate(-183.337 -123.049)" fill="#b54b57"/>
            <path id="Trazado_1179691" data-name="Trazado 1179691" d="M280.938,183.591s.093.159.207.409a5.788,5.788,0,0,1,.345.974,5.049,5.049,0,0,1,.115.667c-.142.064-.291.121-.445.175a2.84,2.84,0,0,1-.272-.694,2.9,2.9,0,0,1-.051-1.079,2.484,2.484,0,0,1,.1-.452" transform="translate(-186.354 -121.837)" fill="#b54b57"/>
            <path id="Trazado_1179692" data-name="Trazado 1179692" d="M267.529,180.609a3.527,3.527,0,0,0-.646,1.13,4.286,4.286,0,0,0-.156,1.187,8.217,8.217,0,0,0,.022,1.4,1.13,1.13,0,0,0,.055.2c-.341.011-.548.011-.548.011a8.018,8.018,0,0,1-.108-3.276,5.085,5.085,0,0,1,1.382-.653" transform="translate(-176.54 -119.858)" fill="#f8bf92"/>
            <path id="Trazado_1179693" data-name="Trazado 1179693" d="M269.435,196.012a2.445,2.445,0,0,0,1.209-.106h0c.074-.02.121-.034.121-.034l1.395-1.774c-.691.363-2.766-.868-2.766-.868s1.572-.936,1.372-1.615c-.061-.206-.391-.286-.827-.295-.178-.006-.376,0-.578.016-.605.045-1.269.158-1.7.233-.23.039-.393.07-.44.071-.234.007-.193,1.394-.217,1.555a19.531,19.531,0,0,0,2.426,2.815" transform="translate(-177.196 -126.966)" fill="#f3a080"/>
            <path id="Trazado_1179694" data-name="Trazado 1179694" d="M269.435,196.509a2.445,2.445,0,0,0,1.209-.106,3.027,3.027,0,0,1-.913-.271,15.9,15.9,0,0,1-2.049-2.45,10.816,10.816,0,0,1-.016-1.614c-.23.039-.393.07-.44.071-.234.007-.193,1.394-.217,1.555a19.533,19.533,0,0,0,2.426,2.815" transform="translate(-177.196 -127.463)" fill="#f8bf92"/>
            <path id="Trazado_1179695" data-name="Trazado 1179695" d="M273.676,192.185a1.992,1.992,0,0,1-.23-.863c-.178-.006-.376,0-.577.016-.3.14-.6.359-.576.671.045.6,1.383.176,1.383.176" transform="translate(-180.702 -126.966)" fill="#ea7c6f"/>
            <path id="Trazado_1179696" data-name="Trazado 1179696" d="M317.263,202.845l-9.466,7.969-2.133-3.118,1.545-5.676c-2.378-1.3-6.267-3-9.725-4.6l-.051-.022c-3.368-1.559-6.314-2.977-7-3.309l-.113-.053-.039-.02,2.043-6.061.687.16q.266.059.616.144l.242.056c1.967.456,5.507,1.281,8.864,2.074l.639.152a.1.1,0,0,1,.031.008h.008c3.878.917,7.339,1.753,7.592,1.868.591.273,5.878,2.285,6.736,3.481.985,1.37,0,5.864-.476,6.945" transform="translate(-192.64 -124.734)" fill="#6c271c"/>
            <path id="Trazado_1179697" data-name="Trazado 1179697" d="M340.388,235.865s1.362,6.833,1.09,8.422-3.45,5.72-3.45,5.72l-2.395,7.006,1.555-7.324s3.268-4.7,3.2-5.652,0-8.172,0-8.172" transform="translate(-222.737 -156.528)" fill="#541b15"/>
            <path id="Trazado_1179698" data-name="Trazado 1179698" d="M307.208,202.02c-2.378-1.3-6.267-3-9.725-4.6l-.05-.023-7-3.309-.112-.053-.04-.02,2.043-6.061.687.16.616.144.242.056,8.864,2.074.639.152.039.008H303.4l-9.9-1.334-1.55,4.325Z" transform="translate(-192.639 -124.734)" fill="#541b15"/>
            <path id="Trazado_1179699" data-name="Trazado 1179699" d="M262.184,202.989s-6.184,2.706-6.715,3.478-6.548,28.454-6.816,29.791-.547,16.583-.547,16.583l12.7-4.057-2.439-16.537,5.13-27.681-1.208-.572.291-.863Z" transform="translate(-164.651 -134.71)" fill="#6c271c"/>
            <path id="Trazado_1179700" data-name="Trazado 1179700" d="M256.556,208.607s-3.629,1.254-5.069,1.931-9.2,29.006-7.777,30.29,8.99,2.283,8.99,2.283l14.068-10.073-7.408-7.674-1.776,1.376Z" transform="translate(-161.619 -138.439)" fill="#6c271c"/>
            <path id="Trazado_1179701" data-name="Trazado 1179701" d="M304.677,244.223l3.4-.17a12.029,12.029,0,0,0,3.144-.544c.769-.41,1.648-2.656,1.648-2.656s-.576-4.014-1.128-4.755c-.146-.193.4-2.728.332-3.18a18.338,18.338,0,0,0-2.226-2.769s-1.392-.078-1.8.739a.111.111,0,0,0-.014.026,3.956,3.956,0,0,1-1.451,1.446l.071,1.428s-1.8-.184-2.278.31a17.148,17.148,0,0,0-1.225,1.561l-1.515.642s1.4.708,1.372,1.7a6.861,6.861,0,0,0,.817,2.393c.011.083.116.563.245,1.159.252,1.126.6,2.663.6,2.663" transform="translate(-200.178 -152.734)" fill="#f7f0de"/>
            <g id="Grupo_1230967" data-name="Grupo 1230967" transform="translate(103.895 77.414)" opacity="0.1" style="mix-blend-mode: multiply;isolation: isolate">
              <g id="Grupo_1230966" data-name="Grupo 1230966">
                <g id="Grupo_1230965" data-name="Grupo 1230965" clip-path="url(#clip-path-12)">
                  <path id="Trazado_1179702" data-name="Trazado 1179702" d="M309.479,244.223l3.4-.17a12.029,12.029,0,0,0,3.144-.544c.769-.41,1.648-2.656,1.648-2.656s-.576-4.014-1.128-4.755c-.146-.193.4-2.728.332-3.18a18.338,18.338,0,0,0-2.226-2.769s-1.392-.078-1.8.739a1.706,1.706,0,0,0,.359.33c.9.624,1.742,1.3,1.489,2.563-.247,1.232-1.252,3.5-2.5,3.387a3.136,3.136,0,0,1,2.159,2.218c.211.833-.471.013-1.125.574-1.052.907-2.689.647-3.913,1.3a2.78,2.78,0,0,0-.445.3c.252,1.126.6,2.663.6,2.663" transform="translate(-308.875 -230.148)" fill="#6c271c"/>
                </g>
              </g>
            </g>
            <path id="Trazado_1179703" data-name="Trazado 1179703" d="M302.724,249.739l-1.1.148-1.277,1.205-.965-1.037-1.1-1.177-.016-.016-.636-.689c.164-.188.3-.328.324-.36l.008-.008a7.017,7.017,0,0,1-.34-.685c-.024-.052-.048-.108-.072-.164-.044-.108-.092-.224-.136-.344-.024-.08-.052-.16-.08-.245s-.052-.172-.076-.26-.044-.172-.06-.256l0,0a3.381,3.381,0,0,1-.064-.392,2.517,2.517,0,0,1-.024-.344,2.266,2.266,0,0,1,.1-.665,1.688,1.688,0,0,1,.08-.2c.02-.04.04-.08.064-.12.06-.12.12-.241.176-.368.076-.16.152-.325.22-.488a4.5,4.5,0,0,0,.372-1.421c0-.052.008-.108.016-.164.012-.22.012-.436.024-.661.008-.108.016-.22.032-.328.008-.06.02-.12.028-.18s.028-.112.04-.164a2.127,2.127,0,0,1,.136-.356.616.616,0,0,1,.06-.112,1.258,1.258,0,0,1,.324-.372.831.831,0,0,1,.14-.092c.008,0,.012-.008.016-.008l.02-.008a.079.079,0,0,1,.032-.016.179.179,0,0,1,.08-.016.146.146,0,0,1,.088.028.086.086,0,0,1,.032.02.4.4,0,0,1,.1.12.25.25,0,0,1,.024.032c0,.012.012.02.016.032a5.612,5.612,0,0,1,.456,3.667s6.33-4.721,6.7-4.392a1.094,1.094,0,0,1,.276.376,1.03,1.03,0,0,1,.092.376s-3.884,3.828-3.9,4.08a28.954,28.954,0,0,0,3.511-1.75,3.365,3.365,0,0,1,1.129-.444.573.573,0,0,1,.32.34,2.723,2.723,0,0,1,.188.552,5.038,5.038,0,0,1,.12.593s.044.052.108.132h0c.02.028.044.06.068.092.056.076.128.168.2.268.024.036.048.068.068.1a2.972,2.972,0,0,1,.22.372c.224.456-5.369,5.553-6.146,5.765" transform="translate(-197.165 -158.518)" fill="#f3a080"/>
            <path id="Trazado_1179704" data-name="Trazado 1179704" d="M323.635,248.321c-.113.086-.229.171-.35.254a12.14,12.14,0,0,1-1.908,1.077c-.481.216-.805.326-.844.338.03-.027.285-.254.692-.584.435-.354,1.038-.826,1.729-1.305.167-.116.331-.225.49-.331a2.851,2.851,0,0,1,.19.551" transform="translate(-212.717 -164.428)" fill="#b54b57"/>
            <path id="Trazado_1179705" data-name="Trazado 1179705" d="M327.13,252.027a12.823,12.823,0,0,1-2.188,1.274,12.852,12.852,0,0,1,1.848-1.74c.087.111.217.28.34.467" transform="translate(-215.642 -166.944)" fill="#b54b57"/>
            <path id="Trazado_1179706" data-name="Trazado 1179706" d="M298.663,243a17.378,17.378,0,0,0-.785,2.987,7,7,0,0,0,.693,2.506,1.285,1.285,0,0,1,.116.785.816.816,0,0,1-.124.268,3.323,3.323,0,0,1-.236.284l-.068.036-.637-.689c.164-.188.3-.328.324-.361l.008-.008a7.111,7.111,0,0,1-.34-.685c-.024-.052-.048-.108-.072-.164-.044-.108-.092-.224-.136-.344-.024-.08-.052-.16-.08-.244s-.052-.172-.076-.26-.044-.172-.06-.256l0,0a3.4,3.4,0,0,1-.064-.393,2.563,2.563,0,0,1-.024-.344,2.265,2.265,0,0,1,.1-.665,1.774,1.774,0,0,1,.084-.2l.06-.12c.06-.124.12-.244.176-.368.076-.16.152-.324.22-.488a4.492,4.492,0,0,0,.372-1.422c0-.052.008-.108.016-.164.012-.22.012-.436.024-.66.008-.108.016-.22.032-.328.008-.06.02-.12.028-.18s.028-.112.04-.164a1.581,1.581,0,0,1,.136-.356.633.633,0,0,1,.06-.112,1.262,1.262,0,0,1,.324-.372.839.839,0,0,1,.14-.1s.012,0,.016,0l.02-.008a.082.082,0,0,1,.032-.016.179.179,0,0,1,.08-.016.144.144,0,0,1,.088.028.088.088,0,0,1,.032.02.4.4,0,0,1,.1.12.142.142,0,0,1,.02.032c-.048.08-.1.156-.148.236a7.2,7.2,0,0,0-.48,2.186" transform="translate(-197.164 -159.522)" fill="#f8bf92"/>
            <path id="Trazado_1179707" data-name="Trazado 1179707" d="M279.924,238.938l-4.692-4.945-2.716-2.729-1.776,1.377s1.609-10.816,1.394-11.386-1.752-3.757-1.752-3.757l.358,4.328L269,234.027l-5.637,4.69,8.991-4.4L277,239.168l-11.149,9.844Z" transform="translate(-174.773 -144.339)" fill="#541b15"/>
          </g>
        </g>
        <g id="Grupo_1230977" data-name="Grupo 1230977">
          <g id="Grupo_1230976" data-name="Grupo 1230976" clip-path="url(#clip-path-2)">
            <path id="Trazado_1179708" data-name="Trazado 1179708" d="M424.527,337.812,421.748,371.3l3.418-.081,4.612-32.294Z" transform="translate(-279.886 -224.184)" fill="#541b15"/>
            <path id="Trazado_1179709" data-name="Trazado 1179709" d="M395.188,341.132l-.51,17.641,25.6,4.928,5.317-19.614Z" transform="translate(-261.921 -226.386)" fill="#6c271c"/>
            <path id="Trazado_1179710" data-name="Trazado 1179710" d="M427.084,360.486a6.651,6.651,0,1,1-5.232-7.817,6.651,6.651,0,0,1,5.232,7.817" transform="translate(-274.683 -233.958)" fill="#e2912f"/>
            <path id="Trazado_1179711" data-name="Trazado 1179711" d="M432.634,370.435a1.058,1.058,0,1,1-.833-1.244,1.058,1.058,0,0,1,.833,1.244" transform="translate(-285.719 -244.994)" fill="#361613"/>
            <path id="Trazado_1179712" data-name="Trazado 1179712" d="M436.337,362.473a1.5,1.5,0,0,1,.578,1.493c-.008.04-.019.079-.029.117l3.845,1.049c.035-.128.068-.259.094-.392a5.484,5.484,0,0,0-2.079-5.446Z" transform="translate(-289.568 -238.44)" fill="#361613"/>
            <path id="Trazado_1179713" data-name="Trazado 1179713" d="M421.461,361.674c0-.04.009-.08.018-.12a1.5,1.5,0,0,1,1.1-1.16l-1.014-3.857a5.484,5.484,0,0,0-4,4.243c-.026.133-.046.266-.062.4Z" transform="translate(-277.072 -236.61)" fill="#361613"/>
            <path id="Trazado_1179714" data-name="Trazado 1179714" d="M426.573,375.752a1.495,1.495,0,0,1-1.67-.331l-2.832,2.805a5.485,5.485,0,0,0,6.049,1.2Z" transform="translate(-280.101 -249.142)" fill="#361613"/>
            <g id="Grupo_1230972" data-name="Grupo 1230972" transform="translate(130.679 147.039)" opacity="0.4" style="mix-blend-mode: multiply;isolation: isolate">
              <g id="Grupo_1230971" data-name="Grupo 1230971">
                <g id="Grupo_1230970" data-name="Grupo 1230970" clip-path="url(#clip-path-14)">
                  <path id="Trazado_1179715" data-name="Trazado 1179715" d="M388.5,437.22h11.184l3.418-.081h9.632s-13.218,2.96-24.233.081" transform="translate(-388.501 -437.139)" fill="#6c4f22"/>
                </g>
              </g>
            </g>
            <path id="Trazado_1179716" data-name="Trazado 1179716" d="M34.52,379.54l1.837,22.141-2.26-.054-3.048-21.349Z" transform="translate(-20.605 -251.875)" fill="#541b15"/>
            <path id="Trazado_1179717" data-name="Trazado 1179717" d="M24.058,381.734,24.4,393.4,7.469,396.655,3.954,383.688Z" transform="translate(-2.624 -253.332)" fill="#6c271c"/>
            <path id="Trazado_1179718" data-name="Trazado 1179718" d="M25.95,394.53a4.4,4.4,0,1,0,3.459-5.168,4.4,4.4,0,0,0-3.459,5.168" transform="translate(-17.165 -258.337)" fill="#e2912f"/>
            <path id="Trazado_1179719" data-name="Trazado 1179719" d="M36.872,401.107a.7.7,0,1,0,.55-.822.7.7,0,0,0-.55.822" transform="translate(-24.461 -265.633)" fill="#361613"/>
            <path id="Trazado_1179720" data-name="Trazado 1179720" d="M31.2,395.843a.989.989,0,0,0-.382.987c.005.027.012.052.02.077l-2.542.694c-.023-.085-.045-.171-.062-.259a3.625,3.625,0,0,1,1.374-3.6Z" transform="translate(-18.688 -261.3)" fill="#361613"/>
            <path id="Trazado_1179721" data-name="Trazado 1179721" d="M40.4,395.314c0-.026-.006-.053-.011-.079a.991.991,0,0,0-.73-.767l.671-2.55a3.626,3.626,0,0,1,2.643,2.8c.017.088.031.176.041.263Z" transform="translate(-26.319 -260.09)" fill="#361613"/>
            <path id="Trazado_1179722" data-name="Trazado 1179722" d="M35.75,404.622a.99.99,0,0,0,1.1-.219l1.872,1.855a3.625,3.625,0,0,1-4,.792Z" transform="translate(-23.046 -268.375)" fill="#361613"/>
            <g id="Grupo_1230975" data-name="Grupo 1230975" transform="translate(7.125 149.752)" opacity="0.4" style="mix-blend-mode: multiply;isolation: isolate">
              <g id="Grupo_1230974" data-name="Grupo 1230974">
                <g id="Grupo_1230973" data-name="Grupo 1230973" clip-path="url(#clip-path-15)">
                  <path id="Trazado_1179723" data-name="Trazado 1179723" d="M37.2,445.258H29.809l-2.26-.054H21.182s8.738,1.957,16.02.054" transform="translate(-21.182 -445.204)" fill="#6c4f22"/>
                </g>
              </g>
            </g>
          </g>
        </g>
      </g>
    </g>
  </g>
</svg>
