<svg xmlns="http://www.w3.org/2000/svg" xmlns:xlink="http://www.w3.org/1999/xlink" width="118" height="118" viewBox="0 0 118 118">
  <defs>
    <filter id="Trazado_982547" x="0" y="0" width="118" height="118" filterUnits="userSpaceOnUse">
      <feOffset dy="3" input="SourceAlpha"/>
      <feGaussianBlur stdDeviation="3" result="blur"/>
      <feFlood flood-opacity="0.161"/>
      <feComposite operator="in" in2="blur"/>
      <feComposite in="SourceGraphic"/>
    </filter>
    <clipPath id="clip-path">
      <path id="path4179" d="M0-682.665H63.376v63.376H0Z" transform="translate(0 682.665)"/>
    </clipPath>
  </defs>
  <g id="Grupo_1230984" data-name="Grupo 1230984" transform="translate(-269 -3795.093)">
    <g id="Grupo_1209802" data-name="Grupo 1209802" transform="translate(278 3801.093)">
      <g id="Grupo_1209739" data-name="Grupo 1209739">
        <g id="Grupo_1209277" data-name="Grupo 1209277" transform="translate(0 0)">
          <g id="Grupo_1208028" data-name="Grupo 1208028">
            <g id="Grupo_1177675" data-name="Grupo 1177675">
              <g id="Grupo_1176928" data-name="Grupo 1176928">
                <g id="Grupo_1172322" data-name="Grupo 1172322">
                  <g id="Grupo_1164700" data-name="Grupo 1164700">
                    <g id="Grupo_1160931" data-name="Grupo 1160931">
                      <g id="Grupo_1160749" data-name="Grupo 1160749">
                        <g id="Grupo_1158891" data-name="Grupo 1158891">
                          <g id="Grupo_1157406" data-name="Grupo 1157406">
                            <g id="Grupo_1155793" data-name="Grupo 1155793">
                              <g id="Grupo_1154704" data-name="Grupo 1154704">
                                <g id="Grupo_1150790" data-name="Grupo 1150790">
                                  <g id="Grupo_1154214" data-name="Grupo 1154214">
                                    <g id="Grupo_1152583" data-name="Grupo 1152583">
                                      <g id="Grupo_1146973" data-name="Grupo 1146973">
                                        <g id="Grupo_1146954" data-name="Grupo 1146954">
                                          <g transform="matrix(1, 0, 0, 1, -9, -6)" filter="url(#Trazado_982547)">
                                            <g id="Trazado_982547-2" data-name="Trazado 982547" transform="translate(9 6)" fill="#fcebe9">
                                              <path d="M 49.99995040893555 98.49974060058594 C 43.45183563232422 98.49974060058594 37.10039138793945 97.21762847900391 31.12205123901367 94.68899536132812 C 25.34687805175781 92.24631500244141 20.15995025634766 88.74908447265625 15.70530796051025 84.29445648193359 C 11.25067901611328 79.83982849121094 7.753450393676758 74.65290069580078 5.310764789581299 68.87775421142578 C 2.782136201858521 62.8994140625 1.500007510185242 56.54796981811523 1.500007510185242 49.99987030029297 C 1.500007510185242 43.4517707824707 2.782136201858521 37.10032653808594 5.310764789581299 31.12198448181152 C 7.753450393676758 25.34684181213379 11.25067901611328 20.15991401672363 15.70530796051025 15.70528411865234 C 20.15995025634766 11.25065612792969 25.34687805175781 7.753427505493164 31.12205123901367 5.310741901397705 C 37.10039138793945 2.782113075256348 43.45183563232422 1.499998927116394 49.99995040893555 1.499998927116394 C 56.54806518554688 1.499998927116394 62.89950942993164 2.782113075256348 68.87785339355469 5.310741901397705 C 74.65302276611328 7.753427505493164 79.83995056152344 11.25065612792969 84.29459381103516 15.70528411865234 C 88.74922180175781 20.15991401672363 92.24645233154297 25.34684181213379 94.68913269042969 31.12198448181152 C 97.21776580810547 37.10032653808594 98.49989318847656 43.4517707824707 98.49989318847656 49.99987030029297 C 98.49989318847656 56.54796981811523 97.21776580810547 62.8994140625 94.68913269042969 68.87775421142578 C 92.24645233154297 74.65290069580078 88.74922180175781 79.83982849121094 84.29459381103516 84.29445648193359 C 79.83995056152344 88.74908447265625 74.65302276611328 92.24631500244141 68.87785339355469 94.68899536132812 C 62.89950942993164 97.21762847900391 56.54806518554688 98.49974060058594 49.99995040893555 98.49974060058594 Z" stroke="none"/>
                                              <path d="M 49.99995040893555 2.999992370605469 C 43.6536750793457 2.999992370605469 37.49882888793945 4.242240905761719 31.70638275146484 6.692237854003906 C 26.11000823974609 9.059303283691406 21.08333587646484 12.44857788085938 16.76598358154297 16.76594543457031 C 12.4486083984375 21.08329772949219 9.059333801269531 26.10996246337891 6.692276000976562 31.70631408691406 C 4.242271423339844 37.49876403808594 3.000015258789062 43.65361022949219 3.000015258789062 49.99987030029297 C 3.000015258789062 56.34613037109375 4.242271423339844 62.5009765625 6.692276000976562 68.29342651367188 C 9.059333801269531 73.88977813720703 12.4486083984375 78.91644287109375 16.76598358154297 83.23379516601562 C 21.08333587646484 87.5511474609375 26.11000823974609 90.94042205810547 31.70638275146484 93.30748748779297 C 37.49882888793945 95.75748443603516 43.6536750793457 96.99973297119141 49.99995040893555 96.99973297119141 C 56.34622573852539 96.99973297119141 62.50107192993164 95.75748443603516 68.29351806640625 93.30748748779297 C 73.889892578125 90.94042205810547 78.91656494140625 87.5511474609375 83.23391723632812 83.23379516601562 C 87.55128479003906 78.91644287109375 90.94056701660156 73.88977813720703 93.30762481689453 68.29342651367188 C 95.75762939453125 62.5009765625 96.99988555908203 56.34613037109375 96.99988555908203 49.99987030029297 C 96.99988555908203 43.65361022949219 95.75762939453125 37.49876403808594 93.30762481689453 31.70631408691406 C 90.94056701660156 26.10996246337891 87.55128479003906 21.08329772949219 83.23391723632812 16.76594543457031 C 78.91656494140625 12.44857788085938 73.889892578125 9.059303283691406 68.29351806640625 6.692237854003906 C 62.50107192993164 4.242240905761719 56.34622573852539 2.999992370605469 49.99995040893555 2.999992370605469 M 49.99995040893555 -7.62939453125e-06 C 77.61415100097656 -7.62939453125e-06 99.99988555908203 22.38570404052734 99.99988555908203 49.99987030029297 C 99.99988555908203 77.61404418945312 77.61415100097656 99.99973297119141 49.99995040893555 99.99973297119141 C 22.38574981689453 99.99973297119141 1.52587890625e-05 77.61404418945312 1.52587890625e-05 49.99987030029297 C 1.52587890625e-05 22.38570404052734 22.38574981689453 -7.62939453125e-06 49.99995040893555 -7.62939453125e-06 Z" stroke="none" fill="#e44b36"/>
                                            </g>
                                          </g>
                                        </g>
                                      </g>
                                    </g>
                                  </g>
                                </g>
                              </g>
                            </g>
                          </g>
                        </g>
                      </g>
                    </g>
                  </g>
                </g>
              </g>
            </g>
          </g>
        </g>
      </g>
    </g>
    <g id="g4173" transform="translate(295.812 4499.977)">
      <g id="g4175" transform="translate(0 -682.665)">
        <g id="g4177" clip-path="url(#clip-path)">
          <g id="g4183" transform="translate(39.529 16.992)">
            <path id="path4185" d="M-3.89-79.816h-.4l.6-8.168h2.161a2.751,2.751,0,0,1,2.751,2.751v.3A5.116,5.116,0,0,1-3.89-79.816" transform="translate(4.288 87.984)" fill="#faa68e"/>
          </g>
          <g id="g4187" transform="translate(9.903 16.992)">
            <path id="path4189" d="M-49.989-79.816h.4l-.6-8.168h-2.161a2.751,2.751,0,0,0-2.751,2.751v.3a5.116,5.116,0,0,0,5.116,5.116" transform="translate(55.105 87.984)" fill="#faa68e"/>
          </g>
          <g id="g4191" transform="translate(29.021 35.264)">
            <path id="path4193" d="M-51.361-195.038a5.172,5.172,0,0,0,5.076-5.166v-9.775h-4.227a1.1,1.1,0,0,1-1.1-1.1V-215a7.45,7.45,0,0,1-5,4.582v10.12a5.241,5.241,0,0,0,5.256,5.257" transform="translate(56.617 214.998)" fill="#e7387f"/>
          </g>
          <g id="g4195" transform="translate(0.928 35.264)">
            <path id="path4197" d="M-466.472-250.114v-20.207a7.7,7.7,0,0,0-2.363-.37h-3.855v9.775a8.27,8.27,0,0,1-8.389,8.26,8.342,8.342,0,0,1-8.133-8.385v-10.087a7.449,7.449,0,0,1-5-4.582v3.915a1.1,1.1,0,0,1-1.1,1.1h-11.176a7.716,7.716,0,0,0-7.716,7.716v14.449h49.325a1.588,1.588,0,0,1-1.588-1.588" transform="translate(514.209 275.71)" fill="#e7387f"/>
          </g>
          <g id="g4199" transform="translate(0.928 40.283)">
            <path id="path4201" d="M-466.472-201.073V-221.28a7.706,7.706,0,0,0-2.363-.37h-2.588v12.844a6.846,6.846,0,0,1-6.846,6.846h-35.94v2.476h49.325a1.588,1.588,0,0,1-1.588-1.588" transform="translate(514.209 221.65)" fill="#c40955"/>
          </g>
          <g id="g4203" transform="translate(14.614 0.928)">
            <path id="path4205" d="M-125.659,0a12.859,12.859,0,0,0-12.824,13.8l.874,11.872c.243,3.307,2.512,6.076,5.154,7.954a9,9,0,0,1-.385-2.611c0-4.467,3.215-8.089,7.181-8.089s7.181,3.621,7.181,8.089a9,9,0,0,1-.385,2.611c2.642-1.878,4.91-4.648,5.154-7.954l.874-11.872A12.859,12.859,0,0,0-125.659,0" transform="translate(138.519)" fill="#ffcdbe"/>
          </g>
          <g id="g4207" transform="translate(30.608 1.313)">
            <path id="path4209" d="M0,0A12.834,12.834,0,0,1,4.738,10.943L3.864,22.815A8.65,8.65,0,0,1,2.87,26.2a8.794,8.794,0,0,1,1.176,4.435,9,9,0,0,1-.385,2.611C6.3,31.367,8.572,28.6,8.815,25.29l.874-11.872A12.864,12.864,0,0,0,0,0" fill="#faa68e"/>
          </g>
          <g id="g4211" transform="translate(14.602 0.928)">
            <path id="path4213" d="M-.347-135.01l.523,7.1a6.482,6.482,0,0,0,3.817-4.159,1.125,1.125,0,0,1,1.226-.783,11.791,11.791,0,0,0,1.551.1,11.868,11.868,0,0,0,11.868-11.868,11.893,11.893,0,0,0-.34-2.83,12.809,12.809,0,0,0-5.808-1.381A12.871,12.871,0,0,0-.347-135.01" transform="translate(0.382 148.826)" fill="#2c6a73"/>
          </g>
          <g id="g4215" transform="translate(32.429 2.309)">
            <path id="path4217" d="M-8.323,0a11.884,11.884,0,0,1,.341,2.831A11.819,11.819,0,0,1-9.175,8.02a11.915,11.915,0,0,0,2.913,3.785,1.149,1.149,0,0,1,.4,1,6.564,6.564,0,0,0-.01,1.349,6.486,6.486,0,0,0,4.059,5.382l.523-7.1A12.872,12.872,0,0,0-8.323,0" transform="translate(9.175)" fill="#23535a"/>
          </g>
          <g id="g4219" transform="translate(50.96 20.825)">
            <path id="path4221" d="M-85-35.843h-2.1a.288.288,0,0,1-.288-.288v-3.38h-3.42v3.38a.288.288,0,0,1-.288.288h-2.279a.32.32,0,0,0-.32.32V-32.4a.32.32,0,0,0,.32.32H-91.1a.288.288,0,0,1,.288.288v2.933h3.42V-31.79a.288.288,0,0,1,.288-.288H-85Z" transform="translate(93.696 39.511)" fill="#badfe4"/>
          </g>
          <g id="g4223" transform="translate(59.658 22.956)">
            <path id="path4225" d="M-20.56-65.83h-1.419a.685.685,0,0,1-.685-.685v-5.366a.685.685,0,0,1,.685-.685h1.419a.685.685,0,0,1,.685.685v5.366a.685.685,0,0,1-.685.685" transform="translate(22.664 72.566)" fill="#2c6a73"/>
          </g>
          <g id="g4227" transform="translate(50.836 17.295)">
            <path id="path4229" d="M-75.01-34.49h-5.911a1.765,1.765,0,0,1-1.765-1.765,1.765,1.765,0,0,1,1.765-1.765h5.911a1.765,1.765,0,0,1,1.765,1.765A1.765,1.765,0,0,1-75.01-34.49" transform="translate(82.686 38.02)" fill="#a0cafe"/>
          </g>
          <g id="g4231" transform="translate(48.666 31.478)">
            <path id="path4233" d="M-96.735-15.925v-.982a.648.648,0,0,0-.648-.648H-102.1a.648.648,0,0,0-.648.648v.982a1.657,1.657,0,0,1-.755,1.386,6.884,6.884,0,0,0-3.127,5.773V11.827a1.588,1.588,0,0,0,1.588,1.588H-94.44a1.588,1.588,0,0,0,1.588-1.588V-8.766a6.884,6.884,0,0,0-3.127-5.773,1.657,1.657,0,0,1-.755-1.386" transform="translate(106.634 17.555)" fill="#a0cafe"/>
          </g>
          <g id="g4235" transform="translate(48.666 31.479)">
            <path id="path4237" d="M-104.116-29.466a1.657,1.657,0,0,1-.755-1.386v-.982a.648.648,0,0,0-.648-.648h-4.065a1.671,1.671,0,0,0,.517.54,6.884,6.884,0,0,1,3.127,5.773V-11.5a7.516,7.516,0,0,1-7.516,7.516h-1.315V-3.1a1.588,1.588,0,0,0,1.588,1.588h10.606A1.588,1.588,0,0,0-100.988-3.1V-23.693a6.884,6.884,0,0,0-3.127-5.773" transform="translate(114.77 32.481)" fill="#62a6fd"/>
          </g>
          <g id="g4239" transform="translate(25.926 24.831)">
            <path id="path4241" d="M-79.467-327.222a8.342,8.342,0,0,1-8.132-8.385v-13.321a1.547,1.547,0,0,1,1.547-1.547,1.547,1.547,0,0,1,1.547,1.547v13.355a5.241,5.241,0,0,0,5.256,5.257,5.172,5.172,0,0,0,5.076-5.165V-349.1a11.62,11.62,0,0,1,11.607-11.607v3.094a8.522,8.522,0,0,0-8.512,8.512v13.621a8.27,8.27,0,0,1-8.389,8.26" transform="translate(87.6 360.708)" fill="#2c6a73"/>
          </g>
          <g id="g4243" transform="translate(29.021 35.264)">
            <path id="path4245" d="M0-133.338a8.751,8.751,0,0,0,7.2-8.627h-1.1a1.1,1.1,0,0,1-1.1-1.1v-3.915A7.449,7.449,0,0,1,0-142.4Z" transform="translate(0 146.984)" fill="#faa68e"/>
          </g>
          <g id="g4247" transform="translate(18.723 35.264)">
            <path id="path4249" d="M-70.387-44.777a7.449,7.449,0,0,1-5-4.582v3.915a1.1,1.1,0,0,1-1.1,1.1h-1.1a8.751,8.751,0,0,0,7.2,8.627Z" transform="translate(77.591 49.36)" fill="#faa68e"/>
          </g>
          <g id="g4251" transform="translate(20.293 23.858)">
            <path id="path4253" d="M-55.047-124.626a1.547,1.547,0,0,1,1.547-1.547,1.547,1.547,0,0,1,1.547,1.547v3.233a7.933,7.933,0,0,0,5.633-7.9c0-4.467-3.215-8.089-7.181-8.089s-7.181,3.621-7.181,8.089a7.933,7.933,0,0,0,5.633,7.9Z" transform="translate(60.68 137.38)" fill="#fff2b2"/>
          </g>
          <g id="g4255" transform="translate(27.537 23.87)">
            <path id="path4257" d="M-3.128,0A8.649,8.649,0,0,1-1.282,5.411,8.59,8.59,0,0,1-3.448,11.2a1.546,1.546,0,0,1,1.484,1.544v3.233a7.933,7.933,0,0,0,5.633-7.9C3.669,3.755.659.225-3.128,0" transform="translate(3.448)" fill="#ffe565"/>
          </g>
          <g id="g4259" transform="translate(22.139 36.394)">
            <path id="path4261" d="M-3.748-9.53c-.129,0-.256,0-.384-.012A7.052,7.052,0,0,0-.344-7.054v-3.233a1.558,1.558,0,0,1,.017-.218,6.525,6.525,0,0,1-3.421.975" transform="translate(4.132 10.505)" fill="#ffe565"/>
          </g>
          <path id="path4263" d="M537.992-84.408H524.209v-3.4h13.782Z" transform="translate(-475.544 143.032)" fill="#dfedff"/>
          <g id="g4265" transform="translate(54.273 55.224)">
            <path id="path4267" d="M0-33.226H8.175v-3.4H2.7a7.538,7.538,0,0,1-2.7,3.4" transform="translate(0 36.627)" fill="#a0cafe"/>
          </g>
          <g id="g4269" transform="translate(39.53 16.992)">
            <path id="path4271" d="M-5.878,0h2.161A2.751,2.751,0,0,1-.966,2.751v.3A5.116,5.116,0,0,1-6.082,8.168h-.4" transform="translate(6.48)" fill="none" stroke="#000" stroke-linecap="round" stroke-linejoin="round" stroke-miterlimit="10" stroke-width="1.2"/>
          </g>
          <g id="g4273" transform="translate(9.903 16.992)">
            <path id="path4275" d="M-48,0h-2.161a2.751,2.751,0,0,0-2.751,2.751v.3A5.116,5.116,0,0,0-47.8,8.168h.4" transform="translate(52.915)" fill="none" stroke="#000" stroke-linecap="round" stroke-linejoin="round" stroke-miterlimit="10" stroke-width="1.2"/>
          </g>
          <g id="g4277" transform="translate(10.209 53.473)">
            <path id="path4279" d="M0,0V8.975" fill="none" stroke="#000" stroke-linecap="round" stroke-linejoin="round" stroke-miterlimit="10" stroke-width="1.2"/>
          </g>
          <g id="g4281" transform="translate(44.737 53.473)">
            <path id="path4283" d="M0,0V8.975" transform="translate(0)" fill="none" stroke="#000" stroke-linecap="round" stroke-linejoin="round" stroke-miterlimit="10" stroke-width="1.2"/>
          </g>
          <g id="g4285" transform="translate(15.16 2.309)">
            <path id="path4287" d="M0-190.908a6.481,6.481,0,0,0,3.817-4.159,1.125,1.125,0,0,1,1.226-.783,11.815,11.815,0,0,0,1.551.1,11.868,11.868,0,0,0,11.868-11.868,11.893,11.893,0,0,0-.34-2.83" transform="translate(0 210.445)" fill="none" stroke="#000" stroke-linecap="round" stroke-linejoin="round" stroke-miterlimit="10" stroke-width="1.2"/>
          </g>
          <g id="g4289" transform="translate(32.429 10.329)">
            <path id="path4291" d="M0,0A11.917,11.917,0,0,0,2.913,3.785a1.149,1.149,0,0,1,.4,1A6.564,6.564,0,0,0,3.3,6.131a6.486,6.486,0,0,0,4.059,5.382" fill="none" stroke="#000" stroke-linecap="round" stroke-linejoin="round" stroke-miterlimit="10" stroke-width="1.2"/>
          </g>
          <g id="g4293" transform="translate(50.96 20.825)">
            <path id="path4295" d="M-85-35.843h-2.1a.288.288,0,0,1-.288-.288v-3.38h-3.42v3.38a.288.288,0,0,1-.288.288h-2.279a.32.32,0,0,0-.32.32V-32.4a.32.32,0,0,0,.32.32H-91.1a.288.288,0,0,1,.288.288v2.933h3.42V-31.79a.288.288,0,0,1,.288-.288H-85Z" transform="translate(93.696 39.511)" fill="none" stroke="#000" stroke-linecap="round" stroke-linejoin="round" stroke-miterlimit="10" stroke-width="1.2"/>
          </g>
          <g id="g4297" transform="translate(59.658 22.956)">
            <path id="path4299" d="M-20.56-65.83h-1.419a.685.685,0,0,1-.685-.685v-5.366a.685.685,0,0,1,.685-.685h1.419a.685.685,0,0,1,.685.685v5.366A.685.685,0,0,1-20.56-65.83Z" transform="translate(22.664 72.566)" fill="none" stroke="#000" stroke-linecap="round" stroke-linejoin="round" stroke-miterlimit="10" stroke-width="1.2"/>
          </g>
          <g id="g4301" transform="translate(50.836 17.295)">
            <path id="path4303" d="M-75.01-34.49h-5.911a1.765,1.765,0,0,1-1.765-1.765,1.765,1.765,0,0,1,1.765-1.765h5.911a1.765,1.765,0,0,1,1.765,1.765A1.765,1.765,0,0,1-75.01-34.49Z" transform="translate(82.686 38.02)" fill="none" stroke="#000" stroke-linecap="round" stroke-linejoin="round" stroke-miterlimit="10" stroke-width="1.2"/>
          </g>
          <g id="g4305" transform="translate(48.666 31.478)">
            <path id="path4307" d="M-96.735-15.925v-.982a.648.648,0,0,0-.648-.648H-102.1a.648.648,0,0,0-.648.648v.982a1.657,1.657,0,0,1-.755,1.386,6.884,6.884,0,0,0-3.127,5.773V11.827a1.588,1.588,0,0,0,1.588,1.588H-94.44a1.588,1.588,0,0,0,1.588-1.588V-8.766a6.884,6.884,0,0,0-3.127-5.773A1.657,1.657,0,0,1-96.735-15.925Z" transform="translate(106.634 17.555)" fill="none" stroke="#000" stroke-linecap="round" stroke-linejoin="round" stroke-miterlimit="10" stroke-width="1.2"/>
          </g>
          <g id="g4309" transform="translate(39.353 24.831)">
            <path id="path4311" d="M0-168.944v-5.683a11.62,11.62,0,0,1,11.607-11.607" transform="translate(0 186.233)" fill="none" stroke="#000" stroke-linecap="round" stroke-linejoin="round" stroke-miterlimit="10" stroke-width="1.2"/>
          </g>
          <g id="g4313" transform="translate(25.926 27.926)">
            <path id="path4315" d="M-244.622,0a8.522,8.522,0,0,0-8.512,8.512v13.62a8.27,8.27,0,0,1-8.389,8.26,8.342,8.342,0,0,1-8.132-8.385V8.686a1.547,1.547,0,0,1,1.547-1.547,1.547,1.547,0,0,1,1.547,1.547V22.041A5.241,5.241,0,0,0-261.3,27.3a5.172,5.172,0,0,0,5.076-5.166V18.527" transform="translate(269.655)" fill="none" stroke="#000" stroke-linecap="round" stroke-linejoin="round" stroke-miterlimit="10" stroke-width="1.2"/>
          </g>
          <g id="g4317" transform="translate(20.514 0.928)">
            <path id="path4319" d="M-134.409-328.616c2.642-1.878,4.91-4.648,5.154-7.954l.874-11.872a12.859,12.859,0,0,0-12.824-13.8,12.788,12.788,0,0,0-6.959,2.043" transform="translate(148.164 362.246)" fill="none" stroke="#000" stroke-linecap="round" stroke-linejoin="round" stroke-miterlimit="10" stroke-width="1.2"/>
          </g>
          <g id="g4321" transform="translate(14.614 5.897)">
            <path id="path4323" d="M-26.446,0a12.8,12.8,0,0,0-2.671,8.834l.874,11.872c.244,3.307,2.512,6.076,5.154,7.954" transform="translate(29.152)" fill="none" stroke="#000" stroke-linecap="round" stroke-linejoin="round" stroke-miterlimit="10" stroke-width="1.2"/>
          </g>
          <g id="g4325" transform="translate(20.293 23.858)">
            <path id="path4327" d="M-85.285-156.219a7.933,7.933,0,0,0,5.633-7.9c0-4.467-3.215-8.089-7.181-8.089s-7.181,3.621-7.181,8.089a7.933,7.933,0,0,0,5.633,7.9" transform="translate(94.013 172.206)" fill="none" stroke="#000" stroke-linecap="round" stroke-linejoin="round" stroke-miterlimit="10" stroke-width="1.2"/>
          </g>
          <g id="g4329" transform="translate(25.926 28.211)">
            <path id="path4331" d="M0,0H3.095" fill="none" stroke="#000" stroke-linecap="round" stroke-linejoin="round" stroke-miterlimit="10" stroke-width="1.2"/>
          </g>
          <g id="g4333" transform="translate(25.926 31.329)">
            <path id="path4335" d="M0,0H3.095" fill="none" stroke="#000" stroke-linecap="round" stroke-linejoin="round" stroke-miterlimit="10" stroke-width="1.2"/>
          </g>
          <g id="g4337" transform="translate(34.022 35.264)">
            <path id="path4339" d="M-52.1-49.041h-4.227a1.1,1.1,0,0,1-1.1-1.1V-54.06" transform="translate(57.427 54.06)" fill="none" stroke="#000" stroke-linecap="round" stroke-linejoin="round" stroke-miterlimit="10" stroke-width="1.2"/>
          </g>
          <g id="g4341" transform="translate(42.448 40.283)">
            <path id="path4343" d="M-60.758-3.617a7.706,7.706,0,0,0-2.363-.37h-3.855" transform="translate(66.976 3.987)" fill="none" stroke="#000" stroke-linecap="round" stroke-linejoin="round" stroke-miterlimit="10" stroke-width="1.2"/>
          </g>
          <g id="g4345" transform="translate(0.928 35.264)">
            <path id="path4347" d="M-195.4,0V3.915a1.1,1.1,0,0,1-1.1,1.1H-207.68a7.716,7.716,0,0,0-7.716,7.716V27.184h49.325" transform="translate(215.395)" fill="none" stroke="#000" stroke-linecap="round" stroke-linejoin="round" stroke-miterlimit="10" stroke-width="1.2"/>
          </g>
          <g id="g4349" transform="translate(57.326 46.96)">
            <path id="path4351" d="M-23.672-43.783h-2.423v-2.24h2.423v-2.24h-2.423" transform="translate(26.095 48.264)" fill="none" stroke="#000" stroke-linecap="round" stroke-linejoin="round" stroke-miterlimit="10" stroke-width="1.2"/>
          </g>
          <g id="g4353" transform="translate(51.365 42.883)">
            <path id="path4355" d="M0-18.132v2.394a1.856,1.856,0,0,0,1.856,1.856,1.856,1.856,0,0,0,1.856-1.856v-2.394a1.856,1.856,0,0,0-1.856-1.856A1.856,1.856,0,0,0,0-18.132Z" transform="translate(0 19.988)" fill="none" stroke="#000" stroke-linecap="round" stroke-linejoin="round" stroke-miterlimit="10" stroke-width="1.2"/>
          </g>
          <g id="g4357" transform="translate(29.021 40.283)">
            <path id="path4359" d="M0-84.3a8.751,8.751,0,0,0,7.2-8.627" transform="translate(0 92.924)" fill="none" stroke="#000" stroke-linecap="round" stroke-linejoin="round" stroke-miterlimit="10" stroke-width="1.2"/>
          </g>
          <g id="g4361" transform="translate(18.723 40.283)">
            <path id="path4363" d="M0,0A8.751,8.751,0,0,0,7.2,8.627" transform="translate(0)" fill="none" stroke="#000" stroke-linecap="round" stroke-linejoin="round" stroke-miterlimit="10" stroke-width="1.2"/>
          </g>
          <g id="g4365" transform="translate(60.228 55.224)">
            <path id="path4367" d="M0,0H2.22" fill="none" stroke="#000" stroke-linecap="round" stroke-linejoin="round" stroke-miterlimit="10" stroke-width="1.2"/>
          </g>
          <g id="g4369" transform="translate(48.666 55.224)">
            <path id="path4371" d="M0,0H7.23" fill="none" stroke="#000" stroke-linecap="round" stroke-linejoin="round" stroke-miterlimit="10" stroke-width="1.2"/>
          </g>
          <g id="g4373" transform="translate(48.666 58.625)">
            <path id="path4375" d="M-134.674,0h-13.782" transform="translate(148.456)" fill="none" stroke="#000" stroke-linecap="round" stroke-linejoin="round" stroke-miterlimit="10" stroke-width="1.2"/>
          </g>
        </g>
      </g>
    </g>
  </g>
</svg>
